{"glyphs":{"0":{"ha":485,"x_min":76,"x_max":464,"o":"m 300 393 q 227 376 260 393 q 171 331 194 360 q 135 265 147 303 q 122 188 122 228 q 151 83 122 122 q 243 43 181 43 q 308 58 276 43 q 365 101 340 74 q 403 167 389 129 q 418 251 418 206 q 390 355 418 317 q 300 393 363 393 m 206 0 q 110 41 143 0 q 76 144 76 82 q 95 240 76 189 q 149 335 114 292 q 231 406 183 378 q 336 435 278 435 q 431 394 399 435 q 464 292 464 354 q 442 183 464 235 q 383 90 419 131 q 301 24 347 49 q 206 0 254 0 z "},"1":{"ha":263,"x_min":56,"x_max":325,"o":"m 71 -10 q 56 3 56 -10 q 92 94 72 47 q 133 189 113 142 q 175 281 154 236 q 214 364 196 325 q 153 349 182 356 q 100 342 124 342 q 96 350 94 343 q 106 360 97 357 q 210 391 158 367 q 307 454 263 415 q 319 454 314 457 q 324 444 325 451 q 258 344 289 399 q 202 233 228 289 q 158 121 176 176 q 126 17 139 65 q 101 -3 117 4 q 71 -10 86 -10 z "},"2":{"ha":385,"x_min":-1,"x_max":376,"o":"m 279 435 q 351 406 326 435 q 376 340 376 378 q 359 265 376 299 q 308 201 342 232 q 226 140 275 171 q 115 71 178 108 q 183 53 144 61 q 269 46 222 46 q 343 81 324 46 q 353 81 349 86 q 356 67 358 76 q 308 17 336 35 q 239 0 281 0 q 171 8 200 0 q 119 22 142 15 q 77 31 96 29 q 40 22 58 33 q 20 10 28 15 q 6 0 13 4 q -1 9 -1 0 q 6 25 -1 18 q 122 98 65 65 q 224 163 179 131 q 294 233 268 196 q 321 318 321 269 q 299 374 321 354 q 239 393 276 393 q 165 363 194 393 q 125 288 135 332 q 115 288 121 283 q 108 299 110 292 q 128 348 114 324 q 165 392 143 372 q 215 423 186 411 q 279 435 244 435 z "},"3":{"ha":351,"x_min":-79,"x_max":358,"o":"m 253 435 q 331 406 304 435 q 358 344 358 378 q 311 239 358 278 q 171 163 264 200 q 227 165 200 171 q 275 141 254 158 q 308 97 296 124 q 319 42 319 71 q 293 -61 319 -12 q 224 -146 267 -110 q 124 -203 181 -182 q 7 -225 67 -225 q -57 -201 -37 -225 q -79 -131 -76 -176 q -71 -125 -76 -126 q -62 -128 -65 -124 q 51 -192 -42 -192 q 133 -178 94 -192 q 199 -140 171 -164 q 244 -82 228 -115 q 261 -10 261 -49 q 230 102 261 65 q 140 139 199 139 q 81 121 107 139 q 71 127 74 121 q 72 140 68 133 q 180 186 136 167 q 251 225 224 206 q 290 266 278 244 q 301 318 301 288 q 280 378 301 354 q 219 403 258 403 q 160 388 183 403 q 121 344 136 372 q 110 344 117 340 q 106 356 103 349 q 158 411 122 388 q 253 435 194 435 z "},"4":{"ha":504,"x_min":53,"x_max":644,"o":"m 628 699 q 640 697 635 700 q 642 686 644 693 q 568 608 599 649 q 510 519 538 568 q 440 381 474 456 q 378 222 407 306 q 392 221 385 221 q 406 221 399 221 q 485 235 454 221 q 532 278 517 250 q 540 277 535 281 q 542 267 544 274 q 479 201 517 222 q 375 179 442 179 l 363 179 q 340 105 351 143 q 318 28 329 67 q 294 3 313 15 q 261 -8 276 -8 q 246 0 247 -8 q 276 90 261 44 q 310 182 292 136 q 225 194 263 186 q 160 206 188 201 q 112 213 132 211 q 81 206 92 214 q 75 201 78 203 q 69 196 72 199 q 58 196 64 193 q 56 206 53 199 q 186 349 115 279 q 332 481 257 418 q 483 599 407 544 q 628 699 558 654 m 326 224 q 410 417 367 324 q 499 586 454 511 q 394 510 443 549 q 299 430 344 471 q 211 345 254 389 q 125 254 168 301 q 217 235 165 243 q 326 224 268 226 z "},"5":{"ha":347,"x_min":-97,"x_max":415,"o":"m 174 221 q 259 148 229 193 q 289 46 289 103 q 265 -51 289 -4 q 200 -135 240 -99 q 106 -192 160 -171 q -7 -214 51 -214 q -73 -191 -51 -214 q -97 -132 -94 -168 q -90 -124 -96 -125 q -81 -126 -83 -122 q -38 -166 -65 -154 q 39 -178 -11 -178 q 117 -163 82 -178 q 179 -124 153 -149 q 220 -64 206 -99 q 235 11 235 -29 q 208 106 235 64 q 126 171 182 149 q 108 233 94 182 q 141 329 121 279 q 182 422 161 379 q 203 429 188 429 q 263 431 231 431 q 328 435 294 432 q 401 461 392 438 q 410 464 404 467 q 415 454 415 461 q 403 417 408 431 q 388 397 397 404 q 365 386 379 389 q 328 382 350 383 q 301 381 317 382 q 269 379 286 381 q 237 377 253 378 q 211 376 221 376 q 187 371 194 375 q 175 358 179 367 q 159 320 165 338 q 147 283 153 303 q 147 246 142 260 q 174 221 153 232 z "},"6":{"ha":411,"x_min":69,"x_max":607,"o":"m 522 694 q 583 666 560 694 q 607 596 606 638 q 600 590 604 590 q 593 592 596 589 q 550 635 576 619 q 479 650 524 650 q 377 626 425 650 q 288 560 329 603 q 214 456 247 517 q 154 322 181 396 q 219 382 179 358 q 306 406 258 406 q 377 369 350 406 q 404 279 404 332 q 383 179 404 229 q 326 90 361 129 q 249 25 292 50 q 165 0 207 0 q 93 38 117 0 q 69 150 69 76 q 87 262 69 201 q 134 383 104 322 q 206 499 164 443 q 299 599 249 556 q 406 669 350 643 q 522 694 463 694 m 263 360 q 211 346 236 360 q 166 307 186 332 q 134 248 146 282 q 122 175 122 214 q 144 72 122 101 q 211 43 167 43 q 258 56 233 43 q 302 95 282 69 q 335 159 322 121 q 347 249 347 197 q 327 328 347 297 q 263 360 307 360 z "},"7":{"ha":453,"x_min":-15,"x_max":521,"o":"m 271 435 q 363 428 318 435 q 457 413 407 422 q 492 425 476 410 q 507 446 504 439 q 517 444 513 449 q 518 429 521 439 q 390 230 451 313 q 272 78 328 147 q 164 -53 215 10 q 68 -193 113 -117 q 35 -214 58 -203 q -1 -225 13 -225 q -11 -222 -7 -225 q -12 -211 -15 -218 q 60 -113 25 -157 q 132 -30 96 -69 q 205 49 168 10 q 281 133 242 88 q 363 233 321 178 q 451 358 406 288 q 408 364 428 361 q 367 368 388 367 q 321 370 346 369 q 264 371 296 371 q 201 366 226 371 q 158 347 175 361 q 128 310 140 333 q 104 249 115 286 q 94 247 100 242 q 89 258 88 251 q 117 336 100 294 q 149 406 133 378 q 165 418 156 413 q 188 427 174 424 q 222 433 201 431 q 271 435 242 435 z "},"8":{"ha":424,"x_min":56,"x_max":493,"o":"m 493 557 q 347 378 493 443 q 401 308 376 346 q 425 214 425 271 q 406 133 425 172 q 356 65 388 94 q 283 18 325 36 q 196 0 242 0 q 92 40 129 0 q 56 136 56 81 q 104 269 56 211 q 272 368 153 326 q 226 431 246 399 q 206 511 206 464 q 218 564 206 538 q 253 612 231 590 q 308 647 276 633 q 379 661 340 661 q 462 631 431 661 q 493 557 493 600 m 240 39 q 334 76 296 39 q 372 171 372 114 q 365 230 372 204 q 345 277 357 256 q 318 317 333 299 q 286 353 303 336 q 150 272 188 317 q 113 164 113 226 q 145 73 113 107 q 240 39 178 39 m 333 392 q 419 456 394 422 q 444 529 444 489 q 417 602 444 576 q 346 628 390 628 q 281 604 306 628 q 257 543 257 581 q 280 458 257 492 q 333 392 303 424 z "},"9":{"ha":422,"x_min":-61,"x_max":414,"o":"m 24 -210 q -35 -192 -12 -210 q -61 -143 -57 -174 q -56 -136 -60 -139 q -47 -136 -51 -133 q -11 -163 -33 -154 q 47 -172 11 -172 q 213 -106 146 -172 q 325 122 281 -39 q 261 55 297 81 q 174 29 225 29 q 90 64 118 29 q 63 150 63 99 q 80 247 63 197 q 128 339 97 297 q 203 408 160 381 q 297 435 246 435 q 381 400 349 435 q 414 313 414 365 q 381 117 414 211 q 293 -49 347 24 q 169 -166 239 -122 q 24 -210 99 -210 m 211 71 q 265 89 239 71 q 312 136 292 107 q 344 202 332 165 q 356 278 356 239 q 333 363 356 329 q 257 396 310 396 q 156 336 194 396 q 118 179 118 276 q 140 99 118 126 q 211 71 163 71 z "}," ":{"ha":208,"x_min":0,"x_max":0,"o":""},"À":{"ha":1383,"x_min":63,"x_max":1397,"o":"m 1383 929 q 1383 922 1386 926 q 1372 917 1379 917 q 1332 929 1356 921 q 1285 947 1308 938 q 1239 967 1261 957 q 1201 985 1217 976 q 1199 990 1199 986 q 1201 996 1199 993 q 1235 1013 1215 1007 q 1257 1015 1254 1018 q 1313 973 1281 996 q 1383 929 1346 950 m 1394 813 q 1397 805 1397 810 q 1390 792 1397 800 q 1308 677 1344 742 q 1247 536 1272 613 q 1207 375 1221 460 q 1193 201 1193 290 q 1210 98 1193 135 q 1267 61 1226 61 q 1372 139 1321 61 q 1381 139 1376 142 q 1382 131 1385 136 q 1349 84 1368 107 q 1310 42 1331 61 q 1269 12 1289 24 q 1232 0 1249 0 q 1162 47 1186 0 q 1138 165 1138 93 q 1163 392 1138 276 q 1034 390 1097 392 q 910 386 971 389 q 822 294 864 338 q 739 215 779 251 q 510 57 628 114 q 253 0 393 0 q 138 34 182 0 q 78 119 94 68 q 76 233 63 171 q 135 349 89 294 q 144 348 139 351 q 149 335 150 344 q 109 251 115 299 q 124 161 103 204 q 194 89 144 118 q 325 60 244 60 q 538 110 431 60 q 742 250 646 160 q 805 312 772 278 q 874 385 838 346 q 701 368 778 378 q 699 375 694 369 q 712 387 703 381 q 733 398 721 393 q 756 404 744 403 q 810 406 772 406 q 897 408 849 407 q 1074 588 976 492 q 1301 785 1172 683 q 1109 835 1208 815 q 918 856 1010 856 q 745 795 814 856 q 660 611 676 735 q 652 606 657 604 q 646 614 647 607 q 747 822 663 750 q 967 894 832 894 q 1082 887 1024 894 q 1196 867 1140 879 q 1302 841 1251 856 q 1394 813 1353 826 m 1167 410 q 1232 608 1190 511 q 1332 783 1274 704 q 1113 590 1210 685 q 932 408 1015 494 q 1064 410 999 410 q 1167 410 1129 410 z "},"Å":{"ha":1383,"x_min":63,"x_max":1436,"o":"m 1374 1046 q 1340 1031 1351 1046 q 1328 992 1328 1017 q 1338 960 1328 972 q 1369 947 1347 947 q 1402 963 1390 947 q 1414 1003 1414 978 q 1374 1046 1414 1046 m 1351 931 q 1317 945 1329 931 q 1306 981 1306 960 q 1330 1038 1306 1013 q 1390 1063 1354 1063 q 1425 1049 1414 1063 q 1436 1014 1436 1035 q 1413 956 1436 982 q 1351 931 1389 931 m 1394 813 q 1397 805 1397 810 q 1390 792 1397 800 q 1308 677 1344 742 q 1247 536 1272 613 q 1207 375 1221 460 q 1193 201 1193 290 q 1210 98 1193 135 q 1267 61 1226 61 q 1372 139 1321 61 q 1381 139 1376 142 q 1382 131 1385 136 q 1349 84 1368 107 q 1310 42 1331 61 q 1269 12 1289 24 q 1232 0 1249 0 q 1162 47 1186 0 q 1138 165 1138 93 q 1163 392 1138 276 q 1034 390 1097 392 q 910 386 971 389 q 822 294 864 338 q 739 215 779 251 q 510 57 628 114 q 253 0 393 0 q 138 34 182 0 q 78 119 94 68 q 76 233 63 171 q 135 349 89 294 q 144 348 139 351 q 149 335 150 344 q 109 251 115 299 q 124 161 103 204 q 194 89 144 118 q 325 60 244 60 q 538 110 431 60 q 742 250 646 160 q 805 312 772 278 q 874 385 838 346 q 701 368 778 378 q 699 375 694 369 q 712 387 703 381 q 733 398 721 393 q 756 404 744 403 q 810 406 772 406 q 897 408 849 407 q 1074 588 976 492 q 1301 785 1172 683 q 1109 835 1208 815 q 918 856 1010 856 q 745 795 814 856 q 660 611 676 735 q 652 606 657 604 q 646 614 647 607 q 747 822 663 750 q 967 894 832 894 q 1082 887 1024 894 q 1196 867 1140 879 q 1302 841 1251 856 q 1394 813 1353 826 m 1167 410 q 1232 608 1190 511 q 1332 783 1274 704 q 1113 590 1210 685 q 932 408 1015 494 q 1064 410 999 410 q 1167 410 1129 410 z "},"Ã":{"ha":1383,"x_min":63,"x_max":1511,"o":"m 1208 935 q 1249 978 1224 957 q 1299 999 1275 999 q 1328 991 1315 999 q 1356 974 1342 983 q 1388 958 1371 965 q 1428 950 1406 950 q 1469 966 1453 950 q 1499 1011 1485 982 q 1506 1012 1501 1014 q 1510 1006 1511 1010 q 1469 946 1493 968 q 1404 924 1446 924 q 1369 931 1385 924 q 1338 947 1353 938 q 1310 963 1324 956 q 1282 969 1296 969 q 1249 958 1264 969 q 1218 926 1233 946 q 1209 927 1213 924 q 1208 935 1206 931 m 1394 813 q 1397 805 1397 810 q 1390 792 1397 800 q 1308 677 1344 742 q 1247 536 1272 613 q 1207 375 1221 460 q 1193 201 1193 290 q 1210 98 1193 135 q 1267 61 1226 61 q 1372 139 1321 61 q 1381 139 1376 142 q 1382 131 1385 136 q 1349 84 1368 107 q 1310 42 1331 61 q 1269 12 1289 24 q 1232 0 1249 0 q 1162 47 1186 0 q 1138 165 1138 93 q 1163 392 1138 276 q 1034 390 1097 392 q 910 386 971 389 q 822 294 864 338 q 739 215 779 251 q 510 57 628 114 q 253 0 393 0 q 138 34 182 0 q 78 119 94 68 q 76 233 63 171 q 135 349 89 294 q 144 348 139 351 q 149 335 150 344 q 109 251 115 299 q 124 161 103 204 q 194 89 144 118 q 325 60 244 60 q 538 110 431 60 q 742 250 646 160 q 805 312 772 278 q 874 385 838 346 q 701 368 778 378 q 699 375 694 369 q 712 387 703 381 q 733 398 721 393 q 756 404 744 403 q 810 406 772 406 q 897 408 849 407 q 1074 588 976 492 q 1301 785 1172 683 q 1109 835 1208 815 q 918 856 1010 856 q 745 795 814 856 q 660 611 676 735 q 652 606 657 604 q 646 614 647 607 q 747 822 663 750 q 967 894 832 894 q 1082 887 1024 894 q 1196 867 1140 879 q 1302 841 1251 856 q 1394 813 1353 826 m 1167 410 q 1232 608 1190 511 q 1332 783 1274 704 q 1113 590 1210 685 q 932 408 1015 494 q 1064 410 999 410 q 1167 410 1129 410 z "},"C":{"ha":774,"x_min":96,"x_max":875,"o":"m 647 894 q 739 890 697 894 q 810 875 781 885 q 858 852 840 865 q 875 822 875 839 q 870 795 875 811 q 858 763 865 779 q 842 729 851 746 q 825 701 833 713 q 816 702 821 699 q 814 711 811 706 q 826 790 843 763 q 749 845 807 822 q 614 868 690 868 q 432 833 514 868 q 291 733 350 797 q 199 579 232 668 q 167 383 167 490 q 188 240 167 306 q 249 126 208 174 q 347 51 289 78 q 481 24 406 24 q 647 85 581 24 q 742 250 714 147 q 751 256 744 257 q 757 247 757 254 q 740 183 751 218 q 717 116 729 147 q 692 62 704 85 q 672 36 681 39 q 574 10 628 19 q 458 0 519 0 q 306 26 374 0 q 192 97 239 51 q 121 206 146 143 q 96 340 96 268 q 136 552 96 451 q 249 728 176 653 q 424 849 322 804 q 647 894 525 894 z "},"Ç":{"ha":774,"x_min":96,"x_max":874,"o":"m 874 821 q 869 794 874 810 q 858 761 865 778 q 842 728 850 744 q 825 701 833 713 q 816 701 821 699 q 813 711 811 704 q 825 790 842 763 q 747 844 806 821 q 614 868 689 868 q 432 833 514 868 q 291 733 350 797 q 199 579 232 668 q 167 383 167 490 q 188 240 167 306 q 248 126 208 174 q 346 51 288 78 q 479 24 404 24 q 646 85 579 24 q 740 250 713 147 q 750 255 744 257 q 756 246 756 253 q 740 182 750 217 q 717 116 729 147 q 692 62 704 85 q 671 36 679 39 q 474 0 588 3 q 458 -22 463 -8 q 458 -46 454 -35 q 451 -112 471 -78 q 383 -167 432 -147 q 378 -160 379 -165 q 381 -153 378 -156 q 427 -116 417 -136 q 429 -68 438 -96 q 431 -31 424 -51 q 456 0 438 -11 q 304 26 371 0 q 191 99 238 53 q 120 206 144 144 q 96 340 96 268 q 136 551 96 450 q 249 728 176 651 q 424 849 322 804 q 647 894 525 894 q 738 890 697 894 q 810 875 779 885 q 857 851 840 865 q 874 821 874 838 z "},"E":{"ha":686,"x_min":83,"x_max":758,"o":"m 374 726 q 406 644 374 678 q 518 586 439 610 q 519 577 522 583 q 508 564 515 571 q 492 551 501 557 q 478 544 483 546 q 236 477 322 551 q 150 253 150 403 q 165 163 150 204 q 206 90 179 121 q 272 42 233 60 q 358 25 310 25 q 544 78 472 25 q 649 249 617 131 q 658 253 653 256 q 664 242 663 250 q 624 113 647 164 q 582 53 601 61 q 465 15 533 31 q 325 0 396 0 q 222 18 267 0 q 146 67 176 36 q 99 137 115 97 q 83 219 83 176 q 108 345 83 286 q 176 450 132 404 q 280 528 219 496 q 413 572 340 560 q 343 628 368 596 q 318 697 318 660 q 338 772 318 736 q 394 834 358 807 q 477 878 429 861 q 582 894 525 894 q 647 888 615 894 q 704 872 679 882 q 744 848 729 861 q 758 821 758 835 q 753 795 758 810 q 742 765 749 781 q 728 737 736 750 q 717 718 721 724 q 709 717 714 715 q 706 725 704 719 q 718 759 714 740 q 711 796 722 778 q 653 846 696 821 q 554 871 610 871 q 475 858 508 871 q 419 825 442 846 q 385 778 396 804 q 374 726 374 753 z "},"É":{"ha":643,"x_min":40,"x_max":715,"o":"m 600 1019 q 626 1017 607 1024 q 657 1006 644 1011 q 661 999 660 1003 q 658 993 663 996 q 623 972 644 983 q 577 951 601 961 q 527 931 553 940 q 481 914 501 921 q 475 919 475 914 q 479 929 475 925 q 540 969 507 946 q 600 1019 574 992 m 331 726 q 363 644 331 678 q 475 586 396 610 q 476 577 479 583 q 465 564 472 571 q 449 551 458 557 q 435 544 440 546 q 193 477 279 551 q 107 253 107 403 q 122 163 107 204 q 163 90 136 121 q 228 42 190 60 q 315 25 267 25 q 501 78 429 25 q 606 249 574 131 q 615 253 610 256 q 621 242 619 250 q 581 113 604 164 q 539 53 558 61 q 422 15 490 31 q 282 0 353 0 q 178 18 224 0 q 103 67 133 36 q 56 137 72 97 q 40 219 40 176 q 65 345 40 286 q 133 450 89 404 q 237 528 176 496 q 369 572 297 560 q 300 628 325 596 q 275 697 275 660 q 295 772 275 736 q 351 834 315 807 q 434 878 386 861 q 539 894 482 894 q 604 888 572 894 q 661 872 636 882 q 701 848 686 861 q 715 821 715 835 q 710 795 715 810 q 699 765 706 781 q 685 737 693 750 q 674 718 678 724 q 666 717 671 715 q 663 725 661 719 q 675 759 671 740 q 668 796 679 778 q 610 846 653 821 q 511 871 567 871 q 432 858 465 871 q 376 825 399 846 q 342 778 353 804 q 331 726 331 753 z "},"Ê":{"ha":643,"x_min":40,"x_max":715,"o":"m 543 1036 q 560 1035 550 1043 q 606 987 578 1011 q 663 950 635 963 q 656 936 669 943 q 626 932 643 929 q 578 959 600 943 q 535 993 557 975 q 513 978 526 986 q 484 960 499 969 q 455 943 469 951 q 431 931 440 935 q 424 943 417 931 q 484 983 447 957 q 543 1036 521 1010 m 331 726 q 363 644 331 678 q 475 586 396 610 q 476 577 479 583 q 465 564 472 571 q 449 551 458 557 q 435 544 440 546 q 193 477 279 551 q 107 253 107 403 q 122 163 107 204 q 163 90 136 121 q 228 42 190 60 q 315 25 267 25 q 501 78 429 25 q 606 249 574 131 q 615 253 610 256 q 621 242 619 250 q 581 113 604 164 q 539 53 558 61 q 422 15 490 31 q 282 0 353 0 q 178 18 224 0 q 103 67 133 36 q 56 137 72 97 q 40 219 40 176 q 65 345 40 286 q 133 450 89 404 q 237 528 176 496 q 369 572 297 560 q 300 628 325 596 q 275 697 275 660 q 295 772 275 736 q 351 834 315 807 q 434 878 386 861 q 539 894 482 894 q 604 888 572 894 q 661 872 636 882 q 701 848 686 861 q 715 821 715 835 q 710 795 715 810 q 699 765 706 781 q 685 737 693 750 q 674 718 678 724 q 666 717 671 715 q 663 725 661 719 q 675 759 671 740 q 668 796 679 778 q 610 846 653 821 q 511 871 567 871 q 432 858 465 871 q 376 825 399 846 q 342 778 353 804 q 331 726 331 753 z "},"Ë":{"ha":643,"x_min":40,"x_max":715,"o":"m 501 926 q 486 950 486 926 q 500 983 486 964 q 536 1001 514 1001 q 549 983 549 1001 q 535 945 549 964 q 501 926 521 926 m 608 926 q 592 950 592 926 q 606 983 592 964 q 640 1001 619 1001 q 653 983 653 1001 q 639 945 653 964 q 608 926 625 926 m 331 726 q 363 644 331 678 q 475 586 396 610 q 476 577 479 583 q 465 564 472 571 q 449 551 458 557 q 435 544 440 546 q 193 477 279 551 q 107 253 107 403 q 122 163 107 204 q 163 90 136 121 q 228 42 190 60 q 315 25 267 25 q 501 78 429 25 q 606 249 574 131 q 615 253 610 256 q 621 242 619 250 q 581 113 604 164 q 539 53 558 61 q 422 15 490 31 q 282 0 353 0 q 178 18 224 0 q 103 67 133 36 q 56 137 72 97 q 40 219 40 176 q 65 345 40 286 q 133 450 89 404 q 237 528 176 496 q 369 572 297 560 q 300 628 325 596 q 275 697 275 660 q 295 772 275 736 q 351 834 315 807 q 434 878 386 861 q 539 894 482 894 q 604 888 572 894 q 661 872 636 882 q 701 848 686 861 q 715 821 715 835 q 710 795 715 810 q 699 765 706 781 q 685 737 693 750 q 674 718 678 724 q 666 717 671 715 q 663 725 661 719 q 675 759 671 740 q 668 796 679 778 q 610 846 653 821 q 511 871 567 871 q 432 858 465 871 q 376 825 399 846 q 342 778 353 804 q 331 726 331 753 z "},"È":{"ha":643,"x_min":40,"x_max":715,"o":"m 651 929 q 651 922 654 926 q 640 917 647 917 q 600 929 624 921 q 553 947 576 938 q 507 967 529 957 q 469 985 485 976 q 467 990 467 986 q 469 996 467 993 q 503 1013 483 1007 q 525 1015 522 1018 q 581 973 549 996 q 651 929 614 950 m 331 726 q 363 644 331 678 q 475 586 396 610 q 476 577 479 583 q 465 564 472 571 q 449 551 458 557 q 435 544 440 546 q 193 477 279 551 q 107 253 107 403 q 122 163 107 204 q 163 90 136 121 q 228 42 190 60 q 315 25 267 25 q 501 78 429 25 q 606 249 574 131 q 615 253 610 256 q 621 242 619 250 q 581 113 604 164 q 539 53 558 61 q 422 15 490 31 q 282 0 353 0 q 178 18 224 0 q 103 67 133 36 q 56 137 72 97 q 40 219 40 176 q 65 345 40 286 q 133 450 89 404 q 237 528 176 496 q 369 572 297 560 q 300 628 325 596 q 275 697 275 660 q 295 772 275 736 q 351 834 315 807 q 434 878 386 861 q 539 894 482 894 q 604 888 572 894 q 661 872 636 882 q 701 848 686 861 q 715 821 715 835 q 710 795 715 810 q 699 765 706 781 q 685 737 693 750 q 674 718 678 724 q 666 717 671 715 q 663 725 661 719 q 675 759 671 740 q 668 796 679 778 q 610 846 653 821 q 511 871 567 871 q 432 858 465 871 q 376 825 399 846 q 342 778 353 804 q 331 726 331 753 z "},"F":{"ha":869,"x_min":69,"x_max":1163,"o":"m 1157 846 q 1159 834 1163 842 q 1147 819 1156 826 q 1128 807 1139 813 q 1107 801 1117 801 q 1040 809 1074 804 q 972 819 1006 814 q 923 795 944 811 q 883 752 901 779 q 849 683 865 725 q 815 581 832 642 q 797 518 806 549 q 778 458 789 488 q 848 460 813 460 q 921 460 883 460 q 926 453 928 457 q 913 446 924 449 q 841 445 876 446 q 772 443 806 444 q 566 107 690 214 q 269 0 442 0 q 119 51 169 0 q 69 185 69 101 q 91 265 69 225 q 153 333 113 306 q 162 328 160 333 q 161 318 164 322 q 124 276 136 299 q 113 214 113 253 q 125 147 113 178 q 164 94 138 117 q 232 58 190 71 q 332 46 274 46 q 457 66 401 46 q 559 133 513 86 q 645 255 606 179 q 721 440 685 331 q 585 432 651 438 q 453 417 519 426 q 454 423 449 418 q 470 433 460 428 q 492 442 481 438 q 511 449 504 447 q 621 455 568 453 q 726 458 674 457 q 740 504 733 481 q 754 553 747 528 q 788 658 771 613 q 828 735 806 703 q 877 788 850 767 q 940 824 904 810 q 796 844 865 835 q 664 853 726 853 q 489 808 560 853 q 386 668 418 764 q 378 667 382 665 q 374 676 374 669 q 494 835 404 775 q 715 894 583 894 q 819 889 767 894 q 925 876 871 883 q 1037 860 979 868 q 1157 846 1094 851 z "},"G":{"ha":793,"x_min":-51,"x_max":967,"o":"m 796 849 q 617 809 700 849 q 474 701 535 769 q 380 537 414 632 q 346 332 346 442 q 380 189 346 238 q 485 140 414 140 q 625 185 565 140 q 708 314 685 231 q 721 328 710 322 q 744 335 732 333 q 765 336 756 338 q 775 328 775 335 q 668 55 729 167 q 533 -126 607 -57 q 376 -227 460 -196 q 201 -258 292 -258 q 90 -242 138 -258 q 12 -196 43 -225 q -35 -128 -19 -167 q -51 -47 -51 -90 q -24 60 -51 13 q 68 139 3 108 q 77 135 75 142 q 75 124 79 129 q 7 -14 7 86 q 65 -172 7 -111 q 232 -233 124 -233 q 494 -131 382 -233 q 675 199 606 -29 q 578 138 632 163 q 456 114 524 114 q 322 165 367 114 q 278 300 278 215 q 321 502 278 397 q 440 694 364 607 q 617 837 515 781 q 835 893 718 893 q 931 867 896 893 q 967 803 967 840 q 960 767 967 788 q 942 724 953 746 q 918 683 931 703 q 896 647 906 663 q 885 648 890 644 q 882 657 881 651 q 910 711 901 688 q 919 763 919 735 q 885 824 919 800 q 796 849 851 849 z "},"H":{"ha":1201,"x_min":69,"x_max":1600,"o":"m 1540 946 q 1585 927 1569 946 q 1600 883 1600 908 q 1595 845 1600 864 q 1582 813 1590 826 q 1576 811 1579 810 q 1572 818 1572 813 q 1567 872 1582 850 q 1511 894 1551 894 q 1394 867 1450 894 q 1286 775 1339 840 q 1183 601 1233 710 q 1085 329 1133 493 q 1120 319 1103 324 q 1154 310 1138 314 q 1141 294 1161 304 q 1093 286 1121 285 q 1074 293 1088 288 q 1065 259 1069 276 q 1054 224 1060 242 q 1072 61 1011 61 q 1178 139 1126 61 q 1186 140 1182 143 q 1189 131 1190 138 q 1155 84 1174 107 q 1115 42 1136 61 q 1074 12 1094 24 q 1038 0 1054 0 q 980 42 996 0 q 988 176 964 85 q 1025 308 1004 247 q 850 353 943 333 q 657 381 757 372 q 569 207 618 279 q 465 89 521 135 q 345 22 408 43 q 214 0 282 0 q 106 35 142 0 q 69 128 69 71 q 102 232 69 182 q 197 320 135 282 q 348 381 258 358 q 553 404 438 404 q 583 404 568 404 q 614 403 599 404 q 626 442 621 422 q 639 485 632 463 q 683 624 661 567 q 726 722 704 682 q 770 784 747 761 q 819 821 793 807 q 734 844 783 835 q 626 854 685 854 q 515 835 561 854 q 441 782 468 815 q 405 706 414 749 q 406 615 396 663 q 400 607 404 608 q 392 611 396 606 q 392 722 379 669 q 440 813 404 774 q 535 874 476 851 q 676 896 594 896 q 788 883 733 896 q 885 851 842 869 q 885 836 890 843 q 858 821 879 829 q 810 790 831 810 q 774 738 790 771 q 742 656 757 704 q 708 538 726 607 q 687 467 697 501 q 665 400 676 432 q 853 378 757 393 q 1036 342 949 363 q 1144 597 1083 485 q 1270 786 1204 708 q 1405 905 1336 864 q 1540 946 1474 946 m 251 33 q 364 51 313 33 q 458 109 415 68 q 538 217 501 150 q 608 383 575 283 q 567 386 588 386 q 526 386 547 386 q 350 367 428 386 q 219 317 272 349 q 139 243 167 285 q 111 156 111 201 q 148 65 111 96 q 251 33 185 33 z "},"I":{"ha":769,"x_min":69,"x_max":1029,"o":"m 1025 896 q 1028 888 1029 893 q 1021 875 1026 882 q 1008 861 1015 868 q 996 851 1001 854 q 946 829 968 843 q 903 786 924 815 q 863 706 882 757 q 822 575 843 656 q 686 253 772 385 q 723 263 706 256 q 750 275 740 269 q 756 273 754 276 q 754 265 757 269 q 678 239 725 246 q 490 61 597 122 q 251 0 383 0 q 119 38 168 0 q 69 129 69 75 q 106 215 69 172 q 203 286 142 258 q 210 281 210 285 q 208 274 211 276 q 144 219 165 250 q 124 157 124 189 q 167 75 124 110 q 297 40 210 40 q 492 85 407 40 q 643 238 578 131 q 535 292 572 242 q 497 421 497 342 q 539 592 497 507 q 652 744 581 676 q 820 854 724 813 q 1025 896 917 896 m 763 544 q 794 649 778 603 q 832 732 811 696 q 878 795 853 768 q 936 842 904 822 q 763 788 840 831 q 630 688 685 746 q 545 560 575 629 q 515 426 515 492 q 552 299 515 343 q 651 251 589 256 q 711 380 683 307 q 763 544 739 453 z "},"Í":{"ha":714,"x_min":14,"x_max":974,"o":"m 833 1019 q 859 1017 840 1024 q 890 1006 878 1011 q 894 999 893 1003 q 892 993 896 996 q 856 972 878 983 q 810 951 835 961 q 760 931 786 940 q 714 914 735 921 q 708 919 708 914 q 713 929 708 925 q 774 969 740 946 q 833 1019 807 992 m 969 896 q 972 888 974 893 q 965 875 971 882 q 953 861 960 868 q 940 851 946 854 q 890 829 913 843 q 847 786 868 815 q 807 706 826 757 q 767 575 788 656 q 631 253 717 385 q 667 263 650 256 q 694 275 685 269 q 700 273 699 276 q 699 265 701 269 q 622 239 669 246 q 435 61 542 122 q 196 0 328 0 q 63 38 113 0 q 14 129 14 75 q 50 215 14 172 q 147 286 86 258 q 155 281 154 285 q 153 274 156 276 q 89 219 110 250 q 68 157 68 189 q 111 75 68 110 q 242 40 154 40 q 437 85 351 40 q 588 238 522 131 q 479 292 517 242 q 442 421 442 342 q 483 592 442 507 q 597 744 525 676 q 765 854 668 813 q 969 896 861 896 m 707 544 q 739 649 722 603 q 776 732 756 696 q 823 795 797 768 q 881 842 849 822 q 707 788 785 831 q 574 688 629 746 q 490 560 519 629 q 460 426 460 492 q 497 299 460 343 q 596 251 533 256 q 656 380 628 307 q 707 544 683 453 z "},"Î":{"ha":714,"x_min":14,"x_max":974,"o":"m 818 1036 q 835 1035 825 1043 q 881 987 853 1011 q 938 950 910 963 q 931 936 944 943 q 901 932 918 929 q 853 959 875 943 q 810 993 832 975 q 788 978 801 986 q 759 960 774 969 q 730 943 744 951 q 706 931 715 935 q 699 943 692 931 q 759 983 722 957 q 818 1036 796 1010 m 969 896 q 972 888 974 893 q 965 875 971 882 q 953 861 960 868 q 940 851 946 854 q 890 829 913 843 q 847 786 868 815 q 807 706 826 757 q 767 575 788 656 q 631 253 717 385 q 667 263 650 256 q 694 275 685 269 q 700 273 699 276 q 699 265 701 269 q 622 239 669 246 q 435 61 542 122 q 196 0 328 0 q 63 38 113 0 q 14 129 14 75 q 50 215 14 172 q 147 286 86 258 q 155 281 154 285 q 153 274 156 276 q 89 219 110 250 q 68 157 68 189 q 111 75 68 110 q 242 40 154 40 q 437 85 351 40 q 588 238 522 131 q 479 292 517 242 q 442 421 442 342 q 483 592 442 507 q 597 744 525 676 q 765 854 668 813 q 969 896 861 896 m 707 544 q 739 649 722 603 q 776 732 756 696 q 823 795 797 768 q 881 842 849 822 q 707 788 785 831 q 574 688 629 746 q 490 560 519 629 q 460 426 460 492 q 497 299 460 343 q 596 251 533 256 q 656 380 628 307 q 707 544 683 453 z "},"Ï":{"ha":714,"x_min":14,"x_max":974,"o":"m 757 926 q 742 950 742 926 q 756 983 742 964 q 792 1001 769 1001 q 804 983 804 1001 q 790 945 804 964 q 757 926 776 926 m 864 926 q 847 950 847 926 q 861 983 847 964 q 896 1001 875 1001 q 908 983 908 1001 q 894 945 908 964 q 864 926 881 926 m 969 896 q 972 888 974 893 q 965 875 971 882 q 953 861 960 868 q 940 851 946 854 q 890 829 913 843 q 847 786 868 815 q 807 706 826 757 q 767 575 788 656 q 631 253 717 385 q 667 263 650 256 q 694 275 685 269 q 700 273 699 276 q 699 265 701 269 q 622 239 669 246 q 435 61 542 122 q 196 0 328 0 q 63 38 113 0 q 14 129 14 75 q 50 215 14 172 q 147 286 86 258 q 155 281 154 285 q 153 274 156 276 q 89 219 110 250 q 68 157 68 189 q 111 75 68 110 q 242 40 154 40 q 437 85 351 40 q 588 238 522 131 q 479 292 517 242 q 442 421 442 342 q 483 592 442 507 q 597 744 525 676 q 765 854 668 813 q 969 896 861 896 m 707 544 q 739 649 722 603 q 776 732 756 696 q 823 795 797 768 q 881 842 849 822 q 707 788 785 831 q 574 688 629 746 q 490 560 519 629 q 460 426 460 492 q 497 299 460 343 q 596 251 533 256 q 656 380 628 307 q 707 544 683 453 z "},"Ì":{"ha":714,"x_min":14,"x_max":974,"o":"m 854 929 q 853 922 857 926 q 843 917 850 917 q 803 929 826 921 q 756 947 779 938 q 710 967 732 957 q 672 985 688 976 q 669 990 669 986 q 672 996 669 993 q 706 1013 686 1007 q 728 1015 725 1018 q 784 973 751 996 q 854 929 817 950 m 969 896 q 972 888 974 893 q 965 875 971 882 q 953 861 960 868 q 940 851 946 854 q 890 829 913 843 q 847 786 868 815 q 807 706 826 757 q 767 575 788 656 q 631 253 717 385 q 667 263 650 256 q 694 275 685 269 q 700 273 699 276 q 699 265 701 269 q 622 239 669 246 q 435 61 542 122 q 196 0 328 0 q 63 38 113 0 q 14 129 14 75 q 50 215 14 172 q 147 286 86 258 q 155 281 154 285 q 153 274 156 276 q 89 219 110 250 q 68 157 68 189 q 111 75 68 110 q 242 40 154 40 q 437 85 351 40 q 588 238 522 131 q 479 292 517 242 q 442 421 442 342 q 483 592 442 507 q 597 744 525 676 q 765 854 668 813 q 969 896 861 896 m 707 544 q 739 649 722 603 q 776 732 756 696 q 823 795 797 768 q 881 842 849 822 q 707 788 785 831 q 574 688 629 746 q 490 560 519 629 q 460 426 460 492 q 497 299 460 343 q 596 251 533 256 q 656 380 628 307 q 707 544 683 453 z "},"J":{"ha":881,"x_min":0,"x_max":1146,"o":"m 1142 894 q 1144 886 1146 892 q 1137 874 1142 881 q 1125 860 1132 867 q 1113 850 1118 853 q 1059 825 1083 842 q 1014 776 1035 808 q 974 695 993 744 q 938 574 956 646 q 886 403 914 482 q 826 253 858 324 q 858 262 843 256 q 882 274 874 268 q 888 264 892 274 q 821 239 863 246 q 689 18 761 111 q 536 -136 617 -75 q 367 -227 456 -197 q 188 -257 279 -257 q 46 -212 92 -257 q 0 -100 0 -167 q 29 10 0 -47 q 109 117 58 67 q 230 204 160 167 q 383 257 300 242 q 390 251 390 257 q 383 243 390 246 q 249 198 310 229 q 143 125 188 167 q 74 35 99 83 q 49 -64 49 -14 q 91 -176 49 -133 q 235 -218 133 -218 q 392 -193 317 -218 q 536 -114 468 -168 q 665 26 604 -60 q 778 235 725 113 q 659 287 704 238 q 614 419 614 336 q 656 590 614 506 q 769 743 697 675 q 937 853 840 811 q 1142 894 1033 894 m 879 543 q 953 736 910 664 q 1053 842 996 808 q 879 788 957 829 q 747 687 801 746 q 662 559 692 628 q 632 425 632 490 q 672 299 632 344 q 783 249 713 253 q 879 543 835 375 z "},"K":{"ha":1300,"x_min":69,"x_max":1383,"o":"m 765 482 q 699 272 744 363 q 587 122 653 182 q 438 31 521 61 q 260 0 354 0 q 115 43 161 0 q 69 150 69 86 q 78 206 69 178 q 101 260 86 235 q 137 304 115 285 q 183 336 158 324 q 194 332 192 336 q 193 322 196 328 q 138 267 157 303 q 118 189 118 232 q 165 80 118 122 q 296 38 211 38 q 447 59 381 38 q 563 128 513 81 q 647 251 613 175 q 700 435 681 326 q 737 601 718 535 q 776 712 756 668 q 821 779 797 756 q 872 818 844 803 q 788 841 836 832 q 682 850 739 850 q 531 820 596 850 q 424 739 465 790 q 369 617 383 688 q 372 467 356 547 q 367 457 372 460 q 357 461 361 454 q 354 626 338 547 q 419 764 371 704 q 546 859 467 824 q 732 894 625 894 q 844 882 790 894 q 942 850 899 869 q 941 835 947 842 q 914 819 935 829 q 863 785 885 807 q 825 724 842 763 q 794 626 808 685 q 765 482 779 567 m 854 511 q 915 316 885 403 q 982 169 946 229 q 1064 76 1018 108 q 1169 44 1110 44 q 1226 60 1200 44 q 1267 101 1251 76 q 1275 101 1271 106 q 1278 90 1279 97 q 1220 26 1257 51 q 1129 0 1183 0 q 1017 38 1065 0 q 931 142 968 76 q 865 293 893 207 q 813 474 836 379 q 818 501 808 488 q 948 654 881 582 q 1082 779 1015 726 q 1211 863 1149 832 q 1326 894 1274 894 q 1367 876 1350 894 q 1383 829 1383 858 q 1380 794 1383 810 q 1367 756 1376 778 q 1358 753 1363 751 q 1353 760 1354 754 q 1344 817 1360 793 q 1282 842 1328 842 q 1192 817 1243 842 q 1083 749 1140 793 q 967 644 1026 706 q 854 511 908 583 z "},"L":{"ha":913,"x_min":42,"x_max":1007,"o":"m 917 894 q 984 865 961 894 q 1007 793 1007 836 q 997 735 1007 765 q 975 679 988 704 q 965 677 969 675 q 961 686 960 679 q 971 738 971 711 q 960 785 971 764 q 927 821 950 807 q 869 835 904 835 q 778 816 819 835 q 701 750 736 797 q 633 622 665 703 q 569 415 601 540 q 508 240 543 315 q 428 114 474 165 q 553 72 488 90 q 701 54 619 54 q 809 77 767 54 q 883 164 851 100 q 893 163 889 167 q 894 153 897 160 q 806 39 861 78 q 657 0 750 0 q 511 24 575 0 q 388 75 447 47 q 149 0 294 0 q 69 22 96 0 q 42 68 42 43 q 52 105 42 86 q 83 138 63 124 q 131 163 103 153 q 193 172 158 172 q 298 157 247 172 q 401 122 349 142 q 511 381 464 203 q 583 590 542 494 q 674 752 624 685 q 786 857 725 819 q 917 894 847 894 m 193 29 q 288 42 246 29 q 365 85 329 54 q 266 125 317 108 q 154 142 215 142 q 99 129 115 142 q 82 97 82 117 q 111 49 82 69 q 193 29 140 29 z "},"M":{"ha":1693,"x_min":71,"x_max":1799,"o":"m 1786 911 q 1796 904 1793 911 q 1794 892 1799 897 q 1674 752 1728 833 q 1582 581 1621 671 q 1522 397 1543 490 q 1501 221 1501 303 q 1519 103 1501 146 q 1569 61 1538 61 q 1674 139 1622 61 q 1683 140 1678 143 q 1686 131 1688 136 q 1652 84 1671 107 q 1613 42 1633 61 q 1572 12 1592 24 q 1535 0 1551 0 q 1471 42 1499 0 q 1443 172 1443 85 q 1458 328 1443 244 q 1501 495 1472 411 q 1574 658 1531 579 q 1675 803 1618 738 q 1499 649 1589 739 q 1327 458 1410 560 q 1174 248 1244 356 q 1056 40 1103 140 q 1035 15 1050 31 q 1011 0 1019 0 q 1001 10 1001 0 q 1077 392 1028 225 q 1194 701 1126 560 q 976 404 1083 535 q 763 184 869 274 q 544 47 656 94 q 314 0 433 0 q 213 18 257 0 q 136 68 168 36 q 88 143 104 100 q 71 238 71 186 q 102 360 71 304 q 194 447 133 415 q 202 444 200 450 q 201 433 204 439 q 141 369 158 406 q 124 275 124 333 q 139 188 124 229 q 184 117 154 147 q 258 68 214 86 q 360 50 301 50 q 594 106 482 50 q 811 261 706 163 q 1018 492 917 360 q 1221 776 1119 624 q 1017 833 1124 810 q 814 856 911 856 q 640 795 710 856 q 556 611 571 735 q 548 606 553 604 q 542 614 543 607 q 642 822 557 750 q 863 894 726 894 q 978 887 919 894 q 1092 867 1036 879 q 1198 841 1147 856 q 1290 813 1249 826 q 1297 814 1293 814 q 1303 815 1300 814 q 1309 810 1308 815 q 1307 800 1310 804 q 1275 769 1288 788 q 1247 722 1263 751 q 1137 431 1178 583 q 1068 124 1096 279 q 1218 354 1133 239 q 1397 574 1303 469 q 1592 765 1492 678 q 1786 911 1692 851 z "},"N":{"ha":1375,"x_min":60,"x_max":1774,"o":"m 1689 894 q 1751 865 1728 894 q 1774 761 1774 835 q 1766 752 1772 753 q 1757 760 1760 751 q 1739 803 1754 785 q 1701 828 1724 821 q 1652 833 1679 836 q 1599 810 1625 829 q 1474 672 1531 761 q 1374 476 1417 583 q 1306 250 1331 368 q 1276 25 1281 132 q 1274 5 1276 10 q 1264 0 1271 0 q 1255 6 1258 0 q 1249 21 1251 13 q 1099 440 1186 258 q 899 725 1011 621 q 811 418 868 553 q 678 190 754 283 q 511 49 601 97 q 325 0 421 0 q 165 42 226 0 q 82 147 104 85 q 78 278 60 208 q 156 403 96 349 q 166 399 163 404 q 167 388 169 394 q 115 291 126 347 q 126 183 104 235 q 206 96 149 132 q 360 60 263 60 q 539 106 456 60 q 688 241 622 153 q 801 458 754 329 q 871 750 847 586 q 750 824 813 799 q 619 849 688 849 q 509 818 553 849 q 446 750 465 788 q 437 749 442 747 q 431 757 432 750 q 465 808 443 783 q 514 852 486 833 q 578 883 542 871 q 656 894 614 894 q 770 873 714 894 q 879 811 826 851 l 879 814 q 886 833 881 822 q 898 853 892 844 q 910 866 904 863 q 917 863 915 869 q 913 824 915 843 q 908 788 911 806 q 1022 664 968 735 q 1122 510 1076 593 q 1205 334 1168 426 q 1269 147 1242 242 q 1301 319 1279 231 q 1356 490 1324 407 q 1427 646 1388 572 q 1510 775 1467 719 q 1599 863 1554 831 q 1689 894 1644 894 z "},"Ñ":{"ha":1106,"x_min":-210,"x_max":1504,"o":"m 851 935 q 892 978 867 957 q 942 999 918 999 q 972 991 958 999 q 999 974 985 983 q 1031 958 1014 965 q 1071 950 1049 950 q 1112 966 1096 950 q 1142 1011 1128 982 q 1149 1012 1144 1014 q 1153 1006 1154 1010 q 1113 946 1136 968 q 1047 924 1089 924 q 1012 931 1028 924 q 981 947 996 938 q 953 963 967 956 q 925 969 939 969 q 892 958 907 969 q 861 926 876 946 q 852 927 856 924 q 851 935 849 931 m 1419 894 q 1481 865 1458 894 q 1504 761 1504 835 q 1497 752 1503 753 q 1488 760 1490 751 q 1469 803 1485 785 q 1432 828 1454 821 q 1383 833 1410 836 q 1329 810 1356 829 q 1204 672 1261 761 q 1104 476 1147 583 q 1036 250 1061 368 q 1007 25 1011 132 q 1004 5 1007 10 q 994 0 1001 0 q 985 6 989 0 q 979 21 982 13 q 829 440 917 258 q 629 725 742 621 q 542 418 599 553 q 408 190 485 283 q 242 49 332 97 q 56 0 151 0 q -104 42 -43 0 q -187 147 -165 85 q -192 278 -210 208 q -114 403 -174 349 q -103 399 -107 404 q -103 388 -100 394 q -154 291 -143 347 q -143 183 -165 235 q -64 96 -121 132 q 90 60 -7 60 q 269 106 186 60 q 419 241 353 153 q 531 458 485 329 q 601 750 578 586 q 481 824 543 799 q 350 849 418 849 q 240 818 283 849 q 176 750 196 788 q 167 749 172 747 q 161 757 163 750 q 195 808 174 783 q 244 852 217 833 q 308 883 272 871 q 386 894 344 894 q 501 873 444 894 q 610 811 557 851 l 610 814 q 617 833 611 822 q 628 853 622 844 q 640 866 635 863 q 647 863 646 869 q 644 824 646 843 q 639 788 642 806 q 753 664 699 735 q 853 510 807 593 q 935 334 899 426 q 1000 147 972 242 q 1032 319 1010 231 q 1086 490 1054 407 q 1158 646 1118 572 q 1241 775 1197 719 q 1330 863 1285 831 q 1419 894 1375 894 z "},"O":{"ha":842,"x_min":97,"x_max":904,"o":"m 619 896 q 738 871 685 896 q 827 801 790 846 q 884 697 864 757 q 904 564 904 636 q 860 348 904 450 q 746 169 817 246 q 583 46 675 92 q 396 0 492 0 q 267 26 322 0 q 174 97 211 53 q 117 200 136 142 q 97 322 97 258 q 138 531 97 428 q 249 715 178 635 q 415 846 319 796 q 619 896 510 896 m 456 43 q 598 78 528 43 q 724 176 668 113 q 814 327 779 239 q 849 522 849 415 q 776 762 849 675 q 575 849 703 849 q 405 811 482 849 q 272 708 328 774 q 186 556 217 643 q 156 368 156 468 q 176 236 156 296 q 234 133 196 176 q 328 67 272 90 q 456 43 385 43 z "},"Ó":{"ha":844,"x_min":100,"x_max":907,"o":"m 650 1019 q 676 1017 657 1024 q 707 1006 694 1011 q 711 999 710 1003 q 708 993 713 996 q 673 972 694 983 q 627 951 651 961 q 577 931 603 940 q 531 914 551 921 q 525 919 525 914 q 529 929 525 925 q 590 969 557 946 q 650 1019 624 992 m 622 896 q 740 871 688 896 q 830 801 793 846 q 887 697 867 757 q 907 564 907 636 q 863 348 907 450 q 749 169 819 246 q 586 46 678 92 q 399 0 494 0 q 269 26 325 0 q 176 97 214 53 q 119 200 139 142 q 100 322 100 258 q 140 531 100 428 q 251 715 181 635 q 417 846 322 796 q 622 896 513 896 m 458 43 q 601 78 531 43 q 726 176 671 113 q 817 327 782 239 q 851 522 851 415 q 778 762 851 675 q 578 849 706 849 q 408 811 485 849 q 275 708 331 774 q 189 556 219 643 q 158 368 158 468 q 178 236 158 296 q 237 133 199 176 q 331 67 275 90 q 458 43 388 43 z "},"Ô":{"ha":844,"x_min":100,"x_max":907,"o":"m 625 1036 q 642 1035 632 1043 q 688 987 660 1011 q 744 950 717 963 q 738 936 751 943 q 708 932 725 929 q 660 959 682 943 q 617 993 639 975 q 594 978 608 986 q 566 960 581 969 q 537 943 551 951 q 513 931 522 935 q 506 943 499 931 q 566 983 529 957 q 625 1036 603 1010 m 622 896 q 740 871 688 896 q 830 801 793 846 q 887 697 867 757 q 907 564 907 636 q 863 348 907 450 q 749 169 819 246 q 586 46 678 92 q 399 0 494 0 q 269 26 325 0 q 176 97 214 53 q 119 200 139 142 q 100 322 100 258 q 140 531 100 428 q 251 715 181 635 q 417 846 322 796 q 622 896 513 896 m 458 43 q 601 78 531 43 q 726 176 671 113 q 817 327 782 239 q 851 522 851 415 q 778 762 851 675 q 578 849 706 849 q 408 811 485 849 q 275 708 331 774 q 189 556 219 643 q 158 368 158 468 q 178 236 158 296 q 237 133 199 176 q 331 67 275 90 q 458 43 388 43 z "},"Ö":{"ha":844,"x_min":100,"x_max":907,"o":"m 564 926 q 549 950 549 926 q 563 983 549 964 q 599 1001 576 1001 q 611 983 611 1001 q 597 945 611 964 q 564 926 583 926 m 671 926 q 654 950 654 926 q 668 983 654 964 q 703 1001 682 1001 q 715 983 715 1001 q 701 945 715 964 q 671 926 688 926 m 622 896 q 740 871 688 896 q 830 801 793 846 q 887 697 867 757 q 907 564 907 636 q 863 348 907 450 q 749 169 819 246 q 586 46 678 92 q 399 0 494 0 q 269 26 325 0 q 176 97 214 53 q 119 200 139 142 q 100 322 100 258 q 140 531 100 428 q 251 715 181 635 q 417 846 322 796 q 622 896 513 896 m 458 43 q 601 78 531 43 q 726 176 671 113 q 817 327 782 239 q 851 522 851 415 q 778 762 851 675 q 578 849 706 849 q 408 811 485 849 q 275 708 331 774 q 189 556 219 643 q 158 368 158 468 q 178 236 158 296 q 237 133 199 176 q 331 67 275 90 q 458 43 388 43 z "},"Ò":{"ha":844,"x_min":100,"x_max":907,"o":"m 686 929 q 685 922 689 926 q 675 917 682 917 q 635 929 658 921 q 588 947 611 938 q 542 967 564 957 q 504 985 519 976 q 501 990 501 986 q 504 996 501 993 q 538 1013 518 1007 q 560 1015 557 1018 q 616 973 583 996 q 686 929 649 950 m 622 896 q 740 871 688 896 q 830 801 793 846 q 887 697 867 757 q 907 564 907 636 q 863 348 907 450 q 749 169 819 246 q 586 46 678 92 q 399 0 494 0 q 269 26 325 0 q 176 97 214 53 q 119 200 139 142 q 100 322 100 258 q 140 531 100 428 q 251 715 181 635 q 417 846 322 796 q 622 896 513 896 m 458 43 q 601 78 531 43 q 726 176 671 113 q 817 327 782 239 q 851 522 851 415 q 778 762 851 675 q 578 849 706 849 q 408 811 485 849 q 275 708 331 774 q 189 556 219 643 q 158 368 158 468 q 178 236 158 296 q 237 133 199 176 q 331 67 275 90 q 458 43 388 43 z "},"Ø":{"ha":840,"x_min":97,"x_max":903,"o":"m 776 847 q 870 732 838 806 q 903 564 903 658 q 860 348 903 450 q 745 169 817 246 q 583 46 674 92 q 396 0 492 0 q 289 17 336 0 q 206 65 242 35 q 171 17 186 39 q 144 -21 156 -4 q 127 -27 138 -29 q 119 -17 117 -25 q 151 27 133 3 q 189 79 168 51 q 120 188 143 125 q 97 322 97 251 q 116 463 97 393 q 168 597 135 533 q 249 715 201 660 q 354 809 296 769 q 479 872 413 849 q 619 894 546 894 q 756 860 694 894 q 776 888 767 875 q 796 913 786 901 q 814 917 804 919 q 821 906 824 915 q 800 880 811 894 q 776 847 789 865 m 156 368 q 229 138 156 224 q 347 299 283 211 q 476 478 411 388 q 604 654 542 568 q 718 810 667 740 q 574 847 657 847 q 403 810 481 847 q 272 707 326 772 q 186 554 217 642 q 156 368 156 467 m 454 42 q 597 76 526 42 q 724 174 668 111 q 813 326 779 238 q 847 522 847 415 q 819 686 847 617 q 738 796 790 756 q 622 641 686 728 q 492 463 558 554 q 360 283 425 372 q 244 121 296 193 q 335 63 283 83 q 454 42 388 42 z "},"Õ":{"ha":844,"x_min":100,"x_max":907,"o":"m 479 935 q 520 978 494 957 q 569 999 546 999 q 599 991 586 999 q 627 974 613 983 q 659 958 642 965 q 699 950 676 950 q 740 966 724 950 q 769 1011 756 982 q 777 1012 772 1014 q 781 1006 782 1010 q 740 946 764 968 q 675 924 717 924 q 640 931 656 924 q 609 947 624 938 q 581 963 594 956 q 553 969 567 969 q 519 958 535 969 q 489 926 504 946 q 480 927 483 924 q 479 935 476 931 m 622 896 q 740 871 688 896 q 830 801 793 846 q 887 697 867 757 q 907 564 907 636 q 863 348 907 450 q 749 169 819 246 q 586 46 678 92 q 399 0 494 0 q 269 26 325 0 q 176 97 214 53 q 119 200 139 142 q 100 322 100 258 q 140 531 100 428 q 251 715 181 635 q 417 846 322 796 q 622 896 513 896 m 458 43 q 601 78 531 43 q 726 176 671 113 q 817 327 782 239 q 851 522 851 415 q 778 762 851 675 q 578 849 706 849 q 408 811 485 849 q 275 708 331 774 q 189 556 219 643 q 158 368 158 468 q 178 236 158 296 q 237 133 199 176 q 331 67 275 90 q 458 43 388 43 z "},"P":{"ha":1088,"x_min":69,"x_max":1213,"o":"m 960 890 q 1068 856 1021 882 q 1147 793 1115 831 q 1196 710 1179 756 q 1213 617 1213 665 q 1190 498 1213 553 q 1124 402 1167 443 q 1020 338 1082 361 q 879 314 958 314 q 731 360 786 314 q 533 86 647 172 q 282 0 418 0 q 190 17 229 0 q 123 63 150 35 q 83 127 96 90 q 69 203 69 164 q 77 256 69 229 q 98 308 85 283 q 131 352 111 332 q 174 383 150 372 q 182 374 188 386 q 122 314 142 351 q 101 233 101 276 q 116 158 101 193 q 158 97 131 124 q 226 56 186 71 q 319 42 267 42 q 437 58 383 42 q 535 116 490 75 q 619 226 581 157 q 694 399 658 294 q 668 447 679 421 q 650 506 657 474 q 656 513 651 511 q 663 511 660 515 q 701 421 675 457 q 731 517 715 464 q 801 720 763 635 q 892 860 839 806 q 874 861 883 861 q 856 861 865 861 q 606 790 708 861 q 464 581 504 719 q 456 580 460 576 q 451 594 451 583 q 608 814 499 733 q 899 894 718 894 q 915 894 907 894 q 929 893 922 894 q 1039 944 976 929 q 1047 940 1046 944 q 1040 933 1047 936 q 997 916 1017 926 q 960 890 978 906 m 893 342 q 999 361 951 342 q 1081 415 1047 381 q 1133 494 1115 449 q 1151 593 1151 540 q 1137 685 1151 642 q 1094 763 1122 729 q 1023 822 1065 797 q 926 856 981 846 q 860 742 889 810 q 807 583 831 674 q 740 382 778 472 q 893 342 796 342 z "},"Q":{"ha":782,"x_min":82,"x_max":1056,"o":"m 565 894 q 686 873 633 894 q 775 812 739 851 q 830 718 811 772 q 849 597 849 664 q 802 392 849 489 q 678 219 756 294 q 498 93 600 143 q 283 29 396 43 q 363 -3 319 17 q 452 -47 406 -24 q 549 -93 499 -69 q 650 -136 600 -117 q 747 -167 703 -157 q 843 -176 790 -176 q 960 -158 914 -176 q 1040 -103 1007 -139 q 1050 -102 1044 -100 q 1053 -111 1056 -104 q 956 -198 1015 -164 q 814 -232 897 -232 q 760 -229 785 -232 q 712 -220 736 -226 q 663 -205 688 -214 q 608 -182 638 -196 q 467 -114 539 -151 q 327 -44 394 -76 q 199 10 260 -11 q 92 31 138 32 q 83 41 85 33 q 97 57 82 49 q 149 72 124 72 q 190 61 165 72 q 235 50 215 50 q 441 88 342 50 q 616 194 540 125 q 738 358 692 263 q 783 568 783 453 q 768 687 783 632 q 722 781 753 742 q 648 843 692 821 q 546 865 604 865 q 403 833 468 865 q 292 742 339 800 q 219 602 244 683 q 193 422 193 521 q 226 293 193 347 q 324 228 258 239 q 392 239 372 219 q 400 236 397 240 q 401 226 403 232 q 363 201 389 211 q 304 190 336 190 q 238 207 267 190 q 188 252 208 224 q 156 319 167 281 q 144 401 144 357 q 177 585 144 496 q 266 742 210 674 q 399 853 322 811 q 565 894 476 894 z "},"R":{"ha":1186,"x_min":68,"x_max":1200,"o":"m 1185 104 q 1194 108 1188 108 q 1199 100 1200 107 q 1129 27 1168 54 q 1046 0 1090 0 q 942 35 985 0 q 867 128 899 69 q 815 265 836 188 q 776 428 794 343 q 782 440 776 436 q 797 447 789 443 q 821 457 806 450 q 833 456 825 458 q 853 452 840 454 q 883 450 865 450 q 924 456 900 450 q 1036 522 996 472 q 1076 647 1076 572 q 1024 794 1076 736 q 878 860 971 853 q 809 745 839 815 q 754 582 779 675 q 659 319 714 429 q 538 138 604 208 q 393 33 471 67 q 229 0 315 0 q 158 13 188 0 q 108 47 128 25 q 78 98 88 69 q 68 158 68 126 q 97 263 68 211 q 172 339 125 315 q 182 328 185 342 q 120 269 140 307 q 100 189 100 231 q 143 79 100 117 q 267 42 186 42 q 398 63 339 42 q 506 138 457 85 q 596 283 554 192 q 676 515 638 375 q 749 720 710 635 q 840 861 788 806 q 443 663 579 856 q 434 663 439 660 q 432 672 429 665 q 610 828 499 769 q 878 893 721 888 q 928 924 901 911 q 986 944 954 938 q 993 940 993 944 q 986 932 993 935 q 913 894 946 921 q 1001 876 961 894 q 1071 826 1042 857 q 1116 758 1100 796 q 1132 678 1132 719 q 1107 575 1132 622 q 1041 494 1082 528 q 947 444 1000 461 q 836 429 893 426 q 885 235 858 310 q 943 117 911 160 q 1012 60 975 75 q 1090 44 1049 44 q 1141 59 1119 44 q 1185 104 1163 74 z "},"S":{"ha":667,"x_min":69,"x_max":729,"o":"m 69 168 q 94 255 69 215 q 164 318 118 294 q 172 315 169 321 q 171 304 174 308 q 121 204 121 276 q 136 137 121 168 q 180 83 151 106 q 249 46 208 60 q 343 32 290 32 q 530 86 469 32 q 590 219 590 140 q 575 315 590 272 q 537 397 560 358 q 488 469 514 435 q 438 539 461 504 q 400 611 415 574 q 385 693 385 649 q 401 772 385 735 q 446 835 418 808 q 512 878 474 863 q 594 894 550 894 q 693 863 657 894 q 729 790 729 831 q 714 739 729 767 q 683 690 699 711 q 674 691 678 688 q 671 701 671 694 q 689 763 689 724 q 653 831 689 803 q 560 860 618 860 q 463 826 500 860 q 426 740 426 792 q 442 662 426 699 q 482 588 458 625 q 533 515 506 551 q 583 438 560 478 q 623 355 607 399 q 639 260 639 311 q 614 155 639 203 q 546 72 589 107 q 444 19 503 38 q 321 0 386 0 q 134 47 199 0 q 69 168 69 94 z "},"Š":{"ha":667,"x_min":69,"x_max":738,"o":"m 615 932 q 599 933 607 926 q 552 982 581 957 q 497 1018 524 1007 q 503 1032 490 1025 q 533 1036 515 1039 q 581 1009 558 1025 q 624 975 603 993 q 646 991 632 982 q 674 1009 660 1000 q 703 1026 689 1018 q 728 1039 718 1033 q 736 1035 735 1039 q 735 1025 738 1031 q 674 985 711 1011 q 615 932 638 960 m 69 168 q 94 255 69 215 q 164 318 118 294 q 172 315 169 321 q 171 304 174 308 q 121 204 121 276 q 136 137 121 168 q 180 83 151 106 q 249 46 208 60 q 343 32 290 32 q 530 86 469 32 q 590 219 590 140 q 575 315 590 272 q 537 397 560 358 q 488 469 514 435 q 438 539 461 504 q 400 611 415 574 q 385 693 385 649 q 401 772 385 735 q 446 835 418 808 q 512 878 474 863 q 594 894 550 894 q 693 863 657 894 q 729 790 729 831 q 714 739 729 767 q 683 690 699 711 q 674 691 678 688 q 671 701 671 694 q 689 763 689 724 q 653 831 689 803 q 560 860 618 860 q 463 826 500 860 q 426 740 426 792 q 442 662 426 699 q 482 588 458 625 q 533 515 506 551 q 583 438 560 478 q 623 355 607 399 q 639 260 639 311 q 614 155 639 203 q 546 72 589 107 q 444 19 503 38 q 321 0 386 0 q 134 47 199 0 q 69 168 69 94 z "},"T":{"ha":801,"x_min":69,"x_max":1132,"o":"m 1124 815 q 1122 794 1132 807 q 1089 767 1100 763 q 1056 777 1072 772 q 1021 786 1039 782 q 882 705 943 779 q 772 471 821 631 q 572 119 700 236 q 261 1 443 1 q 175 15 211 1 q 115 49 139 28 q 81 99 92 71 q 69 157 69 128 q 151 296 69 240 q 158 290 157 296 q 157 281 160 285 q 128 248 138 265 q 119 199 119 231 q 169 87 119 128 q 315 46 218 46 q 438 64 382 46 q 540 126 493 82 q 626 243 586 169 q 701 428 665 317 q 821 678 751 583 q 978 797 890 774 q 785 835 885 821 q 586 849 685 849 q 448 823 508 849 q 347 754 388 797 q 289 653 307 711 q 279 533 271 596 q 264 532 271 521 q 274 665 256 600 q 339 782 293 731 q 458 864 385 833 q 632 894 532 894 q 902 870 781 894 q 1124 815 1024 846 z "},"U":{"ha":1044,"x_min":89,"x_max":1175,"o":"m 613 814 q 522 839 576 828 q 411 850 468 850 q 265 813 326 850 q 168 717 204 776 q 120 585 132 658 q 124 439 108 511 q 117 431 122 433 q 108 433 111 428 q 106 603 89 521 q 168 751 122 686 q 288 855 214 815 q 461 894 363 894 q 574 882 519 894 q 671 850 628 869 q 667 833 679 843 q 537 702 593 775 q 441 548 481 629 q 381 381 401 467 q 361 213 361 296 q 393 85 361 121 q 478 49 425 49 q 619 97 550 49 q 762 247 689 146 q 916 501 835 347 q 1092 864 997 654 q 1115 885 1097 875 q 1153 894 1133 894 q 1175 885 1175 894 q 1119 802 1150 856 q 1059 681 1089 749 q 1001 538 1029 614 q 950 388 972 461 q 915 251 928 315 q 901 140 901 186 q 953 61 901 61 q 1056 139 1006 61 q 1065 140 1060 143 q 1069 131 1071 136 q 1035 84 1054 107 q 996 42 1017 61 q 955 12 975 24 q 918 0 935 0 q 862 32 879 0 q 844 108 844 64 q 865 274 844 178 q 931 481 886 369 q 681 122 804 243 q 435 0 557 0 q 334 45 368 0 q 300 174 300 90 q 322 344 300 258 q 383 513 343 431 q 481 672 424 596 q 613 814 539 749 z "},"Ú":{"ha":996,"x_min":42,"x_max":1128,"o":"m 899 1019 q 924 1017 906 1024 q 956 1006 943 1011 q 960 999 958 1003 q 957 993 961 996 q 922 972 943 983 q 876 951 900 961 q 826 931 851 940 q 779 914 800 921 q 774 919 774 914 q 778 929 774 925 q 839 969 806 946 q 899 1019 872 992 m 565 814 q 475 839 529 828 q 364 850 421 850 q 218 813 279 850 q 121 717 157 776 q 73 585 85 658 q 76 439 61 511 q 69 431 75 433 q 61 433 64 428 q 58 603 42 521 q 121 751 75 686 q 241 855 167 815 q 414 894 315 894 q 526 882 472 894 q 624 850 581 869 q 619 833 632 843 q 490 702 546 775 q 394 548 433 629 q 334 381 354 467 q 314 213 314 296 q 346 85 314 121 q 431 49 378 49 q 572 97 503 49 q 715 247 642 146 q 869 501 788 347 q 1044 864 950 654 q 1068 885 1050 875 q 1106 894 1086 894 q 1128 885 1128 894 q 1072 802 1103 856 q 1012 681 1042 749 q 953 538 982 614 q 903 388 925 461 q 867 251 881 315 q 854 140 854 186 q 906 61 854 61 q 1008 139 958 61 q 1018 140 1013 143 q 1022 131 1024 136 q 988 84 1007 107 q 949 42 969 61 q 908 12 928 24 q 871 0 888 0 q 815 32 832 0 q 797 108 797 64 q 818 274 797 178 q 883 481 839 369 q 633 122 757 243 q 388 0 510 0 q 287 45 321 0 q 253 174 253 90 q 274 344 253 258 q 336 513 296 431 q 434 672 376 596 q 565 814 492 749 z "},"Û":{"ha":997,"x_min":42,"x_max":1128,"o":"m 838 1036 q 854 1035 844 1043 q 901 987 872 1011 q 957 950 929 963 q 951 936 964 943 q 921 932 938 929 q 873 959 894 943 q 829 993 851 975 q 807 978 821 986 q 778 960 793 969 q 749 943 764 951 q 725 931 735 935 q 718 943 711 931 q 778 983 742 957 q 838 1036 815 1010 m 565 814 q 475 839 529 828 q 364 850 421 850 q 218 813 279 850 q 121 717 157 776 q 73 585 85 658 q 76 439 61 511 q 69 431 75 433 q 61 433 64 428 q 58 603 42 521 q 121 751 75 686 q 241 855 167 815 q 414 894 315 894 q 526 882 472 894 q 624 850 581 869 q 619 833 632 843 q 490 702 546 775 q 394 548 433 629 q 334 381 354 467 q 314 213 314 296 q 346 85 314 121 q 431 49 378 49 q 572 97 503 49 q 715 247 642 146 q 869 501 788 347 q 1044 864 950 654 q 1068 885 1050 875 q 1106 894 1086 894 q 1128 885 1128 894 q 1072 802 1103 856 q 1012 681 1042 749 q 953 538 982 614 q 903 388 925 461 q 867 251 881 315 q 854 140 854 186 q 906 61 854 61 q 1008 139 958 61 q 1018 140 1013 143 q 1022 131 1024 136 q 988 84 1007 107 q 949 42 969 61 q 908 12 928 24 q 871 0 888 0 q 815 32 832 0 q 797 108 797 64 q 818 274 797 178 q 883 481 839 369 q 633 122 757 243 q 388 0 510 0 q 287 45 321 0 q 253 174 253 90 q 274 344 253 258 q 336 513 296 431 q 434 672 376 596 q 565 814 492 749 z "},"Ü":{"ha":997,"x_min":42,"x_max":1128,"o":"m 768 926 q 753 950 753 926 q 767 983 753 964 q 803 1001 781 1001 q 815 983 815 1001 q 801 945 815 964 q 768 926 788 926 m 875 926 q 858 950 858 926 q 872 983 858 964 q 907 1001 886 1001 q 919 983 919 1001 q 906 945 919 964 q 875 926 892 926 m 565 814 q 475 839 529 828 q 364 850 421 850 q 218 813 279 850 q 121 717 157 776 q 73 585 85 658 q 76 439 61 511 q 69 431 75 433 q 61 433 64 428 q 58 603 42 521 q 121 751 75 686 q 241 855 167 815 q 414 894 315 894 q 526 882 472 894 q 624 850 581 869 q 619 833 632 843 q 490 702 546 775 q 394 548 433 629 q 334 381 354 467 q 314 213 314 296 q 346 85 314 121 q 431 49 378 49 q 572 97 503 49 q 715 247 642 146 q 869 501 788 347 q 1044 864 950 654 q 1068 885 1050 875 q 1106 894 1086 894 q 1128 885 1128 894 q 1072 802 1103 856 q 1012 681 1042 749 q 953 538 982 614 q 903 388 925 461 q 867 251 881 315 q 854 140 854 186 q 906 61 854 61 q 1008 139 958 61 q 1018 140 1013 143 q 1022 131 1024 136 q 988 84 1007 107 q 949 42 969 61 q 908 12 928 24 q 871 0 888 0 q 815 32 832 0 q 797 108 797 64 q 818 274 797 178 q 883 481 839 369 q 633 122 757 243 q 388 0 510 0 q 287 45 321 0 q 253 174 253 90 q 274 344 253 258 q 336 513 296 431 q 434 672 376 596 q 565 814 492 749 z "},"Ù":{"ha":996,"x_min":42,"x_max":1128,"o":"m 900 929 q 899 922 903 926 q 889 917 896 917 q 849 929 872 921 q 801 947 825 938 q 756 967 778 957 q 718 985 733 976 q 715 990 715 986 q 718 996 715 993 q 751 1013 732 1007 q 774 1015 771 1018 q 830 973 797 996 q 900 929 863 950 m 565 814 q 475 839 529 828 q 364 850 421 850 q 218 813 279 850 q 121 717 157 776 q 73 585 85 658 q 76 439 61 511 q 69 431 75 433 q 61 433 64 428 q 58 603 42 521 q 121 751 75 686 q 241 855 167 815 q 414 894 315 894 q 526 882 472 894 q 624 850 581 869 q 619 833 632 843 q 490 702 546 775 q 394 548 433 629 q 334 381 354 467 q 314 213 314 296 q 346 85 314 121 q 431 49 378 49 q 572 97 503 49 q 715 247 642 146 q 869 501 788 347 q 1044 864 950 654 q 1068 885 1050 875 q 1106 894 1086 894 q 1128 885 1128 894 q 1072 802 1103 856 q 1012 681 1042 749 q 953 538 982 614 q 903 388 925 461 q 867 251 881 315 q 854 140 854 186 q 906 61 854 61 q 1008 139 958 61 q 1018 140 1013 143 q 1022 131 1024 136 q 988 84 1007 107 q 949 42 969 61 q 908 12 928 24 q 871 0 888 0 q 815 32 832 0 q 797 108 797 64 q 818 274 797 178 q 883 481 839 369 q 633 122 757 243 q 388 0 510 0 q 287 45 321 0 q 253 174 253 90 q 274 344 253 258 q 336 513 296 431 q 434 672 376 596 q 565 814 492 749 z "},"V":{"ha":918,"x_min":97,"x_max":1043,"o":"m 1043 731 q 997 533 1043 624 q 876 356 951 442 q 706 184 801 271 q 510 -1 610 97 q 498 3 500 -1 q 498 17 496 8 q 504 35 500 25 q 513 54 508 44 q 563 216 543 128 q 587 392 582 304 q 583 563 592 481 q 547 710 574 646 q 475 812 519 774 q 365 850 431 850 q 211 770 271 850 q 111 538 151 690 q 103 533 108 532 q 97 540 97 535 q 211 804 138 714 q 389 894 285 894 q 499 863 453 894 q 575 775 544 831 q 619 644 606 719 q 633 480 633 568 q 619 295 633 392 q 578 101 604 199 q 753 253 675 182 q 883 392 831 324 q 965 532 936 461 q 993 683 993 603 q 961 793 993 753 q 881 836 929 833 q 814 781 842 838 q 806 781 810 778 q 801 790 801 783 q 822 828 808 810 q 849 862 835 847 q 879 885 864 876 q 906 894 894 894 q 960 882 935 894 q 1003 847 985 869 q 1033 795 1022 825 q 1043 731 1043 765 z "},"W":{"ha":1142,"x_min":97,"x_max":1294,"o":"m 801 49 q 799 220 807 129 q 785 397 792 311 q 778 552 778 482 q 800 663 778 622 q 707 525 749 589 q 628 395 665 461 q 555 256 590 329 q 481 94 519 183 q 453 23 460 46 q 435 0 447 0 q 421 10 424 0 q 428 49 418 21 q 522 383 499 235 q 528 636 544 532 q 462 796 513 740 q 336 851 411 851 q 244 831 285 851 q 174 772 203 810 q 131 683 146 735 q 115 572 115 632 q 106 563 113 564 q 100 568 100 561 q 117 695 97 635 q 173 801 136 756 q 263 874 210 847 q 382 901 315 901 q 478 872 439 901 q 539 791 517 843 q 568 669 561 739 q 568 517 575 599 q 541 344 561 435 q 490 164 521 254 q 578 345 528 250 q 687 531 629 440 q 805 699 744 621 q 924 829 865 776 q 931 826 928 831 q 936 815 935 822 q 937 801 938 808 q 932 789 936 794 q 899 765 913 776 q 871 733 886 753 q 838 656 847 703 q 828 553 829 608 q 834 435 828 497 q 846 310 840 372 q 854 190 851 249 q 851 83 857 132 q 972 235 904 163 q 1101 385 1040 308 q 1204 546 1163 461 q 1246 735 1246 631 q 1233 808 1246 779 q 1197 840 1221 838 q 1168 824 1181 842 q 1146 786 1156 807 q 1132 796 1132 781 q 1172 865 1147 835 q 1221 894 1197 894 q 1274 861 1254 894 q 1294 781 1294 828 q 1272 628 1294 697 q 1213 499 1250 560 q 1129 383 1176 439 q 1033 273 1082 328 q 935 160 983 218 q 849 38 888 103 q 828 10 838 21 q 808 0 819 0 q 799 4 801 0 q 797 15 797 8 q 799 31 797 22 q 801 49 801 40 z "},"X":{"ha":1129,"x_min":69,"x_max":1175,"o":"m 1131 896 q 1163 877 1150 896 q 1175 819 1175 858 q 1164 748 1175 788 q 1138 682 1153 708 q 1126 682 1132 679 q 1122 692 1121 685 q 1136 756 1136 725 q 1121 810 1136 792 q 1067 829 1106 829 q 967 802 1018 829 q 867 727 917 775 q 774 614 818 679 q 693 472 729 549 q 812 170 735 281 q 993 60 889 60 q 1059 83 1029 60 q 1111 160 1089 106 q 1120 162 1115 165 q 1125 149 1125 158 q 1051 33 1089 65 q 965 1 1014 1 q 855 35 904 1 q 767 127 806 69 q 700 260 728 185 q 654 418 672 336 l 654 419 q 427 106 546 211 q 196 1 308 1 q 103 25 138 1 q 69 81 69 49 q 75 112 69 92 q 91 156 81 132 q 116 207 101 181 q 147 258 131 233 q 158 259 151 263 q 163 247 165 256 q 133 186 140 215 q 129 128 125 157 q 159 78 133 96 q 233 60 185 60 q 350 88 294 60 q 458 168 406 117 q 557 291 510 219 q 649 449 604 363 q 620 607 631 536 q 600 727 610 678 q 577 803 590 776 q 540 829 564 829 q 485 797 513 829 q 432 714 458 764 q 419 710 425 707 q 415 722 413 714 q 451 787 431 756 q 494 842 472 818 q 537 881 515 867 q 574 896 558 896 q 621 861 604 896 q 647 771 638 826 q 665 645 657 715 q 686 506 672 575 q 776 663 725 590 q 885 786 826 735 q 1006 867 943 838 q 1131 896 1068 896 z "},"Y":{"ha":919,"x_min":10,"x_max":1214,"o":"m 593 894 q 633 882 618 894 q 651 840 647 869 q 647 765 656 811 q 617 650 639 718 q 567 497 589 565 q 533 358 544 428 q 542 268 525 299 q 613 238 558 238 q 864 397 733 238 q 1151 872 994 557 q 1199 894 1178 894 q 1210 875 1214 894 q 946 368 1067 571 q 713 44 825 165 q 489 -128 600 -78 q 254 -178 378 -178 q 150 -158 196 -178 q 73 -106 104 -139 q 26 -28 42 -72 q 10 64 10 15 q 28 167 10 117 q 84 256 47 217 q 176 324 121 296 q 304 360 231 351 q 310 353 311 358 q 303 340 310 347 q 194 310 239 332 q 119 257 149 289 q 77 185 90 225 q 64 99 64 144 q 125 -69 64 -7 q 307 -131 186 -131 q 476 -100 396 -131 q 635 3 557 -69 q 791 194 713 75 q 956 488 869 313 q 869 369 917 424 q 771 273 821 314 q 672 209 721 232 q 581 186 622 186 q 492 222 518 186 q 476 322 467 258 q 510 475 488 399 q 556 622 533 551 q 588 736 578 692 q 596 807 597 781 q 585 843 594 833 q 557 853 575 853 q 522 844 540 853 q 488 824 504 836 q 456 796 471 811 q 433 765 442 781 q 423 765 428 760 q 419 776 418 769 q 447 813 429 792 q 490 851 465 833 q 540 882 514 869 q 593 894 567 894 z "},"Ý":{"ha":919,"x_min":10,"x_max":1214,"o":"m 956 1019 q 981 1017 963 1024 q 1013 1006 1000 1011 q 1017 999 1015 1003 q 1014 993 1018 996 q 978 972 1000 983 q 933 951 957 961 q 883 931 908 940 q 836 914 857 921 q 831 919 831 914 q 835 929 831 925 q 896 969 863 946 q 956 1019 929 992 m 593 894 q 633 882 618 894 q 651 840 647 869 q 647 765 656 811 q 617 650 639 718 q 567 497 589 565 q 533 358 544 428 q 542 268 525 299 q 613 238 558 238 q 864 397 733 238 q 1151 872 994 557 q 1199 894 1178 894 q 1210 875 1214 894 q 946 368 1067 571 q 713 44 825 165 q 489 -128 600 -78 q 254 -178 378 -178 q 150 -158 196 -178 q 73 -106 104 -139 q 26 -28 42 -72 q 10 64 10 15 q 28 167 10 117 q 84 256 47 217 q 176 324 121 296 q 304 360 231 351 q 310 353 311 358 q 303 340 310 347 q 194 310 239 332 q 119 257 149 289 q 77 185 90 225 q 64 99 64 144 q 125 -69 64 -7 q 307 -131 186 -131 q 476 -100 396 -131 q 635 3 557 -69 q 791 194 713 75 q 956 488 869 313 q 869 369 917 424 q 771 273 821 314 q 672 209 721 232 q 581 186 622 186 q 492 222 518 186 q 476 322 467 258 q 510 475 488 399 q 556 622 533 551 q 588 736 578 692 q 596 807 597 781 q 585 843 594 833 q 557 853 575 853 q 522 844 540 853 q 488 824 504 836 q 456 796 471 811 q 433 765 442 781 q 423 765 428 760 q 419 776 418 769 q 447 813 429 792 q 490 851 465 833 q 540 882 514 869 q 593 894 567 894 z "},"Ÿ":{"ha":919,"x_min":10,"x_max":1214,"o":"m 821 926 q 806 950 806 926 q 819 983 806 964 q 856 1001 833 1001 q 868 983 868 1001 q 854 945 868 964 q 821 926 840 926 m 928 926 q 911 950 911 926 q 925 983 911 964 q 960 1001 939 1001 q 972 983 972 1001 q 958 945 972 964 q 928 926 944 926 m 593 894 q 633 882 618 894 q 651 840 647 869 q 647 765 656 811 q 617 650 639 718 q 567 497 589 565 q 533 358 544 428 q 542 268 525 299 q 613 238 558 238 q 864 397 733 238 q 1151 872 994 557 q 1199 894 1178 894 q 1210 875 1214 894 q 946 368 1067 571 q 713 44 825 165 q 489 -128 600 -78 q 254 -178 378 -178 q 150 -158 196 -178 q 73 -106 104 -139 q 26 -28 42 -72 q 10 64 10 15 q 28 167 10 117 q 84 256 47 217 q 176 324 121 296 q 304 360 231 351 q 310 353 311 358 q 303 340 310 347 q 194 310 239 332 q 119 257 149 289 q 77 185 90 225 q 64 99 64 144 q 125 -69 64 -7 q 307 -131 186 -131 q 476 -100 396 -131 q 635 3 557 -69 q 791 194 713 75 q 956 488 869 313 q 869 369 917 424 q 771 273 821 314 q 672 209 721 232 q 581 186 622 186 q 492 222 518 186 q 476 322 467 258 q 510 475 488 399 q 556 622 533 551 q 588 736 578 692 q 596 807 597 781 q 585 843 594 833 q 557 853 575 853 q 522 844 540 853 q 488 824 504 836 q 456 796 471 811 q 433 765 442 781 q 423 765 428 760 q 419 776 418 769 q 447 813 429 792 q 490 851 465 833 q 540 882 514 869 q 593 894 567 894 z "},"Z":{"ha":868,"x_min":67,"x_max":994,"o":"m 604 894 q 732 881 674 894 q 861 844 790 867 q 913 835 896 833 q 949 853 929 836 q 982 860 958 860 q 992 849 994 860 q 805 676 904 768 q 603 487 706 583 q 398 293 500 390 q 201 107 296 196 q 269 101 235 110 q 347 81 304 92 q 447 59 390 69 q 582 49 504 49 q 740 91 679 49 q 844 232 801 133 q 857 231 850 235 q 861 221 864 228 q 803 119 833 163 q 734 46 772 75 q 647 3 696 17 q 535 -11 597 -11 q 445 -6 485 -11 q 371 7 406 -1 q 305 26 336 15 q 239 46 274 36 q 166 49 196 58 q 97 0 136 40 q 78 5 89 -3 q 71 19 67 13 q 290 226 189 131 q 488 413 392 322 q 681 596 583 504 q 886 790 778 688 q 736 824 814 810 q 575 838 658 838 q 434 786 481 838 q 374 649 388 735 q 363 645 369 643 q 357 654 357 647 q 384 751 367 707 q 431 828 401 796 q 502 877 460 860 q 604 894 544 894 z "},"Ž":{"ha":868,"x_min":67,"x_max":994,"o":"m 742 932 q 725 933 733 926 q 678 982 707 957 q 624 1018 650 1007 q 629 1032 617 1025 q 660 1036 642 1039 q 707 1009 685 1025 q 750 975 729 993 q 772 991 758 982 q 801 1009 786 1000 q 830 1026 815 1018 q 854 1039 844 1033 q 863 1035 861 1039 q 861 1025 864 1031 q 801 985 838 1011 q 742 932 764 960 m 604 894 q 732 881 674 894 q 861 844 790 867 q 913 835 896 833 q 949 853 929 836 q 982 860 958 860 q 992 849 994 860 q 805 676 904 768 q 603 487 706 583 q 398 293 500 390 q 201 107 296 196 q 269 101 235 110 q 347 81 304 92 q 447 59 390 69 q 582 49 504 49 q 740 91 679 49 q 844 232 801 133 q 857 231 850 235 q 861 221 864 228 q 803 119 833 163 q 734 46 772 75 q 647 3 696 17 q 535 -11 597 -11 q 445 -6 485 -11 q 371 7 406 -1 q 305 26 336 15 q 239 46 274 36 q 166 49 196 58 q 97 0 136 40 q 78 5 89 -3 q 71 19 67 13 q 290 226 189 131 q 488 413 392 322 q 681 596 583 504 q 886 790 778 688 q 736 824 814 810 q 575 838 658 838 q 434 786 481 838 q 374 649 388 735 q 363 645 369 643 q 357 654 357 647 q 384 751 367 707 q 431 828 401 796 q 502 877 460 860 q 604 894 544 894 z "},"a":{"ha":408,"x_min":43,"x_max":407,"o":"m 375 88 q 382 88 378 90 q 385 79 386 85 q 327 19 356 39 q 279 0 299 0 q 259 13 267 0 q 249 47 251 25 q 251 95 247 68 q 263 151 254 122 q 183 51 225 93 q 103 0 142 8 q 60 24 78 0 q 43 100 43 49 q 62 191 43 146 q 113 273 81 236 q 186 332 144 310 q 274 354 228 354 q 317 349 299 354 q 350 332 335 343 q 373 345 358 339 q 400 351 388 351 q 404 344 407 351 q 349 258 372 306 q 314 167 326 211 q 298 88 301 122 q 303 42 294 54 q 328 41 310 32 q 375 88 346 50 m 133 47 q 173 69 149 47 q 224 125 197 90 q 276 203 250 160 q 321 292 301 247 q 295 321 315 310 q 249 332 275 332 q 191 316 218 332 q 143 272 164 300 q 110 204 122 243 q 97 118 97 165 q 108 67 97 88 q 133 47 118 47 z "},"á":{"ha":408,"x_min":43,"x_max":408,"o":"m 375 88 q 382 88 378 90 q 385 79 386 85 q 327 19 356 39 q 279 0 299 0 q 259 13 267 0 q 249 47 251 25 q 251 95 247 68 q 263 151 254 122 q 183 51 225 93 q 103 0 142 8 q 60 24 78 0 q 43 100 43 49 q 62 191 43 146 q 113 273 81 236 q 186 332 144 310 q 274 354 228 354 q 317 349 299 354 q 350 332 335 343 q 373 345 358 339 q 400 351 388 351 q 404 344 407 351 q 349 258 372 306 q 314 167 326 211 q 298 88 301 122 q 303 42 294 54 q 328 41 310 32 q 375 88 346 50 m 133 47 q 173 69 149 47 q 224 125 197 90 q 276 203 250 160 q 321 292 301 247 q 295 321 315 310 q 249 332 275 332 q 191 316 218 332 q 143 272 164 300 q 110 204 122 243 q 97 118 97 165 q 108 67 97 88 q 133 47 118 47 m 342 529 q 367 528 349 533 q 399 517 386 522 q 400 503 408 511 q 368 485 388 494 q 328 466 349 475 q 285 449 307 457 q 246 436 264 442 q 240 441 240 436 q 246 451 240 446 q 293 484 264 463 q 342 529 322 506 z "},"â":{"ha":408,"x_min":43,"x_max":413,"o":"m 375 88 q 382 88 378 90 q 385 79 386 85 q 327 19 356 39 q 279 0 299 0 q 259 13 267 0 q 249 47 251 25 q 251 95 247 68 q 263 151 254 122 q 183 51 225 93 q 103 0 142 8 q 60 24 78 0 q 43 100 43 49 q 62 191 43 146 q 113 273 81 236 q 186 332 144 310 q 274 354 228 354 q 317 349 299 354 q 350 332 335 343 q 373 345 358 339 q 400 351 388 351 q 404 344 407 351 q 349 258 372 306 q 314 167 326 211 q 298 88 301 122 q 303 42 294 54 q 328 41 310 32 q 375 88 346 50 m 133 47 q 173 69 149 47 q 224 125 197 90 q 276 203 250 160 q 321 292 301 247 q 295 321 315 310 q 249 332 275 332 q 191 316 218 332 q 143 272 164 300 q 110 204 122 243 q 97 118 97 165 q 108 67 97 88 q 133 47 118 47 m 296 546 q 313 544 304 553 q 353 504 328 525 q 406 472 379 483 q 399 458 413 465 q 368 454 385 451 q 326 474 343 464 q 288 501 310 485 q 248 476 271 490 q 203 451 225 463 q 194 464 188 451 q 247 498 218 478 q 296 546 275 518 z "},"´":{"ha":218,"x_min":28,"x_max":196,"o":"m 129 529 q 155 528 136 533 q 186 517 174 522 q 188 503 196 511 q 156 485 175 494 q 115 466 136 475 q 73 449 94 457 q 33 436 51 442 q 28 441 28 436 q 33 451 28 446 q 81 484 51 463 q 129 529 110 506 z "},"ä":{"ha":394,"x_min":43,"x_max":407,"o":"m 375 88 q 382 88 378 90 q 385 79 386 85 q 327 19 356 39 q 279 0 299 0 q 259 13 267 0 q 249 47 251 25 q 251 95 247 68 q 263 151 254 122 q 183 51 225 93 q 103 0 142 8 q 60 24 78 0 q 43 100 43 49 q 62 191 43 146 q 113 273 81 236 q 186 332 144 310 q 274 354 228 354 q 317 349 299 354 q 350 332 335 343 q 373 345 358 339 q 400 351 388 351 q 404 344 407 351 q 349 258 372 306 q 314 167 326 211 q 298 88 301 122 q 303 42 294 54 q 328 41 310 32 q 375 88 346 50 m 133 47 q 173 69 149 47 q 224 125 197 90 q 276 203 250 160 q 321 292 301 247 q 295 321 315 310 q 249 332 275 332 q 191 316 218 332 q 143 272 164 300 q 110 204 122 243 q 97 118 97 165 q 108 67 97 88 q 133 47 118 47 m 222 443 q 204 469 204 443 q 220 506 204 485 q 260 526 236 526 q 274 507 274 526 q 258 465 274 486 q 222 443 242 443 m 340 443 q 322 469 322 443 q 338 506 322 485 q 376 526 353 526 q 390 507 390 526 q 375 465 390 486 q 340 443 360 443 z "},"æ":{"ha":504,"x_min":43,"x_max":504,"o":"m 504 293 q 488 257 504 274 q 447 227 472 240 q 387 203 421 214 q 315 182 353 192 q 311 118 311 153 q 327 60 311 83 q 371 36 343 36 q 422 50 399 36 q 465 88 446 64 q 474 85 471 90 q 475 76 476 81 q 416 22 451 44 q 342 -1 381 -1 q 282 22 304 -1 q 260 92 260 46 q 281 197 260 144 q 246 135 267 167 q 201 76 225 103 q 152 28 178 49 q 104 0 126 7 q 59 23 75 0 q 43 96 43 46 q 60 185 43 139 q 106 269 76 231 q 174 331 135 307 q 260 356 214 356 q 324 332 303 356 q 347 353 333 340 q 374 365 361 365 q 379 360 382 365 q 360 333 369 347 q 343 301 351 319 q 390 340 365 325 q 442 354 414 354 q 486 335 468 354 q 504 293 504 317 m 126 51 q 167 71 143 51 q 216 123 192 90 q 263 198 240 156 q 301 286 286 240 q 278 318 294 304 q 238 332 261 332 q 181 315 207 332 q 134 268 154 297 q 103 200 114 239 q 92 118 92 161 q 100 69 92 88 q 126 51 108 51 m 413 318 q 355 290 381 318 q 318 203 329 263 q 417 231 385 213 q 449 274 449 250 q 438 306 449 293 q 413 318 428 318 z "},"à":{"ha":408,"x_min":43,"x_max":407,"o":"m 375 88 q 382 88 378 90 q 385 79 386 85 q 327 19 356 39 q 279 0 299 0 q 259 13 267 0 q 249 47 251 25 q 251 95 247 68 q 263 151 254 122 q 183 51 225 93 q 103 0 142 8 q 60 24 78 0 q 43 100 43 49 q 62 191 43 146 q 113 273 81 236 q 186 332 144 310 q 274 354 228 354 q 317 349 299 354 q 350 332 335 343 q 373 345 358 339 q 400 351 388 351 q 404 344 407 351 q 349 258 372 306 q 314 167 326 211 q 298 88 301 122 q 303 42 294 54 q 328 41 310 32 q 375 88 346 50 m 133 47 q 173 69 149 47 q 224 125 197 90 q 276 203 250 160 q 321 292 301 247 q 295 321 315 310 q 249 332 275 332 q 191 316 218 332 q 143 272 164 300 q 110 204 122 243 q 97 118 97 165 q 108 67 97 88 q 133 47 118 47 m 382 451 q 381 444 385 449 q 371 439 378 440 q 296 468 336 450 q 228 504 256 486 q 228 515 219 507 q 260 532 240 526 q 283 535 279 538 q 330 493 303 515 q 382 451 357 471 z "},"&":{"ha":704,"x_min":28,"x_max":699,"o":"m 696 283 q 692 273 699 276 q 681 276 686 269 q 651 301 669 292 q 606 311 632 311 q 546 293 572 311 q 495 247 519 275 q 447 183 471 218 q 397 115 424 149 q 481 61 435 81 q 581 42 526 42 q 657 78 628 42 q 672 83 663 85 q 671 67 682 82 q 617 18 649 36 q 539 0 585 0 q 441 19 486 0 q 360 74 396 39 q 286 21 328 42 q 190 0 244 0 q 73 42 118 0 q 28 149 28 83 q 45 221 28 190 q 90 275 63 251 q 151 319 117 299 q 219 360 185 339 q 208 468 208 419 q 220 542 208 507 q 252 603 232 576 q 299 644 272 629 q 354 660 325 660 q 394 638 378 660 q 411 588 411 615 q 399 515 411 547 q 365 456 386 482 q 317 409 344 431 q 261 369 290 388 q 308 236 276 300 q 386 126 339 172 q 440 201 414 161 q 493 276 465 242 q 552 333 521 311 q 624 356 583 356 q 672 334 654 356 q 696 283 689 313 m 244 510 q 257 383 244 447 q 338 456 304 415 q 371 563 371 497 q 359 607 371 589 q 324 625 347 625 q 265 592 286 625 q 244 510 244 560 m 82 172 q 122 74 82 110 q 235 38 163 38 q 296 50 268 38 q 347 85 324 63 q 268 203 299 135 q 222 344 238 272 q 169 309 194 326 q 125 271 144 292 q 94 226 106 250 q 82 172 82 203 z "},"å":{"ha":408,"x_min":43,"x_max":407,"o":"m 375 88 q 382 88 378 90 q 385 79 386 85 q 327 19 356 39 q 279 0 299 0 q 259 13 267 0 q 249 47 251 25 q 251 95 247 68 q 263 151 254 122 q 183 51 225 93 q 103 0 142 8 q 60 24 78 0 q 43 100 43 49 q 62 191 43 146 q 113 273 81 236 q 186 332 144 310 q 274 354 228 354 q 317 349 299 354 q 350 332 335 343 q 373 345 358 339 q 400 351 388 351 q 404 344 407 351 q 349 258 372 306 q 314 167 326 211 q 298 88 301 122 q 303 42 294 54 q 328 41 310 32 q 375 88 346 50 m 133 47 q 173 69 149 47 q 224 125 197 90 q 276 203 250 160 q 321 292 301 247 q 295 321 315 310 q 249 332 275 332 q 191 316 218 332 q 143 272 164 300 q 110 204 122 243 q 97 118 97 165 q 108 67 97 88 q 133 47 118 47 m 296 521 q 270 510 279 521 q 261 479 261 499 q 269 455 261 464 q 292 446 276 446 q 317 458 307 446 q 326 488 326 469 q 296 521 326 521 m 278 431 q 250 442 260 431 q 240 469 240 453 q 260 517 240 497 q 310 538 279 538 q 338 526 329 538 q 347 497 347 514 q 328 451 347 471 q 278 431 308 431 z "},"@":{"ha":683,"x_min":69,"x_max":628,"o":"m 450 90 q 557 141 515 90 q 599 275 599 192 q 583 356 599 318 q 541 421 568 393 q 476 465 514 449 q 390 482 438 482 q 274 460 325 482 q 185 398 222 438 q 129 304 149 358 q 110 186 110 250 q 126 87 110 133 q 174 6 143 40 q 252 -48 206 -28 q 360 -68 299 -68 q 488 -37 438 -68 q 567 43 539 -7 q 575 42 571 46 q 578 31 579 38 q 476 -69 542 -32 q 324 -106 410 -106 q 217 -85 264 -106 q 137 -28 169 -64 q 87 56 104 8 q 69 157 69 103 q 94 288 69 225 q 163 400 118 351 q 272 477 208 449 q 417 506 336 506 q 501 489 463 506 q 567 444 539 472 q 612 377 596 415 q 628 296 628 339 q 610 201 628 246 q 563 125 593 157 q 495 74 533 93 q 415 56 457 56 q 378 96 386 56 q 392 190 371 136 q 327 108 360 143 q 263 67 294 74 q 228 87 243 67 q 214 149 214 107 q 229 222 214 185 q 270 288 244 258 q 329 335 296 317 q 400 354 363 354 q 461 335 438 354 q 479 346 468 340 q 501 351 490 351 q 506 346 506 351 q 456 264 475 308 q 428 181 436 219 q 425 117 419 143 q 450 90 431 90 m 289 111 q 320 128 301 111 q 359 174 339 146 q 399 235 379 201 q 435 301 419 268 q 379 332 424 332 q 334 320 356 332 q 296 286 313 308 q 269 234 279 264 q 260 167 260 204 q 269 127 260 143 q 289 111 278 111 z "},"ã":{"ha":408,"x_min":43,"x_max":418,"o":"m 375 88 q 382 88 378 90 q 385 79 386 85 q 327 19 356 39 q 279 0 299 0 q 259 13 267 0 q 249 47 251 25 q 251 95 247 68 q 263 151 254 122 q 183 51 225 93 q 103 0 142 8 q 60 24 78 0 q 43 100 43 49 q 62 191 43 146 q 113 273 81 236 q 186 332 144 310 q 274 354 228 354 q 317 349 299 354 q 350 332 335 343 q 373 345 358 339 q 400 351 388 351 q 404 344 407 351 q 349 258 372 306 q 314 167 326 211 q 298 88 301 122 q 303 42 294 54 q 328 41 310 32 q 375 88 346 50 m 133 47 q 173 69 149 47 q 224 125 197 90 q 276 203 250 160 q 321 292 301 247 q 295 321 315 310 q 249 332 275 332 q 191 316 218 332 q 143 272 164 300 q 110 204 122 243 q 97 118 97 165 q 108 67 97 88 q 133 47 118 47 m 167 461 q 201 495 183 481 q 235 514 219 510 q 256 513 246 517 q 278 502 267 508 q 306 490 290 496 q 342 485 321 485 q 377 495 363 485 q 404 524 392 506 q 413 524 408 526 q 417 518 418 522 q 379 476 401 493 q 318 458 357 458 q 287 463 300 458 q 263 473 274 468 q 244 482 253 478 q 226 486 235 486 q 205 476 215 485 q 179 453 194 468 q 167 461 164 450 z "},"b":{"ha":343,"x_min":49,"x_max":739,"o":"m 654 1050 q 719 1015 699 1050 q 728 935 739 981 q 714 936 719 926 q 690 984 711 964 q 624 1004 668 1004 q 497 967 561 1004 q 369 842 432 929 q 245 610 306 754 q 129 254 185 467 q 158 290 142 272 q 193 322 174 307 q 233 345 213 336 q 275 354 254 354 q 320 328 307 354 q 333 267 333 301 q 311 174 333 222 q 255 88 289 126 q 181 24 221 49 q 106 -1 140 -1 q 65 13 81 -1 q 49 64 49 28 q 58 144 49 94 q 85 255 68 194 q 125 382 101 315 q 176 514 149 449 q 410 919 293 789 q 654 1050 528 1050 m 244 308 q 200 295 224 308 q 156 256 176 282 q 120 189 135 229 q 101 96 106 149 q 109 53 99 65 q 140 40 119 40 q 193 58 167 40 q 240 103 219 75 q 274 165 261 131 q 288 235 288 200 q 275 292 288 275 q 244 308 263 308 z "},"[":{"ha":442,"x_min":110,"x_max":599,"o":"m 346 850 q 352 863 349 860 q 368 865 356 865 q 425 865 400 865 q 474 865 450 865 q 524 865 497 865 q 585 863 550 864 q 592 850 599 860 q 568 839 585 840 q 490 842 535 842 q 406 842 446 842 q 278 340 338 583 q 182 -110 219 97 q 222 -110 206 -110 q 255 -111 239 -111 q 288 -110 271 -111 q 331 -110 306 -110 q 338 -123 340 -114 q 311 -133 335 -132 q 263 -133 281 -133 q 226 -133 244 -133 q 186 -131 208 -132 q 126 -131 164 -131 q 110 -117 110 -131 q 172 128 140 4 q 235 376 204 253 q 294 619 265 500 q 346 850 322 739 z "},"]":{"ha":471,"x_min":17,"x_max":506,"o":"m 269 -119 q 264 -131 268 -128 q 247 -133 260 -133 q 190 -133 215 -133 q 142 -133 165 -133 q 92 -133 118 -133 q 31 -132 65 -132 q 24 -119 17 -129 q 49 -107 31 -108 q 125 -110 81 -110 q 210 -110 169 -111 q 337 391 278 149 q 433 840 396 633 q 392 842 410 842 q 360 843 375 843 q 327 842 344 843 q 285 842 310 842 q 278 853 275 844 q 304 865 281 863 q 353 865 335 865 q 389 864 371 864 q 429 863 407 864 q 489 861 451 863 q 506 849 506 861 q 442 603 474 728 q 381 356 411 479 q 322 112 350 232 q 269 -119 293 -8 z "},"c":{"ha":282,"x_min":42,"x_max":289,"o":"m 247 243 q 240 250 240 243 q 241 299 251 278 q 199 319 231 319 q 157 303 176 319 q 124 259 138 288 q 101 192 110 231 q 93 110 93 154 q 140 42 93 42 q 249 107 194 42 q 258 106 254 110 q 260 96 263 103 q 189 27 228 56 q 113 -1 150 -1 q 62 21 82 -1 q 42 82 42 43 q 58 179 42 131 q 99 267 74 228 q 158 330 125 306 q 226 354 192 354 q 272 340 256 354 q 289 307 289 326 q 285 290 289 300 q 274 271 281 281 q 260 253 268 261 q 247 243 253 246 z "},"ˇ":{"ha":272,"x_min":24,"x_max":249,"o":"m 140 456 q 124 457 132 449 q 83 497 108 476 q 31 529 57 518 q 38 543 24 536 q 68 547 51 550 q 110 527 93 538 q 149 500 126 517 q 188 525 165 511 q 233 550 211 539 q 242 538 249 550 q 190 503 218 524 q 140 456 161 483 z "},"ç":{"ha":282,"x_min":42,"x_max":289,"o":"m 249 108 q 257 108 253 111 q 258 97 261 104 q 211 48 236 69 q 160 11 186 26 q 134 -17 140 0 q 133 -50 128 -35 q 126 -123 147 -85 q 50 -183 104 -161 q 45 -178 46 -183 q 47 -168 44 -172 q 99 -126 86 -149 q 101 -75 111 -104 q 103 -31 94 -54 q 135 3 111 -8 q 113 0 121 0 q 62 22 82 0 q 42 82 42 43 q 57 180 42 131 q 99 268 72 229 q 158 331 125 307 q 226 356 190 356 q 272 342 254 356 q 289 308 289 328 q 284 292 289 301 q 273 272 279 282 q 260 255 267 263 q 247 244 253 247 q 239 251 239 242 q 240 300 250 279 q 197 321 229 321 q 156 305 175 321 q 123 260 138 289 q 100 194 108 232 q 92 111 92 156 q 139 42 92 42 q 194 59 167 42 q 249 108 221 76 z "},"ˆ":{"ha":272,"x_min":24,"x_max":249,"o":"m 132 546 q 149 544 140 553 q 190 504 164 525 q 242 472 215 483 q 235 458 249 465 q 204 454 221 451 q 163 474 179 464 q 124 501 146 485 q 84 476 107 490 q 39 451 61 463 q 31 464 24 451 q 83 498 54 478 q 132 546 111 518 z "},":":{"ha":217,"x_min":28,"x_max":193,"o":"m 46 0 q 28 29 28 0 q 33 48 28 38 q 49 68 39 58 q 70 84 58 78 q 93 90 82 90 q 103 84 100 90 q 107 69 107 78 q 101 47 107 58 q 85 24 94 35 q 66 7 76 14 q 46 0 56 0 m 131 265 q 113 296 113 265 q 119 314 113 304 q 134 333 125 324 q 155 349 143 343 q 179 356 167 356 q 193 336 193 356 q 187 313 193 325 q 171 290 181 300 q 151 272 161 279 q 131 265 140 265 z "},",":{"ha":156,"x_min":-1,"x_max":121,"o":"m 104 92 q 116 74 111 89 q 121 43 121 60 q 88 -47 121 0 q 7 -122 56 -93 q 0 -117 1 -122 q 3 -107 -1 -112 q 53 -58 33 -87 q 72 3 72 -29 q 58 40 72 32 q 59 53 54 44 q 72 69 64 61 q 90 85 81 78 q 104 92 99 92 z "},"d":{"ha":396,"x_min":42,"x_max":892,"o":"m 836 1050 q 882 1022 872 1050 q 872 953 892 994 q 858 957 861 944 q 847 988 861 976 q 808 999 833 999 q 707 964 758 999 q 607 867 656 929 q 513 722 558 806 q 428 542 467 639 q 358 338 389 444 q 307 125 326 232 q 304 69 301 93 q 324 44 307 44 q 354 60 339 44 q 382 96 369 76 q 390 96 385 99 q 393 88 394 93 q 374 60 386 75 q 347 31 361 44 q 317 9 332 18 q 289 0 301 0 q 256 20 265 0 q 250 72 247 40 q 256 117 251 96 q 265 161 260 138 q 232 105 253 132 q 189 56 211 78 q 145 19 167 33 q 108 0 124 4 q 63 20 85 0 q 42 85 42 40 q 60 187 42 138 q 109 274 78 236 q 181 334 140 311 q 269 357 222 357 q 297 353 285 357 q 318 342 308 349 q 378 499 343 417 q 456 659 414 581 q 544 808 497 738 q 640 933 590 879 q 739 1018 689 986 q 836 1050 789 1050 m 133 49 q 170 66 149 49 q 213 111 192 83 q 255 176 235 139 q 289 251 275 213 q 297 278 293 265 q 304 303 301 290 q 283 327 299 319 q 249 335 268 335 q 192 317 219 335 q 142 269 164 300 q 108 197 121 239 q 94 106 94 156 q 106 63 94 76 q 133 49 118 49 z "},"†":{"ha":257,"x_min":21,"x_max":343,"o":"m 328 458 q 338 450 343 458 q 317 440 333 442 q 253 440 285 440 q 189 438 221 439 q 50 -89 103 167 q 37 -108 46 -104 q 31 -96 28 -111 q 56 34 42 -33 q 87 170 71 101 q 120 306 103 239 q 154 435 138 374 q 94 428 124 432 q 33 419 64 425 q 35 436 21 422 q 85 456 50 450 q 119 458 100 457 q 161 460 139 458 q 192 564 176 515 q 222 651 208 613 q 237 679 226 664 q 257 706 247 694 q 274 719 267 717 q 282 708 282 722 q 237 584 258 646 q 196 460 215 522 q 262 461 228 461 q 328 458 296 461 z "},"‡":{"ha":257,"x_min":-50,"x_max":344,"o":"m 329 460 q 340 451 344 458 q 318 440 335 443 q 253 440 286 440 q 189 438 221 440 q 147 294 167 365 q 107 150 126 222 q 254 146 178 153 q 260 138 264 143 q 244 132 256 133 q 173 133 208 133 q 101 131 138 133 q 51 -87 72 15 q 38 -107 47 -103 q 31 -96 29 -111 q 53 13 42 -43 q 78 128 64 69 q 19 122 47 125 q -39 113 -10 118 q -37 128 -50 115 q 10 146 -24 142 q 82 150 40 150 q 118 297 100 225 q 156 436 136 369 q 94 430 124 433 q 35 419 64 426 q 37 437 22 422 q 85 456 51 451 q 163 460 115 457 q 224 653 193 571 q 238 681 228 665 q 257 706 247 696 q 274 719 267 717 q 282 708 282 722 q 238 585 260 646 q 197 461 217 524 q 263 461 229 461 q 329 460 297 461 z "},"¨":{"ha":242,"x_min":28,"x_max":214,"o":"m 46 443 q 28 469 28 443 q 44 506 28 485 q 83 526 60 526 q 97 507 97 526 q 81 465 97 486 q 46 443 65 443 m 164 443 q 146 469 146 443 q 161 506 146 485 q 200 526 176 526 q 214 507 214 526 q 199 465 214 486 q 164 443 183 443 z "},"ı":{"ha":207,"x_min":47,"x_max":194,"o":"m 72 258 q 65 260 68 256 q 64 269 61 265 q 117 314 83 289 q 183 356 150 339 q 194 343 194 356 q 159 274 176 311 q 128 199 142 236 q 107 128 115 163 q 99 72 99 94 q 118 43 99 43 q 148 56 133 43 q 182 92 163 69 q 189 90 185 94 q 190 81 193 86 q 137 25 165 50 q 83 0 108 0 q 47 46 47 0 q 56 109 47 72 q 79 183 65 146 q 110 256 93 221 q 144 315 128 290 q 106 287 129 304 q 72 258 83 269 z "},"e":{"ha":286,"x_min":42,"x_max":286,"o":"m 286 294 q 271 258 286 275 q 229 228 256 242 q 169 204 203 215 q 97 183 135 193 q 95 153 96 168 q 94 119 94 138 q 110 61 94 85 q 153 38 125 38 q 205 51 181 38 q 249 89 229 65 q 257 88 254 92 q 257 78 260 83 q 198 23 233 46 q 124 0 163 0 q 65 24 88 0 q 42 93 42 47 q 57 181 42 135 q 97 267 72 228 q 155 331 122 306 q 224 356 188 356 q 268 337 250 356 q 286 294 286 318 m 194 319 q 138 292 163 319 q 101 204 113 264 q 199 233 168 214 q 231 275 231 251 q 221 307 231 294 q 194 319 211 319 z "},"é":{"ha":286,"x_min":42,"x_max":349,"o":"m 286 294 q 271 258 286 275 q 229 228 256 242 q 169 204 203 215 q 97 183 135 193 q 95 153 96 168 q 94 119 94 138 q 110 61 94 85 q 153 38 125 38 q 205 51 181 38 q 249 89 229 65 q 257 88 254 92 q 257 78 260 83 q 198 23 233 46 q 124 0 163 0 q 65 24 88 0 q 42 93 42 47 q 57 181 42 135 q 97 267 72 228 q 155 331 122 306 q 224 356 188 356 q 268 337 250 356 q 286 294 286 318 m 194 319 q 138 292 163 319 q 101 204 113 264 q 199 233 168 214 q 231 275 231 251 q 221 307 231 294 q 194 319 211 319 m 282 529 q 308 528 289 533 q 339 517 326 522 q 340 503 349 511 q 308 485 328 494 q 268 466 289 475 q 226 449 247 457 q 186 436 204 442 q 181 441 181 436 q 186 451 181 446 q 233 484 204 463 q 282 529 263 506 z "},"ê":{"ha":286,"x_min":42,"x_max":335,"o":"m 286 294 q 271 258 286 275 q 229 228 256 242 q 169 204 203 215 q 97 183 135 193 q 95 153 96 168 q 94 119 94 138 q 110 61 94 85 q 153 38 125 38 q 205 51 181 38 q 249 89 229 65 q 257 88 254 92 q 257 78 260 83 q 198 23 233 46 q 124 0 163 0 q 65 24 88 0 q 42 93 42 47 q 57 181 42 135 q 97 267 72 228 q 155 331 122 306 q 224 356 188 356 q 268 337 250 356 q 286 294 286 318 m 194 319 q 138 292 163 319 q 101 204 113 264 q 199 233 168 214 q 231 275 231 251 q 221 307 231 294 q 194 319 211 319 m 218 546 q 235 544 226 553 q 276 504 250 525 q 328 472 301 483 q 321 458 335 465 q 290 454 307 451 q 249 474 265 464 q 210 501 232 485 q 170 476 193 490 q 125 451 147 463 q 117 464 110 451 q 169 498 140 478 q 218 546 197 518 z "},"ë":{"ha":286,"x_min":42,"x_max":338,"o":"m 286 294 q 271 258 286 275 q 229 228 256 242 q 169 204 203 215 q 97 183 135 193 q 95 153 96 168 q 94 119 94 138 q 110 61 94 85 q 153 38 125 38 q 205 51 181 38 q 249 89 229 65 q 257 88 254 92 q 257 78 260 83 q 198 23 233 46 q 124 0 163 0 q 65 24 88 0 q 42 93 42 47 q 57 181 42 135 q 97 267 72 228 q 155 331 122 306 q 224 356 188 356 q 268 337 250 356 q 286 294 286 318 m 194 319 q 138 292 163 319 q 101 204 113 264 q 199 233 168 214 q 231 275 231 251 q 221 307 231 294 q 194 319 211 319 m 169 443 q 151 469 151 443 q 167 506 151 485 q 207 526 183 526 q 221 507 221 526 q 205 465 221 486 q 169 443 189 443 m 288 443 q 269 469 269 443 q 285 506 269 485 q 324 526 300 526 q 338 507 338 526 q 322 465 338 486 q 288 443 307 443 z "},"è":{"ha":286,"x_min":42,"x_max":321,"o":"m 286 294 q 271 258 286 275 q 229 228 256 242 q 169 204 203 215 q 97 183 135 193 q 95 153 96 168 q 94 119 94 138 q 110 61 94 85 q 153 38 125 38 q 205 51 181 38 q 249 89 229 65 q 257 88 254 92 q 257 78 260 83 q 198 23 233 46 q 124 0 163 0 q 65 24 88 0 q 42 93 42 47 q 57 181 42 135 q 97 267 72 228 q 155 331 122 306 q 224 356 188 356 q 268 337 250 356 q 286 294 286 318 m 194 319 q 138 292 163 319 q 101 204 113 264 q 199 233 168 214 q 231 275 231 251 q 221 307 231 294 q 194 319 211 319 m 318 451 q 317 444 321 449 q 307 439 314 440 q 232 468 272 450 q 164 504 192 486 q 164 515 156 507 q 196 532 176 526 q 219 535 215 538 q 266 493 239 515 q 318 451 293 471 z "},"—":{"ha":1389,"x_min":28,"x_max":1363,"o":"m 46 224 q 124 226 63 225 q 276 228 186 228 q 476 229 365 229 q 700 229 586 229 q 924 229 814 229 q 1125 229 1035 229 q 1277 229 1215 229 q 1357 229 1339 229 q 1360 222 1363 226 q 1353 213 1358 218 q 1340 205 1349 208 q 1325 201 1332 201 q 1233 203 1299 203 q 1078 205 1168 204 q 882 206 989 206 q 665 206 775 206 q 451 206 556 207 q 259 206 346 206 q 112 205 172 206 q 32 203 51 204 q 29 213 28 204 q 46 224 31 222 z "},"–":{"ha":694,"x_min":28,"x_max":668,"o":"m 46 224 q 117 226 68 225 q 226 228 165 228 q 353 229 286 229 q 481 229 419 229 q 590 229 542 229 q 663 229 639 229 q 666 222 668 226 q 659 213 664 218 q 646 205 654 208 q 631 201 638 201 q 544 203 594 203 q 437 205 494 204 q 319 206 379 206 q 203 206 258 207 q 103 205 149 206 q 32 203 58 204 q 29 213 28 204 q 46 224 31 222 z "},"ð":{"ha":325,"x_min":46,"x_max":310,"o":"m 206 654 q 285 476 260 563 q 310 292 310 389 q 292 186 310 238 q 246 94 274 135 q 184 27 218 53 q 118 0 150 1 q 64 27 82 0 q 46 93 46 54 q 65 203 46 150 q 117 295 85 257 q 189 349 149 333 q 271 346 229 364 q 238 490 263 424 q 169 628 214 557 q 63 542 111 586 q 58 553 56 542 q 72 579 61 565 q 110 608 88 592 q 158 643 132 625 q 129 683 144 663 q 96 725 114 704 q 59 833 54 775 q 115 936 64 892 q 124 933 121 938 q 124 922 126 928 q 133 761 67 850 q 167 715 151 738 q 197 669 182 692 q 241 697 219 683 q 283 721 263 710 q 288 717 286 721 q 283 706 290 713 q 244 681 264 694 q 206 654 225 668 m 149 47 q 192 65 169 47 q 232 111 214 82 q 262 179 250 140 q 274 260 274 218 q 260 316 274 299 q 224 333 247 333 q 131 277 167 333 q 94 128 94 221 q 108 72 94 96 q 149 47 121 47 z "},"!":{"ha":263,"x_min":76,"x_max":447,"o":"m 94 0 q 76 31 76 0 q 83 49 76 39 q 98 68 89 58 q 119 84 107 78 q 143 90 131 90 q 157 71 157 90 q 151 47 157 60 q 135 24 144 35 q 115 7 125 14 q 94 0 104 0 m 438 729 q 374 598 410 675 q 303 443 339 521 q 235 295 267 365 q 185 183 203 225 q 166 174 174 171 q 163 193 158 178 q 210 306 183 239 q 263 442 238 372 q 310 578 289 513 q 344 688 332 643 q 372 716 353 700 q 408 742 390 732 q 437 751 426 751 q 438 729 447 750 z "},"¡":{"ha":263,"x_min":-115,"x_max":256,"o":"m 238 354 q 256 324 256 354 q 249 306 256 315 q 234 286 243 296 q 213 270 225 276 q 189 264 201 264 q 175 283 175 264 q 181 307 175 294 q 197 330 188 319 q 217 347 206 340 q 238 354 228 354 m -106 -375 q -43 -244 -79 -321 q 29 -89 -7 -167 q 97 59 65 -11 q 147 171 129 129 q 166 180 158 183 q 169 161 174 176 q 122 49 149 115 q 69 -88 94 -18 q 22 -224 43 -158 q -12 -333 0 -290 q -40 -362 -21 -346 q -76 -387 -58 -378 q -105 -397 -94 -397 q -106 -375 -115 -396 z "},"f":{"ha":217,"x_min":-404,"x_max":725,"o":"m 644 1010 q 689 999 671 1010 q 716 969 707 988 q 725 930 725 951 q 715 888 725 908 q 708 885 713 883 q 701 890 704 886 q 676 940 699 918 q 604 961 653 961 q 503 933 551 961 q 406 836 456 906 q 306 649 357 767 q 197 350 256 531 q 265 351 229 351 q 338 351 300 351 q 344 344 344 349 q 331 336 343 339 q 261 333 296 335 q 190 329 226 332 q 181 301 186 314 q 64 -3 124 119 q -58 -201 4 -126 q -185 -306 -121 -275 q -317 -337 -250 -337 q -384 -317 -364 -337 q -404 -268 -404 -296 q -399 -241 -404 -256 q -385 -215 -393 -226 q -377 -214 -381 -211 q -374 -221 -374 -217 q -378 -247 -379 -232 q -366 -274 -376 -261 q -335 -297 -356 -287 q -283 -306 -315 -306 q -217 -297 -250 -306 q -152 -266 -185 -289 q -87 -201 -119 -243 q -19 -92 -54 -160 q 53 71 15 -25 q 131 299 90 167 q 135 312 133 306 q 139 325 136 318 q 92 319 115 322 q 44 310 68 315 q 41 317 38 311 q 53 328 44 322 q 75 338 63 333 q 99 344 88 343 q 122 347 110 346 q 146 349 133 347 q 253 620 196 499 q 375 828 311 742 q 507 963 439 915 q 644 1010 575 1010 z "},"ﬁ":{"ha":413,"x_min":-404,"x_max":725,"o":"m 494 560 q 503 558 499 561 q 504 551 507 554 q 449 488 475 525 q 403 415 422 451 q 395 415 399 411 q 390 424 392 418 q 390 439 389 431 q 394 453 390 447 q 438 506 414 479 q 494 560 463 532 m 644 1007 q 689 996 671 1007 q 716 967 707 985 q 725 927 725 949 q 715 885 725 906 q 701 889 707 876 q 676 937 699 915 q 604 958 653 958 q 503 931 551 958 q 406 833 456 903 q 306 646 357 764 q 197 347 256 528 q 253 349 224 349 q 317 350 282 349 q 380 353 361 351 q 406 356 399 354 q 408 343 414 353 q 397 326 404 339 q 380 299 389 314 q 363 267 371 283 q 349 238 354 251 q 317 145 329 189 q 304 72 304 101 q 325 43 304 43 q 354 56 340 43 q 388 92 368 69 q 394 90 390 94 q 396 81 399 86 q 342 25 371 50 q 290 0 314 0 q 253 46 253 0 q 261 109 253 72 q 284 185 269 146 q 318 264 299 225 q 360 333 338 303 q 289 332 335 333 q 190 326 243 331 q 186 313 188 319 q 182 299 185 306 q 65 -6 125 117 q -58 -202 4 -128 q -185 -308 -121 -276 q -317 -339 -250 -339 q -384 -318 -364 -339 q -404 -271 -404 -297 q -399 -242 -404 -257 q -385 -217 -393 -228 q -377 -216 -381 -214 q -374 -222 -374 -218 q -378 -249 -379 -235 q -366 -277 -376 -264 q -335 -299 -356 -290 q -283 -308 -315 -308 q -185 -288 -233 -308 q -87 -204 -136 -268 q 16 -21 -37 -140 q 131 297 69 99 q 135 309 133 304 q 139 321 136 314 q 91 315 115 318 q 44 308 67 313 q 41 317 38 311 q 53 328 44 322 q 74 338 63 333 q 97 343 86 343 q 122 345 110 344 q 147 346 133 346 q 254 617 196 496 q 376 826 313 739 q 507 960 439 913 q 644 1007 575 1007 z "},"g":{"ha":292,"x_min":-158,"x_max":326,"o":"m 314 375 q 322 374 318 378 q 324 365 326 371 q 296 335 313 349 q 254 324 279 322 q 267 269 267 303 q 257 211 267 238 q 235 161 247 185 q 209 117 222 138 q 188 74 196 96 q 181 28 181 51 q 197 -22 182 6 q 220 -65 210 -46 q 238 -101 231 -83 q 249 -136 246 -118 q 253 -175 253 -154 q 239 -238 253 -208 q 199 -291 225 -268 q 135 -327 172 -314 q 50 -340 97 -340 q -37 -326 1 -340 q -103 -290 -76 -312 q -144 -237 -131 -267 q -158 -175 -158 -207 q -128 -102 -158 -133 q -43 -56 -99 -71 q -34 -60 -36 -56 q -36 -69 -32 -65 q -83 -103 -65 -81 q -101 -162 -101 -125 q -53 -276 -101 -233 q 75 -319 -4 -319 q 174 -285 142 -319 q 206 -197 206 -251 q 196 -140 206 -165 q 167 -83 186 -115 q 144 2 140 -39 q 172 88 147 43 q 178 98 175 93 q 185 110 182 103 q 149 81 169 93 q 115 68 129 68 q 47 157 47 68 q 58 221 47 186 q 90 285 69 256 q 137 335 110 315 q 197 354 164 354 q 272 358 246 354 q 314 375 299 361 m 203 143 q 217 183 211 163 q 222 225 222 204 q 209 288 222 265 q 167 311 196 311 q 110 278 133 311 q 88 183 88 244 q 101 125 88 143 q 140 107 114 107 q 174 117 156 107 q 203 143 192 126 z "},"ß":{"ha":422,"x_min":-456,"x_max":742,"o":"m 685 850 q 660 922 685 896 q 586 947 635 947 q 460 910 519 947 q 348 796 401 874 q 247 595 294 718 q 157 300 199 472 q 56 -12 111 111 q -64 -208 0 -135 q -198 -310 -128 -281 q -343 -339 -268 -339 q -426 -313 -403 -339 q -456 -237 -450 -287 q -452 -231 -456 -233 q -446 -232 -449 -228 q -403 -283 -435 -262 q -306 -303 -371 -303 q -184 -280 -237 -303 q -83 -191 -131 -257 q 10 -8 -35 -125 q 104 297 54 110 q 210 603 150 472 q 338 822 269 735 q 481 951 406 908 q 632 994 556 994 q 712 965 682 994 q 742 888 742 936 q 708 761 742 815 q 624 663 675 707 q 515 580 574 618 q 406 503 457 542 q 322 419 356 464 q 289 319 289 375 q 303 261 289 288 q 333 210 317 235 q 364 159 350 185 q 378 106 378 133 q 347 31 378 61 q 251 0 315 0 q 181 15 208 0 q 154 47 154 31 q 169 85 154 60 q 204 125 185 110 q 211 124 207 128 q 213 115 215 119 q 195 90 201 104 q 192 64 189 75 q 215 28 197 40 q 256 17 232 17 q 311 36 292 17 q 331 86 331 56 q 317 138 331 113 q 286 188 303 163 q 256 243 269 214 q 242 307 242 272 q 274 406 242 363 q 356 489 307 450 q 463 565 406 528 q 570 644 521 603 q 652 736 619 686 q 685 850 685 786 z "},"`":{"ha":215,"x_min":24,"x_max":189,"o":"m 186 451 q 185 444 189 449 q 175 439 182 440 q 100 468 140 450 q 32 504 60 486 q 32 515 24 507 q 64 532 44 526 q 88 535 83 538 q 134 493 107 515 q 186 451 161 471 z "},"«":{"ha":401,"x_min":19,"x_max":419,"o":"m 265 349 q 278 342 275 351 q 269 324 281 332 q 223 290 250 311 q 168 248 196 269 q 115 206 140 226 q 76 171 90 185 q 138 114 106 147 q 189 53 169 81 q 189 38 190 47 q 183 19 188 28 q 173 6 179 11 q 158 4 167 1 q 97 83 132 44 q 32 144 61 121 q 35 168 19 156 q 148 263 88 215 q 265 349 208 310 m 404 349 q 417 342 414 351 q 408 324 419 332 q 362 290 389 311 q 307 248 335 269 q 254 206 279 226 q 215 171 229 185 q 276 114 244 147 q 328 53 308 81 q 328 38 329 47 q 322 19 326 28 q 312 6 318 11 q 297 4 306 1 q 235 83 271 44 q 171 144 200 121 q 174 168 158 156 q 287 263 226 215 q 404 349 347 310 m 404 349 q 417 342 414 351 q 408 324 419 332 q 362 290 389 311 q 307 248 335 269 q 254 206 279 226 q 215 171 229 185 q 276 114 244 147 q 328 53 308 81 q 328 38 329 47 q 322 19 326 28 q 312 6 318 11 q 297 4 306 1 q 235 83 271 44 q 171 144 200 121 q 174 168 158 156 q 287 263 226 215 q 404 349 347 310 z "},"»":{"ha":383,"x_min":-32,"x_max":356,"o":"m -15 4 q -28 10 -24 1 q -21 31 -32 19 q 20 66 -4 46 q 71 108 44 86 q 122 149 97 129 q 167 183 147 168 q 135 211 151 194 q 103 247 119 228 q 74 286 88 267 q 51 321 61 306 q 54 333 49 326 q 68 345 60 340 q 85 351 76 350 q 99 349 93 353 q 151 271 119 310 q 213 208 182 232 q 216 197 217 204 q 210 185 215 189 q 92 97 153 146 q -15 4 31 47 m 124 4 q 111 10 115 1 q 118 31 107 19 q 159 66 135 46 q 210 108 183 86 q 261 149 236 129 q 306 183 286 168 q 274 211 290 194 q 242 247 258 228 q 213 286 226 267 q 190 321 200 306 q 193 333 188 326 q 207 345 199 340 q 224 351 215 350 q 238 349 232 353 q 290 271 258 310 q 351 208 321 232 q 355 197 356 204 q 349 185 354 189 q 231 97 292 146 q 124 4 169 47 z "},"h":{"ha":406,"x_min":32,"x_max":772,"o":"m 36 13 q 176 443 99 251 q 340 769 254 635 q 514 977 425 904 q 686 1050 603 1050 q 737 1038 717 1050 q 765 1008 757 1026 q 769 968 772 990 q 749 925 765 946 q 742 922 746 921 q 738 929 738 924 q 721 982 743 957 q 650 1007 699 1007 q 517 956 585 1007 q 381 798 449 904 q 247 531 313 692 q 119 149 181 369 q 171 230 142 192 q 231 296 200 268 q 292 340 261 324 q 353 356 324 356 q 378 347 369 356 q 386 328 386 339 q 374 288 386 310 q 326 182 344 236 q 307 83 307 128 q 312 51 307 64 q 328 39 317 39 q 358 53 342 39 q 386 86 374 68 q 394 85 390 89 q 397 76 399 82 q 376 51 389 64 q 349 26 364 38 q 319 7 335 14 q 292 0 304 0 q 257 58 257 0 q 274 167 257 108 q 314 272 290 226 q 322 296 322 286 q 307 308 322 308 q 253 289 282 308 q 193 232 224 269 q 135 141 163 194 q 85 21 107 88 q 70 6 82 11 q 47 0 58 0 q 36 13 32 0 z "},"-":{"ha":340,"x_min":44,"x_max":313,"o":"m 82 222 q 128 226 100 224 q 189 231 157 229 q 252 235 221 233 q 307 236 283 236 q 311 229 313 235 q 305 217 310 224 q 292 206 300 211 q 274 199 283 200 q 218 198 249 199 q 158 196 188 197 q 100 194 128 194 q 54 192 72 193 q 54 206 44 194 q 82 222 64 218 z "},"i":{"ha":207,"x_min":47,"x_max":301,"o":"m 72 258 q 65 260 68 256 q 64 269 61 265 q 117 314 83 289 q 183 356 150 339 q 194 343 194 356 q 159 274 176 311 q 128 199 142 236 q 107 128 115 163 q 99 72 99 94 q 118 43 99 43 q 148 56 133 43 q 182 92 163 69 q 189 90 185 94 q 190 81 193 86 q 137 25 165 50 q 83 0 108 0 q 47 46 47 0 q 56 109 47 72 q 79 183 65 146 q 110 256 93 221 q 144 315 128 290 q 106 287 129 304 q 72 258 83 269 m 197 415 q 190 415 193 411 q 185 424 186 418 q 183 439 183 431 q 188 453 183 447 q 289 560 224 503 q 297 558 293 561 q 299 551 301 554 q 243 488 269 525 q 197 415 217 451 z "},"í":{"ha":207,"x_min":47,"x_max":315,"o":"m 72 258 q 65 260 68 256 q 64 269 61 265 q 117 314 83 289 q 183 356 150 339 q 194 343 194 356 q 159 274 176 311 q 128 199 142 236 q 107 128 115 163 q 99 72 99 94 q 118 43 99 43 q 148 56 133 43 q 182 92 163 69 q 189 90 185 94 q 190 81 193 86 q 137 25 165 50 q 83 0 108 0 q 47 46 47 0 q 56 109 47 72 q 79 183 65 146 q 110 256 93 221 q 144 315 128 290 q 106 287 129 304 q 72 258 83 269 m 249 529 q 274 528 256 533 q 306 517 293 522 q 307 503 315 511 q 275 485 294 494 q 235 466 256 475 q 192 449 214 457 q 153 436 171 442 q 147 441 147 436 q 153 451 147 446 q 200 484 171 463 q 249 529 229 506 z "},"î":{"ha":207,"x_min":47,"x_max":301,"o":"m 72 258 q 65 260 68 256 q 64 269 61 265 q 117 314 83 289 q 183 356 150 339 q 194 343 194 356 q 159 274 176 311 q 128 199 142 236 q 107 128 115 163 q 99 72 99 94 q 118 43 99 43 q 148 56 133 43 q 182 92 163 69 q 189 90 185 94 q 190 81 193 86 q 137 25 165 50 q 83 0 108 0 q 47 46 47 0 q 56 109 47 72 q 79 183 65 146 q 110 256 93 221 q 144 315 128 290 q 106 287 129 304 q 72 258 83 269 m 185 546 q 201 544 193 553 q 242 504 217 525 q 294 472 268 483 q 288 458 301 465 q 257 454 274 451 q 215 474 232 464 q 176 501 199 485 q 137 476 160 490 q 92 451 114 463 q 83 464 76 451 q 135 498 107 478 q 185 546 164 518 z "},"ï":{"ha":207,"x_min":47,"x_max":308,"o":"m 72 258 q 65 260 68 256 q 64 269 61 265 q 117 314 83 289 q 183 356 150 339 q 194 343 194 356 q 159 274 176 311 q 128 199 142 236 q 107 128 115 163 q 99 72 99 94 q 118 43 99 43 q 148 56 133 43 q 182 92 163 69 q 189 90 185 94 q 190 81 193 86 q 137 25 165 50 q 83 0 108 0 q 47 46 47 0 q 56 109 47 72 q 79 183 65 146 q 110 256 93 221 q 144 315 128 290 q 106 287 129 304 q 72 258 83 269 m 140 443 q 122 469 122 443 q 138 506 122 485 q 178 526 154 526 q 192 507 192 526 q 176 465 192 486 q 140 443 160 443 m 258 443 q 240 469 240 443 q 256 506 240 485 q 294 526 271 526 q 308 507 308 526 q 293 465 308 486 q 258 443 278 443 z "},"ì":{"ha":207,"x_min":47,"x_max":265,"o":"m 72 258 q 65 260 68 256 q 64 269 61 265 q 117 314 83 289 q 183 356 150 339 q 194 343 194 356 q 159 274 176 311 q 128 199 142 236 q 107 128 115 163 q 99 72 99 94 q 118 43 99 43 q 148 56 133 43 q 182 92 163 69 q 189 90 185 94 q 190 81 193 86 q 137 25 165 50 q 83 0 108 0 q 47 46 47 0 q 56 109 47 72 q 79 183 65 146 q 110 256 93 221 q 144 315 128 290 q 106 287 129 304 q 72 258 83 269 m 263 451 q 262 444 265 449 q 251 439 258 440 q 176 468 217 450 q 108 504 136 486 q 108 515 100 507 q 140 532 121 526 q 164 535 160 538 q 210 493 183 515 q 263 451 238 471 z "},"j":{"ha":189,"x_min":-425,"x_max":288,"o":"m 117 307 q 87 285 101 296 q 60 260 72 274 q 52 263 54 258 q 51 271 50 267 q 103 315 71 290 q 168 354 136 339 q 179 342 182 354 q 72 18 131 149 q -54 -192 13 -112 q -192 -306 -121 -272 q -337 -340 -264 -340 q -406 -303 -386 -340 q -410 -204 -425 -265 q -403 -201 -407 -201 q -397 -206 -399 -200 q -398 -244 -401 -226 q -382 -277 -394 -262 q -348 -300 -369 -292 q -293 -308 -326 -308 q -184 -281 -237 -308 q -78 -185 -131 -254 q 22 3 -26 -117 q 117 307 71 122 m 185 414 q 172 423 176 407 q 175 450 167 439 q 219 503 194 478 q 275 557 243 529 q 283 556 279 560 q 285 550 288 553 q 230 487 256 524 q 185 414 204 450 z "},"k":{"ha":360,"x_min":32,"x_max":764,"o":"m 200 182 q 239 69 215 108 q 297 29 263 29 q 326 36 313 29 q 354 63 339 43 q 361 62 358 65 q 363 54 364 58 q 321 15 343 29 q 268 0 299 0 q 197 47 224 0 q 154 185 171 94 q 161 199 153 196 q 211 198 186 193 q 256 214 236 203 q 287 243 275 225 q 299 283 299 261 q 264 318 299 318 q 175 272 217 318 q 113 135 133 225 q 101 83 107 111 q 90 35 94 54 q 85 18 88 24 q 72 8 82 13 q 43 0 56 0 q 36 13 32 0 q 153 435 79 244 q 317 763 228 626 q 500 975 406 900 q 678 1050 594 1050 q 728 1038 708 1050 q 756 1008 749 1026 q 760 968 764 990 q 740 924 757 946 q 728 928 731 917 q 715 982 735 956 q 646 1008 694 1008 q 516 963 585 1008 q 378 821 447 917 q 244 577 308 725 q 128 225 179 429 q 199 320 158 285 q 294 356 239 356 q 333 339 318 356 q 347 301 347 322 q 305 224 347 257 q 200 182 263 190 z "},"l":{"ha":186,"x_min":42,"x_max":671,"o":"m 614 1032 q 660 999 650 1032 q 651 928 671 965 q 644 928 649 925 q 639 935 640 931 q 627 963 642 951 q 582 974 613 974 q 464 924 522 974 q 351 794 406 874 q 251 615 297 714 q 170 419 204 517 q 117 234 136 321 q 97 93 97 147 q 121 51 97 51 q 153 65 138 51 q 190 107 169 79 q 198 106 194 110 q 200 97 201 103 q 139 27 172 54 q 82 0 106 0 q 53 15 64 0 q 42 54 42 29 q 56 155 42 93 q 94 293 69 217 q 155 453 119 369 q 232 619 190 538 q 320 776 274 701 q 416 908 367 851 q 515 999 465 965 q 614 1032 565 1032 z "},"m":{"ha":574,"x_min":33,"x_max":571,"o":"m 494 292 q 474 321 494 321 q 428 300 453 321 q 376 240 403 279 q 322 145 349 201 q 269 18 294 89 q 255 5 267 10 q 232 0 243 0 q 219 13 215 0 q 242 75 228 38 q 270 152 257 113 q 293 226 283 192 q 303 281 303 261 q 279 319 303 319 q 188 242 243 319 q 82 18 132 164 q 69 5 79 10 q 49 0 60 0 q 38 3 42 0 q 36 13 33 6 q 60 80 47 43 q 85 154 72 117 q 108 228 97 192 q 125 296 118 264 q 118 321 132 321 q 92 306 107 321 q 61 269 76 290 q 53 270 57 267 q 51 278 49 274 q 98 331 72 307 q 150 356 124 356 q 173 342 168 356 q 174 308 178 328 q 160 252 167 278 q 144 200 154 226 q 224 313 181 269 q 311 356 268 356 q 338 343 328 356 q 349 308 349 331 q 343 250 349 279 q 326 190 338 221 q 416 313 368 269 q 511 356 464 356 q 536 344 526 356 q 546 315 546 333 q 535 260 546 290 q 513 199 525 231 q 490 135 500 167 q 479 76 479 104 q 500 42 479 42 q 561 88 522 42 q 567 86 564 90 q 568 76 571 82 q 547 52 560 65 q 522 27 535 39 q 493 8 508 15 q 464 0 478 0 q 432 53 432 0 q 442 120 432 86 q 463 185 451 154 q 485 244 475 217 q 494 292 494 272 z "},"n":{"ha":404,"x_min":26,"x_max":404,"o":"m 392 89 q 400 89 396 92 q 403 81 404 86 q 351 24 379 49 q 297 0 322 0 q 254 56 254 0 q 271 160 254 103 q 317 276 288 218 q 322 296 322 286 q 308 311 322 311 q 195 240 257 311 q 81 18 133 169 q 65 5 78 10 q 42 0 53 0 q 31 13 26 0 q 80 147 54 72 q 125 296 106 222 q 115 322 131 322 q 88 308 101 322 q 58 272 74 294 q 52 274 56 269 q 50 282 49 278 q 92 331 65 306 q 149 356 118 356 q 172 308 183 356 q 157 244 167 278 q 136 176 147 210 q 182 247 156 214 q 237 304 208 281 q 294 342 265 328 q 347 356 322 356 q 373 347 364 356 q 382 328 382 339 q 374 292 382 310 q 324 181 344 239 q 304 75 304 124 q 326 40 304 40 q 392 89 356 40 z "},"ñ":{"ha":404,"x_min":26,"x_max":418,"o":"m 392 89 q 400 89 396 92 q 403 81 404 86 q 351 24 379 49 q 297 0 322 0 q 254 56 254 0 q 271 160 254 103 q 317 276 288 218 q 322 296 322 286 q 308 311 322 311 q 195 240 257 311 q 81 18 133 169 q 65 5 78 10 q 42 0 53 0 q 31 13 26 0 q 80 147 54 72 q 125 296 106 222 q 115 322 131 322 q 88 308 101 322 q 58 272 74 294 q 52 274 56 269 q 50 282 49 278 q 92 331 65 306 q 149 356 118 356 q 172 308 183 356 q 157 244 167 278 q 136 176 147 210 q 182 247 156 214 q 237 304 208 281 q 294 342 265 328 q 347 356 322 356 q 373 347 364 356 q 382 328 382 339 q 374 292 382 310 q 324 181 344 239 q 304 75 304 124 q 326 40 304 40 q 392 89 356 40 m 167 461 q 201 495 183 481 q 235 514 219 510 q 256 513 246 517 q 278 502 267 508 q 306 490 290 496 q 342 485 321 485 q 377 495 363 485 q 404 524 392 506 q 413 524 408 526 q 417 518 418 522 q 379 476 401 493 q 318 458 357 458 q 287 463 300 458 q 263 473 274 468 q 244 482 253 478 q 226 486 235 486 q 205 476 215 485 q 179 453 194 468 q 167 461 164 450 z "},"o":{"ha":313,"x_min":42,"x_max":299,"o":"m 225 356 q 281 331 263 356 q 299 265 299 306 q 281 171 299 218 q 235 85 263 124 q 174 24 207 47 q 114 0 142 0 q 61 26 81 0 q 42 101 42 53 q 57 185 42 140 q 98 267 72 229 q 156 331 124 306 q 225 356 189 356 m 142 43 q 183 58 163 43 q 218 97 203 72 q 242 153 233 121 q 251 219 251 185 q 238 285 251 261 q 192 310 224 310 q 151 295 171 310 q 117 256 132 281 q 94 199 103 232 q 86 131 86 167 q 142 43 86 43 z "},"ó":{"ha":313,"x_min":42,"x_max":357,"o":"m 225 356 q 281 331 263 356 q 299 265 299 306 q 281 171 299 218 q 235 85 263 124 q 174 24 207 47 q 114 0 142 0 q 61 26 81 0 q 42 101 42 53 q 57 185 42 140 q 98 267 72 229 q 156 331 124 306 q 225 356 189 356 m 142 43 q 183 58 163 43 q 218 97 203 72 q 242 153 233 121 q 251 219 251 185 q 238 285 251 261 q 192 310 224 310 q 151 295 171 310 q 117 256 132 281 q 94 199 103 232 q 86 131 86 167 q 142 43 86 43 m 290 529 q 316 528 297 533 q 347 517 335 522 q 349 503 357 511 q 317 485 336 494 q 276 466 297 475 q 234 449 256 457 q 194 436 213 442 q 189 441 189 436 q 194 451 189 446 q 242 484 213 463 q 290 529 271 506 z "},"ô":{"ha":313,"x_min":42,"x_max":375,"o":"m 225 356 q 281 331 263 356 q 299 265 299 306 q 281 171 299 218 q 235 85 263 124 q 174 24 207 47 q 114 0 142 0 q 61 26 81 0 q 42 101 42 53 q 57 185 42 140 q 98 267 72 229 q 156 331 124 306 q 225 356 189 356 m 142 43 q 183 58 163 43 q 218 97 203 72 q 242 153 233 121 q 251 219 251 185 q 238 285 251 261 q 192 310 224 310 q 151 295 171 310 q 117 256 132 281 q 94 199 103 232 q 86 131 86 167 q 142 43 86 43 m 258 546 q 275 544 267 553 q 316 504 290 525 q 368 472 342 483 q 361 458 375 465 q 331 454 347 451 q 289 474 306 464 q 250 501 272 485 q 210 476 233 490 q 165 451 188 463 q 157 464 150 451 q 209 498 181 478 q 258 546 238 518 z "},"ö":{"ha":313,"x_min":42,"x_max":338,"o":"m 225 356 q 281 331 263 356 q 299 265 299 306 q 281 171 299 218 q 235 85 263 124 q 174 24 207 47 q 114 0 142 0 q 61 26 81 0 q 42 101 42 53 q 57 185 42 140 q 98 267 72 229 q 156 331 124 306 q 225 356 189 356 m 142 43 q 183 58 163 43 q 218 97 203 72 q 242 153 233 121 q 251 219 251 185 q 238 285 251 261 q 192 310 224 310 q 151 295 171 310 q 117 256 132 281 q 94 199 103 232 q 86 131 86 167 q 142 43 86 43 m 169 443 q 151 469 151 443 q 167 506 151 485 q 207 526 183 526 q 221 507 221 526 q 205 465 221 486 q 169 443 189 443 m 288 443 q 269 469 269 443 q 285 506 269 485 q 324 526 300 526 q 338 507 338 526 q 322 465 338 486 q 288 443 307 443 z "},"œ":{"ha":479,"x_min":42,"x_max":479,"o":"m 479 293 q 463 257 479 274 q 422 226 447 240 q 362 201 396 213 q 290 181 328 190 q 288 151 288 167 q 288 118 288 136 q 303 59 288 82 q 346 36 318 36 q 398 50 374 36 q 442 88 422 64 q 450 85 447 90 q 450 75 453 81 q 391 20 426 43 q 317 -3 356 -3 q 258 20 281 -3 q 235 86 236 43 q 174 24 207 47 q 114 0 142 0 q 61 26 81 0 q 42 100 42 51 q 57 183 42 139 q 97 266 72 228 q 156 329 122 304 q 225 354 189 354 q 276 329 261 354 q 292 267 290 304 q 349 328 317 304 q 417 353 381 353 q 461 335 443 353 q 479 293 479 317 m 388 317 q 331 289 356 317 q 294 201 306 261 q 424 274 424 222 q 414 304 424 292 q 388 317 404 317 m 140 42 q 183 56 163 42 q 218 96 203 71 q 242 153 233 121 q 251 218 251 185 q 238 285 251 260 q 192 310 224 310 q 151 295 171 310 q 117 256 132 281 q 94 198 103 231 q 86 129 86 165 q 140 42 86 42 z "},"ò":{"ha":313,"x_min":42,"x_max":342,"o":"m 225 356 q 281 331 263 356 q 299 265 299 306 q 281 171 299 218 q 235 85 263 124 q 174 24 207 47 q 114 0 142 0 q 61 26 81 0 q 42 101 42 53 q 57 185 42 140 q 98 267 72 229 q 156 331 124 306 q 225 356 189 356 m 142 43 q 183 58 163 43 q 218 97 203 72 q 242 153 233 121 q 251 219 251 185 q 238 285 251 261 q 192 310 224 310 q 151 295 171 310 q 117 256 132 281 q 94 199 103 232 q 86 131 86 167 q 142 43 86 43 m 339 451 q 338 444 342 449 q 328 439 335 440 q 253 468 293 450 q 185 504 213 486 q 185 515 176 507 q 217 532 197 526 q 240 535 236 538 q 287 493 260 515 q 339 451 314 471 z "},"ø":{"ha":313,"x_min":11,"x_max":339,"o":"m 314 396 q 331 401 322 403 q 335 389 339 399 q 308 354 321 369 q 285 324 296 339 q 299 265 299 301 q 281 171 299 218 q 235 85 263 124 q 175 24 207 47 q 114 0 143 0 q 67 21 85 0 q 52 -1 60 10 q 36 -24 44 -12 q 19 -31 28 -33 q 14 -19 11 -28 q 35 11 25 -3 q 54 39 44 25 q 42 101 42 61 q 57 185 42 140 q 98 267 72 229 q 156 331 124 306 q 225 356 189 356 q 271 340 253 356 q 314 396 290 364 m 88 131 q 88 109 88 119 q 90 90 89 99 q 126 140 110 118 q 158 185 142 163 q 192 232 174 207 q 235 290 210 257 q 193 310 219 310 q 153 295 172 310 q 119 256 133 281 q 96 199 104 232 q 88 131 88 167 m 251 219 q 244 269 251 246 q 206 218 224 242 q 171 171 188 194 q 137 122 154 147 q 99 68 119 97 q 142 43 113 43 q 183 58 164 43 q 218 97 203 72 q 242 153 233 121 q 251 219 251 185 z "},"õ":{"ha":313,"x_min":42,"x_max":379,"o":"m 225 356 q 281 331 263 356 q 299 265 299 306 q 281 171 299 218 q 235 85 263 124 q 174 24 207 47 q 114 0 142 0 q 61 26 81 0 q 42 101 42 53 q 57 185 42 140 q 98 267 72 229 q 156 331 124 306 q 225 356 189 356 m 142 43 q 183 58 163 43 q 218 97 203 72 q 242 153 233 121 q 251 219 251 185 q 238 285 251 261 q 192 310 224 310 q 151 295 171 310 q 117 256 132 281 q 94 199 103 232 q 86 131 86 167 q 142 43 86 43 m 128 461 q 163 495 144 481 q 196 514 181 510 q 217 513 207 517 q 240 502 228 508 q 267 490 251 496 q 303 485 282 485 q 338 495 324 485 q 365 524 353 506 q 374 524 369 526 q 378 518 379 522 q 340 476 363 493 q 279 458 318 458 q 248 463 261 458 q 224 473 235 468 q 205 482 214 478 q 188 486 196 486 q 166 476 176 485 q 140 453 156 468 q 128 461 125 450 z "},"p":{"ha":363,"x_min":-47,"x_max":349,"o":"m 288 354 q 332 329 315 354 q 349 265 349 304 q 330 163 349 211 q 278 78 311 115 q 201 20 246 42 q 104 -1 157 -1 q 65 8 81 -1 q 22 -140 42 -61 q 3 -286 3 -218 q 35 -312 3 -317 q 76 -296 56 -308 q 81 -301 81 -294 q 79 -311 82 -307 q 33 -331 63 -321 q -22 -340 4 -340 q -40 -335 -33 -340 q -47 -318 -47 -331 q -25 -154 -47 -247 q 33 39 -3 -61 q 28 48 31 43 q 25 58 26 53 q 46 71 24 64 q 85 171 64 121 q 126 268 106 221 q 151 340 153 326 q 133 344 149 353 q 111 329 124 339 q 88 307 99 319 q 81 309 85 304 q 79 317 78 314 q 101 339 88 326 q 130 363 115 351 q 159 383 144 375 q 185 392 174 392 q 199 380 196 392 q 194 349 203 368 q 173 294 186 325 q 144 232 160 263 q 221 322 183 290 q 288 354 258 354 m 139 26 q 203 42 174 26 q 255 84 233 57 q 288 148 276 111 q 300 229 300 185 q 288 284 300 263 q 251 306 276 306 q 175 249 219 306 q 93 88 131 192 q 88 74 90 81 q 83 60 86 67 q 103 35 90 44 q 139 26 117 26 z "},"¶":{"ha":544,"x_min":-129,"x_max":594,"o":"m 588 444 q 592 431 594 442 q 578 418 589 421 q 553 417 565 418 q 529 415 540 417 q 494 287 513 354 q 455 153 475 219 q 414 27 435 88 q 372 -81 393 -33 q 217 -274 315 -211 q -3 -337 118 -337 q -96 -307 -62 -337 q -129 -232 -129 -276 q -112 -168 -129 -197 q -64 -124 -96 -139 q -55 -131 -57 -124 q -57 -142 -53 -137 q -74 -163 -68 -150 q -79 -199 -79 -176 q -53 -278 -79 -247 q 31 -308 -28 -308 q 120 -265 74 -308 q 207 -117 167 -222 q 228 -55 218 -86 q 250 8 239 -24 q 163 60 197 22 q 129 154 129 99 q 161 272 129 218 q 253 363 193 325 q 397 423 313 401 q 588 444 482 444 m 319 -94 q 360 11 339 -49 q 401 138 381 71 q 442 274 422 204 q 478 411 461 344 q 397 396 436 407 q 362 263 381 333 q 324 122 343 192 q 284 -10 304 53 q 244 -119 264 -72 q 185 -228 217 -183 q 108 -299 154 -272 q 225 -235 171 -283 q 319 -94 279 -187 z "},"(":{"ha":347,"x_min":129,"x_max":461,"o":"m 438 885 q 454 888 447 890 q 454 872 461 885 q 394 803 426 846 q 336 718 361 761 q 270 578 300 657 q 219 413 240 499 q 187 239 199 326 q 175 72 175 151 q 176 23 175 50 q 181 -31 178 -4 q 190 -84 185 -58 q 203 -129 196 -110 q 196 -144 204 -140 q 181 -139 188 -147 q 149 -33 161 -94 q 133 98 136 28 q 135 246 129 168 q 161 401 142 324 q 272 683 199 560 q 438 885 344 807 z "},")":{"ha":383,"x_min":38,"x_max":369,"o":"m 60 -142 q 44 -144 51 -147 q 44 -129 38 -142 q 104 -60 72 -101 q 163 26 136 -18 q 228 166 199 88 q 279 331 258 244 q 312 504 300 417 q 324 671 324 592 q 322 720 324 693 q 317 774 321 747 q 308 827 314 801 q 296 872 303 853 q 303 888 294 885 q 318 882 311 890 q 350 776 338 838 q 366 645 363 715 q 363 497 369 575 q 338 342 356 419 q 227 60 300 183 q 60 -142 154 -64 z "},".":{"ha":156,"x_min":42,"x_max":121,"o":"m 58 0 q 42 31 42 0 q 47 49 42 39 q 63 68 53 58 q 83 84 72 78 q 107 90 94 90 q 121 69 121 90 q 115 47 121 58 q 99 24 108 35 q 79 7 90 14 q 58 0 68 0 z "},"q":{"ha":374,"x_min":35,"x_max":401,"o":"m 243 -301 q 247 -307 247 -300 q 243 -317 246 -314 q 188 -333 218 -326 q 142 -339 158 -339 q 117 -286 111 -339 q 135 -193 122 -249 q 167 -77 149 -137 q 208 41 186 -17 q 253 140 229 99 q 213 93 235 117 q 169 50 192 69 q 126 17 147 31 q 89 0 106 4 q 49 20 64 0 q 35 85 35 40 q 56 185 35 136 q 112 271 76 233 q 194 331 147 308 q 296 354 242 354 q 361 329 333 354 q 389 343 376 342 q 400 338 401 344 q 317 194 354 272 q 250 36 279 117 q 202 -122 221 -44 q 176 -262 183 -199 q 179 -298 174 -286 q 201 -310 185 -310 q 243 -301 219 -310 m 119 47 q 156 64 133 47 q 201 104 178 81 q 245 153 225 128 q 275 196 265 178 q 303 249 293 231 q 328 292 314 268 q 313 319 326 307 q 275 332 299 332 q 201 313 235 332 q 141 263 167 294 q 101 188 115 231 q 86 96 86 144 q 119 47 86 47 z "},"?":{"ha":396,"x_min":76,"x_max":535,"o":"m 94 0 q 76 29 76 0 q 83 48 76 38 q 98 68 89 58 q 119 84 107 78 q 143 90 131 90 q 153 84 150 90 q 157 69 157 78 q 151 47 157 58 q 135 24 144 35 q 115 7 125 14 q 94 0 104 0 m 408 721 q 501 683 468 721 q 535 596 535 646 q 515 498 535 538 q 463 430 494 458 q 394 381 432 401 q 322 343 357 361 q 257 305 286 325 q 214 257 228 285 q 208 217 203 236 q 243 194 214 197 q 249 188 253 194 q 234 175 244 182 q 210 163 224 168 q 186 161 196 158 q 165 175 174 164 q 156 202 157 186 q 161 237 154 218 q 186 274 168 256 q 274 342 224 314 q 372 399 325 369 q 450 465 418 428 q 482 560 482 501 q 453 641 482 610 q 371 672 424 672 q 288 644 319 672 q 244 575 256 615 q 231 575 239 568 q 224 589 222 582 q 252 639 233 615 q 295 681 271 663 q 349 710 319 699 q 408 721 378 721 z "},"¿":{"ha":396,"x_min":-69,"x_max":389,"o":"m 371 354 q 389 325 389 354 q 383 306 389 317 q 367 286 376 296 q 347 270 358 276 q 322 264 335 264 q 312 270 315 264 q 308 285 308 276 q 315 307 308 294 q 330 330 321 319 q 350 347 339 340 q 371 354 361 354 m 57 -367 q -36 -329 -3 -367 q -69 -242 -69 -292 q -49 -144 -69 -183 q 2 -76 -29 -104 q 71 -27 33 -47 q 144 11 108 -7 q 208 49 179 29 q 251 97 238 69 q 257 138 263 118 q 222 160 251 157 q 217 166 213 160 q 231 179 221 172 q 256 190 242 186 q 279 193 269 194 q 300 179 292 190 q 310 152 308 168 q 304 117 311 136 q 279 81 297 99 q 191 13 242 40 q 94 -44 140 -15 q 15 -110 47 -74 q -17 -206 -17 -147 q 13 -287 -17 -256 q 94 -318 42 -318 q 178 -290 146 -318 q 221 -221 210 -261 q 235 -221 226 -214 q 242 -235 243 -228 q 213 -285 232 -261 q 170 -326 194 -308 q 117 -356 146 -344 q 57 -367 88 -367 z "},"“":{"ha":232,"x_min":76,"x_max":310,"o":"m 204 361 q 192 378 197 364 q 188 410 188 393 q 220 499 188 453 q 301 575 253 546 q 308 570 307 575 q 306 560 310 565 q 256 511 275 540 q 236 450 236 482 q 250 413 236 421 q 249 400 254 408 q 236 383 244 392 q 219 368 228 375 q 204 361 210 361 m 93 361 q 81 378 86 364 q 76 410 76 393 q 109 499 76 453 q 190 575 142 546 q 197 570 196 575 q 194 560 199 565 q 144 511 164 540 q 125 450 125 482 q 139 413 125 421 q 138 400 143 408 q 125 383 133 392 q 108 368 117 375 q 93 361 99 361 z "},"”":{"ha":232,"x_min":68,"x_max":301,"o":"m 174 575 q 185 558 181 572 q 190 526 190 543 q 158 437 190 483 q 76 361 125 390 q 69 366 71 361 q 72 376 68 371 q 122 425 103 396 q 142 486 142 454 q 128 524 142 515 q 128 536 124 528 q 142 553 133 544 q 159 568 150 561 q 174 575 168 575 m 285 575 q 297 558 292 572 q 301 526 301 543 q 269 437 301 483 q 188 361 236 390 q 181 366 182 361 q 183 376 179 371 q 233 425 214 396 q 253 486 253 454 q 239 524 253 515 q 240 536 235 528 q 253 553 244 544 q 270 568 261 561 q 285 575 279 575 z "},"‘":{"ha":121,"x_min":76,"x_max":199,"o":"m 93 361 q 81 378 86 364 q 76 410 76 393 q 109 499 76 453 q 190 575 142 546 q 197 570 196 575 q 194 560 199 565 q 144 511 164 540 q 125 450 125 482 q 139 413 125 421 q 138 400 143 408 q 125 383 133 392 q 108 368 117 375 q 93 361 99 361 z "},"’":{"ha":121,"x_min":68,"x_max":190,"o":"m 174 575 q 185 558 181 572 q 190 526 190 543 q 158 437 190 483 q 76 361 125 390 q 69 366 71 361 q 72 376 68 371 q 122 425 103 396 q 142 486 142 454 q 128 524 142 515 q 128 536 124 528 q 142 553 133 544 q 159 568 150 561 q 174 575 168 575 z "},"r":{"ha":271,"x_min":39,"x_max":326,"o":"m 168 317 q 164 268 168 296 q 153 213 160 240 q 214 317 181 279 q 286 356 247 356 q 314 347 301 356 q 326 324 326 339 q 318 295 326 313 q 301 269 310 278 q 293 274 293 264 q 261 297 293 297 q 174 224 213 297 q 100 22 135 151 q 81 4 97 8 q 54 0 65 0 q 47 15 39 0 q 71 78 60 44 q 92 147 82 113 q 110 215 103 182 q 121 276 117 249 q 107 318 126 318 q 81 306 96 318 q 54 276 67 293 q 44 277 49 274 q 43 286 40 281 q 90 334 64 313 q 138 356 115 356 q 168 317 168 356 z "},"˚":{"ha":163,"x_min":28,"x_max":135,"o":"m 83 521 q 58 510 67 521 q 49 479 49 499 q 56 455 49 464 q 79 446 64 446 q 104 458 94 446 q 114 488 114 469 q 83 521 114 521 m 65 431 q 38 442 47 431 q 28 469 28 453 q 47 517 28 497 q 97 538 67 538 q 126 526 117 538 q 135 497 135 514 q 115 451 135 471 q 65 431 96 431 z "},"s":{"ha":261,"x_min":-7,"x_max":258,"o":"m 193 356 q 240 347 221 356 q 258 326 258 338 q 252 292 258 311 q 239 260 246 272 q 231 259 236 257 q 228 265 226 261 q 233 288 232 275 q 232 310 235 300 q 193 338 225 338 q 155 324 169 338 q 140 282 140 310 q 152 240 140 260 q 178 199 164 219 q 205 156 193 179 q 217 106 217 133 q 185 31 217 61 q 92 0 154 0 q 21 15 49 0 q -7 47 -7 31 q 8 85 -7 60 q 43 125 24 110 q 51 124 47 128 q 51 115 54 119 q 35 90 40 104 q 32 64 29 75 q 53 28 36 40 q 94 17 71 17 q 151 36 131 17 q 171 86 171 56 q 158 135 171 113 q 131 180 146 158 q 105 223 117 201 q 93 269 93 244 q 120 331 93 306 q 193 356 147 356 z "},"š":{"ha":261,"x_min":-7,"x_max":336,"o":"m 193 356 q 240 347 221 356 q 258 326 258 338 q 252 292 258 311 q 239 260 246 272 q 231 259 236 257 q 228 265 226 261 q 233 288 232 275 q 232 310 235 300 q 193 338 225 338 q 155 324 169 338 q 140 282 140 310 q 152 240 140 260 q 178 199 164 219 q 205 156 193 179 q 217 106 217 133 q 185 31 217 61 q 92 0 154 0 q 21 15 49 0 q -7 47 -7 31 q 8 85 -7 60 q 43 125 24 110 q 51 124 47 128 q 51 115 54 119 q 35 90 40 104 q 32 64 29 75 q 53 28 36 40 q 94 17 71 17 q 151 36 131 17 q 171 86 171 56 q 158 135 171 113 q 131 180 146 158 q 105 223 117 201 q 93 269 93 244 q 120 331 93 306 q 193 356 147 356 m 228 456 q 211 457 219 449 q 170 497 196 476 q 118 529 144 518 q 125 543 111 536 q 156 547 139 550 q 197 527 181 538 q 236 500 214 517 q 276 525 253 511 q 321 550 299 539 q 329 538 336 550 q 277 503 306 524 q 228 456 249 483 z "},"§":{"ha":549,"x_min":-71,"x_max":660,"o":"m 535 718 q 626 685 593 718 q 660 610 660 651 q 643 554 660 585 q 608 500 626 524 q 600 500 604 496 q 597 511 596 504 q 610 541 604 522 q 617 579 617 560 q 587 649 617 619 q 499 678 557 678 q 389 640 428 678 q 350 532 350 603 q 364 394 350 458 q 395 266 378 329 q 426 135 413 203 q 440 -12 440 67 q 417 -143 440 -83 q 351 -246 394 -203 q 246 -313 308 -289 q 104 -337 183 -337 q 32 -326 64 -337 q -23 -297 0 -315 q -58 -253 -46 -278 q -71 -201 -71 -228 q -51 -131 -71 -169 q 8 -57 -31 -93 q 17 -59 14 -54 q 18 -71 21 -64 q -10 -113 -1 -92 q -18 -162 -18 -135 q -6 -215 -18 -190 q 26 -257 6 -239 q 76 -286 47 -275 q 142 -297 106 -297 q 252 -256 215 -297 q 289 -143 289 -215 q 275 -3 289 -67 q 244 124 261 61 q 213 251 226 186 q 199 393 199 315 q 222 524 199 464 q 288 626 244 583 q 393 694 331 669 q 535 718 456 718 m 308 486 q 330 590 308 542 q 392 671 351 639 q 291 594 333 654 q 249 444 249 535 q 262 294 249 363 q 291 161 275 225 q 320 35 307 97 q 333 -96 333 -26 q 309 -212 333 -164 q 247 -289 285 -260 q 349 -206 307 -269 q 390 -51 390 -143 q 378 98 390 28 q 349 233 365 168 q 321 359 333 297 q 308 486 308 421 z "},";":{"ha":217,"x_min":-10,"x_max":193,"o":"m 132 265 q 114 296 114 265 q 119 314 114 304 q 135 333 125 324 q 156 349 144 343 q 179 356 167 356 q 193 336 193 356 q 187 313 193 325 q 172 290 181 301 q 152 272 163 279 q 132 265 142 265 m 96 94 q 108 77 103 92 q 113 46 113 63 q 80 -44 113 3 q -1 -119 47 -90 q -8 -115 -7 -119 q -6 -104 -10 -110 q 44 -56 25 -85 q 64 6 64 -26 q 50 43 64 35 q 51 56 46 47 q 64 72 56 64 q 81 88 72 81 q 96 94 90 94 z "},"/":{"ha":292,"x_min":-36,"x_max":529,"o":"m 526 868 q 451 742 494 817 q 357 583 407 668 q 255 406 307 497 q 155 231 203 315 q 66 72 107 146 q -1 -51 25 -1 q -24 -60 -11 -62 q -33 -46 -36 -58 q 39 81 -3 8 q 127 235 81 153 q 224 404 174 317 q 323 576 274 492 q 417 738 372 661 q 499 875 463 814 q 518 881 507 882 q 526 868 529 879 z "},"Ä":{"ha":1383,"x_min":63,"x_max":1453,"o":"m 1301 926 q 1286 950 1286 926 q 1300 983 1286 964 q 1336 1001 1314 1001 q 1349 983 1349 1001 q 1335 945 1349 964 q 1301 926 1321 926 m 1408 926 q 1392 950 1392 926 q 1406 983 1392 964 q 1440 1001 1419 1001 q 1453 983 1453 1001 q 1439 945 1453 964 q 1408 926 1425 926 m 1394 813 q 1397 805 1397 810 q 1390 792 1397 800 q 1308 677 1344 742 q 1247 536 1272 613 q 1207 375 1221 460 q 1193 201 1193 290 q 1210 98 1193 135 q 1267 61 1226 61 q 1372 139 1321 61 q 1381 139 1376 142 q 1382 131 1385 136 q 1349 84 1368 107 q 1310 42 1331 61 q 1269 12 1289 24 q 1232 0 1249 0 q 1162 47 1186 0 q 1138 165 1138 93 q 1163 392 1138 276 q 1034 390 1097 392 q 910 386 971 389 q 822 294 864 338 q 739 215 779 251 q 510 57 628 114 q 253 0 393 0 q 138 34 182 0 q 78 119 94 68 q 76 233 63 171 q 135 349 89 294 q 144 348 139 351 q 149 335 150 344 q 109 251 115 299 q 124 161 103 204 q 194 89 144 118 q 325 60 244 60 q 538 110 431 60 q 742 250 646 160 q 805 312 772 278 q 874 385 838 346 q 701 368 778 378 q 699 375 694 369 q 712 387 703 381 q 733 398 721 393 q 756 404 744 403 q 810 406 772 406 q 897 408 849 407 q 1074 588 976 492 q 1301 785 1172 683 q 1109 835 1208 815 q 918 856 1010 856 q 745 795 814 856 q 660 611 676 735 q 652 606 657 604 q 646 614 647 607 q 747 822 663 750 q 967 894 832 894 q 1082 887 1024 894 q 1196 867 1140 879 q 1302 841 1251 856 q 1394 813 1353 826 m 1167 410 q 1232 608 1190 511 q 1332 783 1274 704 q 1113 590 1210 685 q 932 408 1015 494 q 1064 410 999 410 q 1167 410 1129 410 z "},"t":{"ha":238,"x_min":54,"x_max":293,"o":"m 286 350 q 292 342 293 347 q 279 335 290 336 q 230 332 257 333 q 175 328 203 331 q 129 194 147 258 q 111 89 111 131 q 147 42 111 42 q 226 106 183 42 q 235 105 231 108 q 238 94 239 101 q 209 58 225 75 q 176 28 193 40 q 144 8 160 15 q 119 0 129 0 q 74 19 89 0 q 60 64 60 38 q 79 179 60 110 q 128 322 99 249 q 93 317 110 319 q 61 311 76 314 q 58 318 54 313 q 70 329 61 324 q 92 340 79 335 q 115 344 104 344 q 127 346 122 346 q 138 346 132 346 q 176 428 157 389 q 215 501 196 468 q 234 516 224 510 q 254 524 244 522 q 269 526 264 526 q 274 521 275 525 q 227 440 250 485 q 183 349 204 396 q 233 349 208 349 q 286 350 258 350 z "},"˜":{"ha":308,"x_min":26,"x_max":281,"o":"m 29 461 q 64 495 46 481 q 97 514 82 510 q 119 513 108 517 q 141 502 129 508 q 168 490 153 496 q 204 485 183 485 q 240 495 225 485 q 267 524 254 506 q 276 524 271 526 q 279 518 281 522 q 242 476 264 493 q 181 458 219 458 q 149 463 163 458 q 126 473 136 468 q 106 482 115 478 q 89 486 97 486 q 67 476 78 485 q 42 453 57 468 q 29 461 26 450 z "},"u":{"ha":415,"x_min":44,"x_max":406,"o":"m 90 0 q 58 17 72 0 q 44 63 44 35 q 51 115 44 85 q 67 178 57 144 q 93 244 78 211 q 128 307 108 278 q 96 283 113 296 q 68 258 79 269 q 61 260 64 256 q 60 269 58 265 q 85 292 69 279 q 117 317 100 304 q 153 341 135 329 q 189 361 172 353 q 198 358 194 363 q 200 349 201 354 q 128 223 156 292 q 101 92 101 154 q 125 51 101 51 q 170 76 143 51 q 226 140 197 100 q 285 229 256 179 q 340 331 315 279 q 356 348 344 340 q 382 356 368 356 q 394 344 400 356 q 360 277 375 308 q 335 215 344 246 q 320 153 325 185 q 315 83 315 121 q 340 39 315 39 q 365 51 351 39 q 393 82 379 63 q 401 82 397 85 q 403 72 406 79 q 358 22 383 43 q 308 0 332 0 q 278 18 290 0 q 265 67 265 36 q 272 138 265 100 q 292 215 278 176 q 236 124 265 164 q 180 57 207 85 q 129 15 153 29 q 90 0 106 0 z "},"ú":{"ha":415,"x_min":44,"x_max":421,"o":"m 90 0 q 58 17 72 0 q 44 63 44 35 q 51 115 44 85 q 67 178 57 144 q 93 244 78 211 q 128 307 108 278 q 96 283 113 296 q 68 258 79 269 q 61 260 64 256 q 60 269 58 265 q 85 292 69 279 q 117 317 100 304 q 153 341 135 329 q 189 361 172 353 q 198 358 194 363 q 200 349 201 354 q 128 223 156 292 q 101 92 101 154 q 125 51 101 51 q 170 76 143 51 q 226 140 197 100 q 285 229 256 179 q 340 331 315 279 q 356 348 344 340 q 382 356 368 356 q 394 344 400 356 q 360 277 375 308 q 335 215 344 246 q 320 153 325 185 q 315 83 315 121 q 340 39 315 39 q 365 51 351 39 q 393 82 379 63 q 401 82 397 85 q 403 72 406 79 q 358 22 383 43 q 308 0 332 0 q 278 18 290 0 q 265 67 265 36 q 272 138 265 100 q 292 215 278 176 q 236 124 265 164 q 180 57 207 85 q 129 15 153 29 q 90 0 106 0 m 354 529 q 380 528 361 533 q 411 517 399 522 q 413 503 421 511 q 381 485 400 494 q 340 466 361 475 q 298 449 319 457 q 258 436 276 442 q 253 441 253 436 q 258 451 253 446 q 306 484 276 463 q 354 529 335 506 z "},"û":{"ha":415,"x_min":44,"x_max":418,"o":"m 90 0 q 58 17 72 0 q 44 63 44 35 q 51 115 44 85 q 67 178 57 144 q 93 244 78 211 q 128 307 108 278 q 96 283 113 296 q 68 258 79 269 q 61 260 64 256 q 60 269 58 265 q 85 292 69 279 q 117 317 100 304 q 153 341 135 329 q 189 361 172 353 q 198 358 194 363 q 200 349 201 354 q 128 223 156 292 q 101 92 101 154 q 125 51 101 51 q 170 76 143 51 q 226 140 197 100 q 285 229 256 179 q 340 331 315 279 q 356 348 344 340 q 382 356 368 356 q 394 344 400 356 q 360 277 375 308 q 335 215 344 246 q 320 153 325 185 q 315 83 315 121 q 340 39 315 39 q 365 51 351 39 q 393 82 379 63 q 401 82 397 85 q 403 72 406 79 q 358 22 383 43 q 308 0 332 0 q 278 18 290 0 q 265 67 265 36 q 272 138 265 100 q 292 215 278 176 q 236 124 265 164 q 180 57 207 85 q 129 15 153 29 q 90 0 106 0 m 301 546 q 318 544 310 553 q 359 504 333 525 q 411 472 385 483 q 404 458 418 465 q 374 454 390 451 q 332 474 349 464 q 293 501 315 485 q 253 476 276 490 q 208 451 231 463 q 200 464 193 451 q 252 498 224 478 q 301 546 281 518 z "},"ü":{"ha":415,"x_min":44,"x_max":406,"o":"m 90 0 q 58 17 72 0 q 44 63 44 35 q 51 115 44 85 q 67 178 57 144 q 93 244 78 211 q 128 307 108 278 q 96 283 113 296 q 68 258 79 269 q 61 260 64 256 q 60 269 58 265 q 85 292 69 279 q 117 317 100 304 q 153 341 135 329 q 189 361 172 353 q 198 358 194 363 q 200 349 201 354 q 128 223 156 292 q 101 92 101 154 q 125 51 101 51 q 170 76 143 51 q 226 140 197 100 q 285 229 256 179 q 340 331 315 279 q 356 348 344 340 q 382 356 368 356 q 394 344 400 356 q 360 277 375 308 q 335 215 344 246 q 320 153 325 185 q 315 83 315 121 q 340 39 315 39 q 365 51 351 39 q 393 82 379 63 q 401 82 397 85 q 403 72 406 79 q 358 22 383 43 q 308 0 332 0 q 278 18 290 0 q 265 67 265 36 q 272 138 265 100 q 292 215 278 176 q 236 124 265 164 q 180 57 207 85 q 129 15 153 29 q 90 0 106 0 m 228 443 q 210 469 210 443 q 226 506 210 485 q 265 526 242 526 q 279 507 279 526 q 263 465 279 486 q 228 443 247 443 m 346 443 q 328 469 328 443 q 343 506 328 485 q 382 526 358 526 q 396 507 396 526 q 381 465 396 486 q 346 443 365 443 z "},"ù":{"ha":415,"x_min":44,"x_max":406,"o":"m 90 0 q 58 17 72 0 q 44 63 44 35 q 51 115 44 85 q 67 178 57 144 q 93 244 78 211 q 128 307 108 278 q 96 283 113 296 q 68 258 79 269 q 61 260 64 256 q 60 269 58 265 q 85 292 69 279 q 117 317 100 304 q 153 341 135 329 q 189 361 172 353 q 198 358 194 363 q 200 349 201 354 q 128 223 156 292 q 101 92 101 154 q 125 51 101 51 q 170 76 143 51 q 226 140 197 100 q 285 229 256 179 q 340 331 315 279 q 356 348 344 340 q 382 356 368 356 q 394 344 400 356 q 360 277 375 308 q 335 215 344 246 q 320 153 325 185 q 315 83 315 121 q 340 39 315 39 q 365 51 351 39 q 393 82 379 63 q 401 82 397 85 q 403 72 406 79 q 358 22 383 43 q 308 0 332 0 q 278 18 290 0 q 265 67 265 36 q 272 138 265 100 q 292 215 278 176 q 236 124 265 164 q 180 57 207 85 q 129 15 153 29 q 90 0 106 0 m 389 451 q 388 444 392 449 q 378 439 385 440 q 303 468 343 450 q 235 504 263 486 q 235 515 226 507 q 267 532 247 526 q 290 535 286 538 q 337 493 310 515 q 389 451 364 471 z "},"_":{"ha":494,"x_min":-22,"x_max":439,"o":"m 39 -40 q 113 -37 63 -39 q 223 -35 164 -36 q 339 -35 282 -35 q 432 -35 396 -35 q 438 -46 439 -37 q 425 -56 436 -54 q 335 -56 389 -56 q 222 -59 282 -57 q 99 -65 161 -61 q -15 -75 36 -69 q -19 -68 -22 -74 q -6 -57 -15 -62 q 15 -47 3 -51 q 39 -40 28 -42 z "},"v":{"ha":376,"x_min":40,"x_max":369,"o":"m 142 19 q 103 6 122 11 q 68 0 83 0 q 60 18 51 0 q 100 145 83 76 q 122 268 117 214 q 107 317 126 317 q 56 285 88 317 q 44 286 49 282 q 44 296 40 290 q 101 342 76 328 q 146 356 125 356 q 169 343 163 356 q 175 311 175 331 q 169 249 175 285 q 155 173 164 213 q 135 95 146 133 q 114 26 124 57 q 192 63 153 36 q 261 124 231 89 q 310 199 292 158 q 329 282 329 240 q 306 318 329 318 q 271 296 286 318 q 264 297 267 293 q 263 306 261 301 q 294 340 274 324 q 333 356 314 356 q 359 342 349 356 q 369 300 369 328 q 352 219 369 260 q 304 142 335 179 q 232 72 274 104 q 142 19 190 40 z "},"w":{"ha":513,"x_min":28,"x_max":494,"o":"m 449 354 q 481 331 468 354 q 494 264 494 308 q 474 163 494 211 q 424 79 454 115 q 357 22 393 43 q 290 0 321 0 q 251 19 265 0 q 236 78 236 39 q 238 114 236 94 q 242 153 239 133 q 248 192 244 174 q 256 224 251 210 q 196 138 226 188 q 135 36 165 88 q 116 7 124 14 q 97 0 108 0 q 89 15 86 0 q 105 98 99 49 q 111 194 111 147 q 105 275 111 240 q 82 317 99 310 q 60 313 74 319 q 40 290 47 306 q 33 291 38 288 q 29 300 28 294 q 40 316 32 307 q 60 333 49 325 q 83 348 71 342 q 107 354 96 354 q 146 320 133 354 q 158 206 158 286 q 155 140 158 169 q 147 89 151 111 q 200 172 175 136 q 247 236 225 207 q 262 262 256 247 q 275 303 268 276 q 285 315 276 308 q 301 325 293 321 q 316 331 310 329 q 322 328 322 332 q 290 222 301 282 q 278 110 278 161 q 325 43 278 43 q 374 58 349 43 q 419 99 399 74 q 452 159 439 125 q 465 231 465 193 q 444 300 465 285 q 399 296 422 315 q 390 306 388 293 q 401 321 394 313 q 417 337 408 329 q 435 349 426 344 q 449 354 443 354 z "},"x":{"ha":365,"x_min":-10,"x_max":381,"o":"m 347 89 q 356 89 351 92 q 358 81 360 86 q 338 51 350 65 q 311 25 325 36 q 283 6 297 14 q 258 -1 269 -1 q 206 33 233 -1 q 158 128 178 68 q 85 32 122 65 q 13 -1 49 -1 q -10 28 -10 -1 q -4 65 -10 44 q 14 110 1 86 q 20 110 17 113 q 24 101 24 107 q 19 60 13 76 q 42 44 26 44 q 92 69 65 44 q 151 150 119 93 q 139 215 142 185 q 134 267 136 246 q 130 301 132 289 q 121 314 128 314 q 100 298 111 314 q 82 264 89 282 q 74 263 79 261 q 71 268 69 264 q 83 295 74 281 q 103 323 92 310 q 128 345 115 336 q 153 354 142 354 q 167 342 163 354 q 174 309 172 329 q 178 263 176 289 q 183 210 179 238 q 259 313 217 272 q 340 354 301 354 q 370 344 360 354 q 381 318 381 333 q 373 287 381 306 q 357 253 365 268 q 349 252 353 250 q 346 258 346 254 q 354 299 360 282 q 326 315 349 315 q 258 283 290 315 q 189 185 225 251 q 231 78 206 118 q 283 38 257 38 q 317 53 301 38 q 347 89 333 68 z "},"ý":{"ha":389,"x_min":-246,"x_max":429,"o":"m 363 529 q 388 528 369 533 q 419 517 407 522 q 421 503 429 511 q 389 485 408 494 q 349 466 369 475 q 306 449 328 457 q 267 436 285 442 q 261 441 261 436 q 267 451 261 446 q 314 484 285 463 q 363 529 343 506 m 338 322 q 344 331 339 326 q 358 342 350 336 q 373 351 365 347 q 385 354 381 354 q 394 344 397 354 q 335 177 364 258 q 272 8 306 96 q 192 -155 235 -89 q 103 -262 150 -221 q 7 -321 57 -303 q -96 -339 -43 -339 q -208 -302 -169 -339 q -246 -211 -246 -265 q -233 -158 -246 -186 q -192 -110 -219 -131 q -184 -112 -187 -107 q -183 -121 -181 -118 q -206 -181 -206 -147 q -172 -275 -206 -239 q -71 -311 -139 -311 q 19 -296 -22 -311 q 97 -242 60 -281 q 167 -137 133 -203 q 238 26 201 -72 q 267 111 253 72 q 297 192 282 150 q 187 56 244 108 q 85 -1 129 3 q 58 15 67 -1 q 50 61 50 32 q 56 116 50 86 q 72 178 61 146 q 98 242 82 210 q 133 306 114 275 q 101 281 118 294 q 74 257 85 268 q 66 259 69 254 q 65 268 63 264 q 118 313 85 288 q 183 354 151 338 q 194 342 197 354 q 156 280 174 314 q 126 212 139 246 q 107 144 114 178 q 100 85 100 111 q 126 46 100 46 q 180 76 149 46 q 242 148 211 106 q 299 238 274 190 q 338 322 325 286 z "},"ÿ":{"ha":389,"x_min":-246,"x_max":397,"o":"m 225 443 q 207 469 207 443 q 223 506 207 485 q 263 526 239 526 q 276 507 276 526 q 260 465 276 486 q 225 443 244 443 m 343 443 q 325 469 325 443 q 340 506 325 485 q 379 526 356 526 q 393 507 393 526 q 378 465 393 486 q 343 443 363 443 m 338 322 q 344 331 339 326 q 358 342 350 336 q 373 351 365 347 q 385 354 381 354 q 394 344 397 354 q 335 177 364 258 q 272 8 306 96 q 192 -155 235 -89 q 103 -262 150 -221 q 7 -321 57 -303 q -96 -339 -43 -339 q -208 -302 -169 -339 q -246 -211 -246 -265 q -233 -158 -246 -186 q -192 -110 -219 -131 q -184 -112 -187 -107 q -183 -121 -181 -118 q -206 -181 -206 -147 q -172 -275 -206 -239 q -71 -311 -139 -311 q 19 -296 -22 -311 q 97 -242 60 -281 q 167 -137 133 -203 q 238 26 201 -72 q 267 111 253 72 q 297 192 282 150 q 187 56 244 108 q 85 -1 129 3 q 58 15 67 -1 q 50 61 50 32 q 56 116 50 86 q 72 178 61 146 q 98 242 82 210 q 133 306 114 275 q 101 281 118 294 q 74 257 85 268 q 66 259 69 254 q 65 268 63 264 q 118 313 85 288 q 183 354 151 338 q 194 342 197 354 q 156 280 174 314 q 126 212 139 246 q 107 144 114 178 q 100 85 100 111 q 126 46 100 46 q 180 76 149 46 q 242 148 211 106 q 299 238 274 190 q 338 322 325 286 z "},"z":{"ha":331,"x_min":-15,"x_max":349,"o":"m 67 68 q 133 49 99 57 q 201 42 167 42 q 260 62 238 42 q 299 122 283 82 q 308 122 303 125 q 311 114 314 119 q 260 30 292 61 q 186 -1 229 -1 q 128 5 157 -1 q 67 22 99 11 q 35 24 50 29 q 0 -1 21 18 q -11 6 -7 -1 q -11 19 -15 13 q 56 86 19 50 q 131 160 93 122 q 203 232 168 197 q 268 296 239 267 q 200 307 238 303 q 136 311 163 311 q 81 267 96 311 q 72 265 78 263 q 67 272 67 268 q 101 328 78 303 q 161 354 125 354 q 222 348 193 354 q 271 336 251 342 q 297 337 286 333 q 319 350 308 340 q 332 354 324 354 q 346 343 349 354 q 199 201 271 271 q 67 68 128 131 z "},"ž":{"ha":344,"x_min":-17,"x_max":378,"o":"m 65 68 q 131 49 97 57 q 200 42 165 42 q 259 62 236 42 q 297 122 282 82 q 307 122 301 125 q 310 114 313 119 q 259 30 290 61 q 185 -1 228 -1 q 126 5 156 -1 q 65 22 97 11 q 34 24 49 29 q -1 -1 19 18 q -12 6 -8 -1 q -12 19 -17 13 q 55 86 18 50 q 129 160 92 122 q 202 232 167 197 q 267 296 238 267 q 199 307 236 303 q 135 311 161 311 q 79 267 94 311 q 71 265 76 263 q 65 272 65 268 q 100 328 76 303 q 160 354 124 354 q 221 348 192 354 q 269 336 250 342 q 296 337 285 333 q 318 350 307 340 q 331 354 322 354 q 344 343 347 354 q 198 201 269 271 q 65 68 126 131 m 269 456 q 253 457 261 449 q 212 497 238 476 q 160 529 186 518 q 167 543 153 536 q 197 547 181 550 q 239 527 222 538 q 278 500 256 517 q 317 525 294 511 q 363 550 340 539 q 371 538 378 550 q 319 503 347 524 q 269 456 290 483 z "},"A":{"ha":1383,"x_min":63,"x_max":1397,"o":"m 1394 813 q 1397 805 1397 810 q 1390 792 1397 800 q 1308 677 1344 742 q 1247 536 1272 613 q 1207 375 1221 460 q 1193 201 1193 290 q 1210 98 1193 135 q 1267 61 1226 61 q 1372 139 1321 61 q 1381 139 1376 142 q 1382 131 1385 136 q 1349 84 1368 107 q 1310 42 1331 61 q 1269 12 1289 24 q 1232 0 1249 0 q 1162 47 1186 0 q 1138 165 1138 93 q 1163 392 1138 276 q 1034 390 1097 392 q 910 386 971 389 q 822 294 864 338 q 739 215 779 251 q 510 57 628 114 q 253 0 393 0 q 138 34 182 0 q 78 119 94 68 q 76 233 63 171 q 135 349 89 294 q 144 348 139 351 q 149 335 150 344 q 109 251 115 299 q 124 161 103 204 q 194 89 144 118 q 325 60 244 60 q 538 110 431 60 q 742 250 646 160 q 805 312 772 278 q 874 385 838 346 q 701 368 778 378 q 699 375 694 369 q 712 387 703 381 q 733 398 721 393 q 756 404 744 403 q 810 406 772 406 q 897 408 849 407 q 1074 588 976 492 q 1301 785 1172 683 q 1109 835 1208 815 q 918 856 1010 856 q 745 795 814 856 q 660 611 676 735 q 652 606 657 604 q 646 614 647 607 q 747 822 663 750 q 967 894 832 894 q 1082 887 1024 894 q 1196 867 1140 879 q 1302 841 1251 856 q 1394 813 1353 826 m 1167 410 q 1232 608 1190 511 q 1332 783 1274 704 q 1113 590 1210 685 q 932 408 1015 494 q 1064 410 999 410 q 1167 410 1129 410 z "},"B":{"ha":886,"x_min":39,"x_max":908,"o":"m 721 506 q 836 406 800 469 q 872 274 872 342 q 783 74 872 147 q 515 0 693 0 q 256 47 372 0 q 43 176 140 94 q 46 188 39 182 q 63 199 53 194 q 86 206 74 204 q 107 204 99 208 q 160 169 133 176 q 225 168 188 161 q 290 196 261 175 q 344 260 318 217 q 395 372 369 303 q 450 547 421 442 q 520 728 479 650 q 619 858 561 806 q 594 861 607 861 q 567 861 582 861 q 476 848 521 861 q 390 810 431 835 q 318 749 350 785 q 265 667 286 713 q 259 666 263 664 q 257 674 256 668 q 308 757 274 717 q 389 828 342 797 q 495 876 436 858 q 622 894 554 894 q 644 894 633 894 q 665 893 654 894 q 785 944 715 928 q 792 940 792 944 q 785 933 792 936 q 738 916 761 926 q 693 890 714 906 q 790 863 749 882 q 857 817 831 844 q 896 759 883 790 q 908 694 908 728 q 892 618 908 653 q 850 558 876 583 q 790 519 824 533 q 721 506 756 506 m 547 21 q 659 38 610 21 q 742 85 708 56 q 794 156 776 115 q 811 243 811 196 q 601 500 811 444 q 603 511 597 504 q 618 524 608 518 q 640 532 628 529 q 661 533 653 535 q 684 526 674 528 q 711 524 694 524 q 760 534 736 524 q 803 564 785 544 q 834 609 822 583 q 846 667 846 635 q 798 785 846 733 q 650 856 750 838 q 568 739 604 808 q 507 572 532 669 q 433 358 471 440 q 354 228 394 275 q 271 163 314 181 q 183 143 228 144 q 349 56 254 90 q 547 21 443 21 z "},"D":{"ha":1110,"x_min":42,"x_max":1103,"o":"m 810 821 q 932 724 878 781 q 1024 606 986 668 q 1083 478 1063 543 q 1103 356 1103 414 q 1078 213 1103 278 q 1004 101 1053 149 q 885 26 956 53 q 724 0 814 0 q 625 7 671 0 q 538 24 579 14 q 460 47 497 35 q 385 72 422 60 q 266 17 331 35 q 122 0 201 0 q 60 10 78 0 q 42 39 42 21 q 54 77 42 57 q 89 114 67 97 q 143 141 111 131 q 215 151 175 151 q 314 142 268 151 q 403 118 360 132 q 499 268 454 172 q 593 518 543 364 q 657 676 622 607 q 736 794 692 746 q 621 839 682 822 q 493 856 560 856 q 394 838 439 856 q 314 790 349 821 q 257 715 279 758 q 226 619 235 672 q 215 625 218 611 q 246 733 221 683 q 313 818 271 782 q 415 874 356 854 q 547 894 474 894 q 669 879 611 894 q 781 836 728 864 q 958 918 856 897 q 963 913 963 918 q 960 906 964 908 q 878 873 915 894 q 810 821 842 851 m 169 25 q 274 37 228 25 q 361 79 321 49 q 267 103 315 93 q 160 113 218 113 q 104 100 122 113 q 83 69 86 88 q 99 38 81 50 q 169 25 117 25 m 786 38 q 984 112 918 38 q 1050 311 1050 186 q 1031 442 1050 376 q 974 570 1011 508 q 886 685 938 632 q 771 776 835 738 q 707 674 735 732 q 656 546 679 617 q 551 280 604 386 q 429 108 497 174 q 501 83 464 96 q 581 60 539 71 q 674 44 624 50 q 786 38 725 38 z "},"y":{"ha":389,"x_min":-246,"x_max":397,"o":"m 338 322 q 344 331 339 326 q 358 342 350 336 q 373 351 365 347 q 385 354 381 354 q 394 344 397 354 q 335 177 364 258 q 272 8 306 96 q 192 -155 235 -89 q 103 -262 150 -221 q 7 -321 57 -303 q -96 -339 -43 -339 q -208 -302 -169 -339 q -246 -211 -246 -265 q -233 -158 -246 -186 q -192 -110 -219 -131 q -184 -112 -187 -107 q -183 -121 -181 -118 q -206 -181 -206 -147 q -172 -275 -206 -239 q -71 -311 -139 -311 q 19 -296 -22 -311 q 97 -242 60 -281 q 167 -137 133 -203 q 238 26 201 -72 q 267 111 253 72 q 297 192 282 150 q 187 56 244 108 q 85 -1 129 3 q 58 15 67 -1 q 50 61 50 32 q 56 116 50 86 q 72 178 61 146 q 98 242 82 210 q 133 306 114 275 q 101 281 118 294 q 74 257 85 268 q 66 259 69 254 q 65 268 63 264 q 118 313 85 288 q 183 354 151 338 q 194 342 197 354 q 156 280 174 314 q 126 212 139 246 q 107 144 114 178 q 100 85 100 111 q 126 46 100 46 q 180 76 149 46 q 242 148 211 106 q 299 238 274 190 q 338 322 325 286 z "},"%":{"ha":539,"x_min":28,"x_max":511,"o":"m 160 396 q 95 362 122 396 q 68 286 68 328 q 80 230 68 250 q 118 210 92 210 q 183 244 157 210 q 210 321 210 278 q 198 376 210 357 q 160 396 186 396 m 93 171 q 45 191 63 171 q 28 246 28 211 q 41 313 28 279 q 76 373 54 346 q 126 417 97 400 q 185 435 154 435 q 233 415 215 435 q 250 361 250 396 q 237 294 250 328 q 202 233 224 260 q 152 188 181 206 q 93 171 124 171 m 421 225 q 357 191 383 225 q 331 114 331 157 q 342 58 331 78 q 381 39 353 39 q 444 73 418 39 q 471 150 471 107 q 460 206 471 186 q 421 225 449 225 m 356 0 q 308 20 325 0 q 290 75 290 40 q 303 142 290 108 q 338 202 317 175 q 388 247 360 229 q 446 264 415 264 q 494 244 478 264 q 511 190 511 225 q 498 123 511 157 q 463 62 485 89 q 414 17 442 35 q 356 0 386 0 m 506 510 q 281 209 393 364 q 72 -89 168 54 q 51 -97 61 -100 q 44 -82 42 -93 q 149 67 99 -6 q 252 211 200 139 q 359 359 304 283 q 478 519 414 435 q 498 524 488 526 q 506 510 508 521 z "},"‰":{"ha":793,"x_min":28,"x_max":765,"o":"m 160 396 q 124 387 140 396 q 94 362 107 378 q 75 326 82 346 q 68 285 68 306 q 80 229 68 249 q 118 210 92 210 q 183 244 157 210 q 210 321 210 278 q 198 376 210 357 q 160 396 186 396 m 93 171 q 45 191 63 171 q 28 246 28 211 q 41 313 28 279 q 76 373 54 346 q 126 417 97 400 q 185 435 154 435 q 233 415 215 435 q 250 361 250 394 q 237 294 250 328 q 202 233 224 260 q 152 188 181 206 q 93 171 124 171 m 421 225 q 357 191 383 225 q 331 114 331 157 q 342 58 331 78 q 381 39 353 39 q 444 73 418 39 q 471 150 471 107 q 460 206 471 186 q 421 225 449 225 m 356 0 q 308 20 325 0 q 290 74 290 40 q 303 141 290 107 q 338 202 317 175 q 388 247 360 229 q 446 264 415 264 q 494 244 478 264 q 511 189 511 224 q 498 122 511 156 q 463 60 485 88 q 414 17 442 33 q 356 0 386 0 m 675 225 q 611 191 638 225 q 585 114 585 157 q 596 58 585 78 q 635 39 607 39 q 699 73 672 39 q 725 150 725 107 q 714 206 725 186 q 675 225 703 225 m 610 0 q 562 20 579 0 q 544 74 544 40 q 558 141 544 107 q 592 202 571 175 q 642 247 614 229 q 700 264 669 264 q 749 244 732 264 q 765 189 765 224 q 752 122 765 156 q 717 60 739 88 q 668 17 696 33 q 610 0 640 0 m 506 510 q 281 208 393 364 q 72 -89 168 53 q 51 -97 61 -100 q 44 -82 42 -93 q 149 66 99 -6 q 252 210 200 138 q 359 358 304 282 q 478 519 414 433 q 498 523 488 526 q 506 510 508 519 z "},"#":{"ha":401,"x_min":18,"x_max":428,"o":"m 418 329 q 417 314 428 326 q 394 297 407 301 q 358 299 376 299 q 319 299 339 299 q 291 247 304 272 q 267 194 278 221 q 309 194 289 194 q 349 192 329 193 q 352 186 353 190 q 347 176 351 182 q 337 166 343 171 q 325 160 331 161 q 289 161 307 161 q 251 161 271 161 q 220 88 235 124 q 192 15 206 51 q 178 0 186 0 q 172 10 169 0 q 196 78 182 39 q 228 161 210 117 q 174 161 200 161 q 124 158 149 161 q 74 15 93 83 q 60 0 68 0 q 54 10 54 0 q 74 76 61 38 q 101 157 86 114 q 60 152 79 154 q 24 147 40 150 q 19 154 18 149 q 27 167 21 160 q 41 179 33 174 q 56 186 49 185 q 83 188 69 188 q 113 190 97 189 q 134 243 124 217 q 156 296 144 269 q 113 291 132 293 q 76 286 93 289 q 73 292 71 286 q 81 304 75 297 q 94 317 86 311 q 108 324 101 322 q 139 327 124 326 q 171 329 154 328 q 189 366 181 349 q 207 399 197 383 q 222 419 213 408 q 241 438 232 431 q 256 447 250 446 q 261 435 263 447 q 230 382 244 408 q 201 331 215 356 q 254 331 228 331 q 306 332 281 332 q 324 366 315 350 q 343 396 333 382 q 360 418 349 406 q 381 439 371 431 q 398 449 392 447 q 403 438 404 450 q 369 385 385 411 q 338 332 353 360 q 380 331 360 332 q 418 329 400 331 m 240 194 q 289 300 263 246 q 236 299 263 300 q 185 297 210 299 q 159 244 171 269 q 136 192 147 218 q 189 194 163 193 q 240 194 215 194 z "},"€":{"ha":500,"x_min":-1,"x_max":432,"o":"m 333 435 q 405 418 378 435 q 432 383 432 401 q 424 346 432 371 q 410 303 417 321 q 401 303 407 300 q 397 313 396 306 q 394 369 410 343 q 360 398 383 388 q 307 408 336 408 q 198 373 243 408 q 133 269 153 338 q 208 271 169 271 q 300 269 247 271 q 306 262 307 267 q 292 254 304 257 q 208 253 247 254 q 129 247 168 251 q 126 228 126 238 q 124 207 125 218 q 192 208 156 208 q 275 207 228 207 q 281 199 282 204 q 268 192 279 193 q 192 190 228 192 q 122 185 157 188 l 122 179 q 151 60 122 100 q 228 19 179 19 q 288 40 263 19 q 331 106 314 60 q 340 109 335 110 q 346 101 346 108 q 323 42 335 68 q 299 11 311 15 q 261 3 285 6 q 214 0 238 0 q 108 44 146 0 q 71 158 71 88 q 72 179 71 172 q 40 174 56 176 q 6 169 24 172 q 3 176 -1 171 q 16 188 7 182 q 38 198 25 193 q 61 204 50 203 l 75 204 q 83 242 76 222 q 58 238 71 239 q 31 233 44 236 q 27 240 24 235 q 40 251 31 246 q 63 261 50 257 q 86 267 75 265 q 93 268 90 267 q 131 333 107 303 q 185 387 154 364 q 253 422 215 410 q 333 435 290 435 z "},"¥":{"ha":429,"x_min":32,"x_max":457,"o":"m 411 435 q 444 417 433 435 q 457 376 456 400 q 452 368 456 369 q 446 369 449 367 q 385 397 431 397 q 340 384 363 397 q 295 349 317 371 q 254 297 274 326 q 218 235 235 267 q 260 234 238 235 q 313 233 283 233 q 318 226 319 231 q 306 218 317 221 q 254 217 278 218 q 208 215 231 217 q 199 194 204 204 q 190 172 194 183 q 233 172 210 172 q 288 171 257 172 q 293 163 294 168 q 281 156 292 158 q 229 156 253 156 q 183 153 206 156 q 168 97 174 124 q 163 51 163 71 q 185 21 163 21 q 215 26 204 21 q 222 22 221 26 q 221 14 224 17 q 184 5 211 10 q 140 0 157 0 q 118 38 118 0 q 126 97 118 69 q 143 150 133 125 q 94 144 119 147 q 39 135 68 140 q 36 142 32 136 q 49 153 40 147 q 71 163 58 158 q 94 168 83 167 q 124 171 110 171 q 150 172 138 171 q 161 211 160 194 q 115 205 139 208 q 64 196 92 201 q 60 203 57 197 q 74 214 64 208 q 96 224 83 219 q 119 231 108 229 q 142 233 131 232 q 164 233 153 233 q 150 353 169 306 q 94 400 131 400 q 64 386 76 400 q 55 387 58 383 q 54 396 51 390 q 86 421 65 407 q 124 435 107 435 q 156 423 140 435 q 183 387 171 411 q 199 324 194 363 q 199 235 204 286 q 310 389 257 343 q 411 435 363 435 z "},"$":{"ha":374,"x_min":14,"x_max":360,"o":"m 308 429 q 346 413 332 422 q 360 393 360 403 q 353 350 360 374 q 336 311 346 326 q 326 310 332 308 q 322 319 321 313 q 329 346 328 331 q 328 372 331 361 q 297 406 321 394 q 263 327 279 365 q 229 251 246 289 q 274 199 253 226 q 296 129 296 172 q 252 37 296 75 q 133 -1 208 -1 l 124 -1 q 108 -44 117 -22 q 90 -87 100 -65 q 74 -101 83 -100 q 67 -90 65 -101 q 85 -44 76 -67 q 103 0 94 -21 q 38 22 63 6 q 14 57 14 39 q 19 77 14 65 q 32 103 24 89 q 51 130 40 117 q 74 151 63 143 q 83 150 79 154 q 85 139 88 146 q 65 110 72 128 q 60 76 57 92 q 113 22 68 33 q 153 122 133 75 q 194 218 174 169 q 156 265 174 242 q 139 321 139 288 q 147 362 139 342 q 172 399 156 382 q 213 425 189 415 q 267 435 236 435 q 277 434 272 435 q 286 433 282 433 q 307 478 297 456 q 328 526 317 501 q 344 534 335 536 q 350 521 353 532 q 308 429 329 472 m 253 106 q 240 160 253 138 q 208 203 226 183 q 170 112 189 157 q 132 19 151 67 l 136 19 q 224 44 194 19 q 253 106 253 69 m 215 267 q 245 337 231 301 q 278 413 260 372 l 267 413 q 203 393 225 413 q 182 343 182 374 q 192 301 182 319 q 215 267 201 283 z "},"¢":{"ha":269,"x_min":4,"x_max":297,"o":"m 249 431 q 283 409 269 424 q 297 378 297 394 q 292 361 297 371 q 281 342 288 351 q 268 324 275 332 q 256 314 261 317 q 247 321 247 314 q 251 360 256 340 q 229 389 246 379 q 169 252 197 318 q 113 119 140 186 l 122 119 q 170 130 150 119 q 213 167 190 140 q 221 165 217 169 q 222 156 225 161 q 160 97 193 117 q 96 78 126 78 q 63 -3 79 38 q 29 -89 46 -44 q 13 -103 21 -103 q 6 -92 4 -103 q 42 -1 25 -43 q 75 79 58 40 q 38 107 51 86 q 24 160 24 128 q 41 260 24 211 q 88 347 58 308 q 153 408 117 385 q 226 432 189 432 q 246 478 236 454 q 267 525 256 501 q 282 532 274 533 q 289 519 290 531 q 268 474 278 496 q 249 431 258 453 m 94 128 q 150 257 122 193 q 210 396 178 321 q 200 397 207 397 q 152 382 175 397 q 112 339 129 367 q 85 272 94 311 q 75 188 75 233 q 94 128 75 144 z "},"£":{"ha":478,"x_min":8,"x_max":468,"o":"m 407 435 q 456 399 443 435 q 453 321 468 364 q 444 318 449 317 q 438 324 439 319 q 417 367 435 347 q 365 386 400 386 q 329 380 344 386 q 301 356 314 374 q 276 308 288 339 q 253 231 265 278 q 310 230 279 231 q 381 229 340 229 q 386 221 388 226 q 374 214 385 215 q 247 210 306 214 q 189 76 225 125 q 256 50 221 64 q 346 36 292 36 q 392 44 372 36 q 425 65 411 53 q 435 65 431 68 q 436 57 439 63 q 378 9 406 26 q 310 -8 350 -8 q 222 8 257 -8 q 156 39 188 24 q 104 9 132 18 q 47 0 76 0 q 8 21 8 0 q 40 68 8 44 q 117 92 72 92 q 140 90 129 92 q 163 86 151 89 q 182 135 172 106 q 203 204 192 164 q 163 199 183 201 q 121 193 143 196 q 117 200 114 194 q 130 211 121 206 q 151 221 139 217 q 175 226 164 225 q 192 228 185 228 q 208 229 200 228 q 240 307 221 269 q 286 373 260 344 q 343 418 313 401 q 407 435 374 435 m 78 24 q 109 28 94 24 q 136 47 124 33 q 106 58 121 54 q 71 63 90 63 q 43 46 43 63 q 78 24 43 24 z "},"*":{"ha":261,"x_min":58,"x_max":289,"o":"m 276 465 q 243 459 261 463 q 208 453 225 456 q 169 446 189 449 q 193 417 181 432 q 215 391 204 404 q 235 369 225 378 q 238 357 240 364 q 228 346 235 350 q 215 341 222 342 q 204 347 207 340 q 189 374 197 358 q 174 404 181 390 q 157 436 165 419 q 133 401 144 418 q 114 372 124 386 q 97 347 104 357 q 86 340 93 340 q 73 344 79 340 q 63 351 67 347 q 64 360 60 356 q 90 386 75 371 q 117 415 104 401 q 146 447 132 431 q 117 454 132 450 q 90 460 104 457 q 65 465 76 463 q 59 472 58 467 q 64 484 60 478 q 75 494 68 490 q 88 494 82 497 q 107 484 96 489 q 129 474 118 479 q 153 461 142 468 q 161 496 157 479 q 168 526 164 511 q 175 554 172 542 q 185 568 176 563 q 201 576 193 574 q 215 576 210 578 q 218 568 221 574 q 203 534 211 553 q 188 500 194 515 q 169 463 179 481 q 208 476 189 469 q 243 489 225 483 q 276 501 261 494 q 286 499 283 504 q 288 487 289 494 q 285 473 288 479 q 276 465 282 467 z "},"ƒ":{"ha":297,"x_min":-114,"x_max":358,"o":"m 307 435 q 348 408 338 435 q 343 344 358 381 q 336 342 340 342 q 331 347 332 343 q 318 378 331 363 q 274 394 306 394 q 237 388 253 394 q 207 360 221 381 q 181 301 193 339 q 157 201 169 264 q 219 203 188 203 q 288 203 251 203 q 293 194 294 200 q 279 185 292 188 q 218 181 251 183 q 151 176 185 179 q 106 35 132 93 q 49 -58 79 -22 q -14 -110 18 -94 q -76 -126 -46 -126 q -106 -109 -99 -126 q -108 -71 -114 -92 q -99 -68 -104 -65 q -84 -86 -93 -79 q -56 -93 -75 -93 q -10 -83 -32 -93 q 31 -45 11 -74 q 69 35 51 -17 q 106 172 88 88 q 40 164 65 168 q 37 171 33 165 q 49 182 40 176 q 71 192 58 188 q 94 197 83 197 q 111 199 100 199 q 142 290 124 247 q 184 365 160 333 q 239 416 208 397 q 307 435 269 435 z "},"ª":{"ha":314,"x_min":76,"x_max":278,"o":"m 260 289 q 265 289 263 292 q 267 281 268 286 q 235 248 250 258 q 208 238 219 238 q 191 263 193 238 q 199 322 189 289 q 155 265 178 289 q 110 238 132 242 q 85 251 94 238 q 76 293 76 265 q 87 344 76 318 q 115 390 97 369 q 156 422 132 410 q 204 435 179 435 q 247 422 231 435 q 271 433 258 433 q 278 429 278 433 q 247 382 260 407 q 228 334 235 357 q 220 293 221 311 q 224 268 219 275 q 235 266 226 264 q 260 289 243 268 m 126 271 q 147 281 135 271 q 173 308 160 290 q 199 347 186 325 q 222 394 213 369 q 210 408 219 404 q 188 413 200 413 q 132 383 157 413 q 107 304 107 353 q 113 279 107 288 q 126 271 119 271 z "},"º":{"ha":247,"x_min":69,"x_max":213,"o":"m 172 435 q 202 422 192 435 q 213 385 213 408 q 202 332 213 358 q 176 285 192 306 q 143 251 161 264 q 110 238 125 238 q 69 293 69 238 q 78 340 69 315 q 101 386 86 365 q 133 421 115 407 q 172 435 151 435 m 126 268 q 166 296 149 268 q 183 360 183 324 q 153 407 183 407 q 113 379 129 407 q 97 314 97 351 q 126 268 97 268 z "},"™":{"ha":540,"x_min":67,"x_max":506,"o":"m 442 269 q 447 332 442 303 q 460 388 451 361 q 407 323 431 354 q 358 254 383 292 q 348 242 353 247 q 338 236 343 236 q 332 242 332 236 q 344 323 336 283 q 361 392 351 363 q 294 317 328 360 q 229 219 260 274 q 219 231 222 217 q 222 251 217 244 q 299 344 254 294 q 385 432 343 394 q 391 432 388 435 q 394 426 394 429 q 377 356 383 390 q 367 288 371 322 q 424 365 392 325 q 493 435 457 404 q 500 433 497 436 q 500 428 503 431 q 478 360 486 400 q 469 283 469 319 q 473 263 469 268 q 485 258 476 258 q 499 264 490 258 q 503 263 501 267 q 504 257 506 260 q 487 243 499 250 q 464 236 475 236 q 447 243 453 236 q 442 269 442 250 m 276 435 q 276 426 282 433 q 264 415 271 418 l 196 415 q 174 367 183 392 q 153 307 164 342 q 142 251 142 276 q 129 241 140 246 q 107 236 118 236 q 101 244 99 236 q 129 328 113 288 q 165 403 146 369 q 172 408 168 406 q 181 414 176 411 q 126 413 153 414 q 75 411 99 413 q 70 417 67 413 q 85 424 74 422 q 126 428 101 426 q 176 432 150 431 q 229 434 203 433 q 276 435 256 435 z "},"©":{"ha":460,"x_min":83,"x_max":425,"o":"m 282 435 q 326 427 310 435 q 342 411 342 419 q 336 386 342 403 q 324 361 331 369 q 317 361 321 358 q 314 367 314 364 q 315 393 321 383 q 271 413 303 413 q 209 388 228 413 q 190 324 190 364 q 251 254 190 254 q 288 263 274 254 q 308 286 301 272 q 315 285 311 289 q 318 279 318 282 q 288 248 310 261 q 238 235 265 235 q 179 257 199 235 q 160 311 160 279 q 169 356 160 333 q 194 396 178 378 q 232 424 210 414 q 282 435 254 435 m 276 486 q 208 472 239 486 q 154 434 176 458 q 119 379 132 410 q 107 315 107 349 q 136 224 107 260 q 236 188 165 188 q 298 201 268 188 q 350 238 328 215 q 385 292 372 261 q 399 357 399 322 q 367 451 399 417 q 276 486 335 486 m 215 168 q 116 206 149 168 q 83 307 83 244 q 99 381 83 344 q 142 445 114 417 q 207 490 169 474 q 290 507 244 507 q 387 470 349 507 q 425 374 425 433 q 409 294 425 332 q 365 228 393 257 q 299 184 338 200 q 215 168 261 168 z "},"®":{"ha":460,"x_min":83,"x_max":425,"o":"m 290 507 q 387 470 349 507 q 425 374 425 433 q 409 294 425 332 q 365 228 393 257 q 299 184 338 200 q 217 168 261 168 q 116 206 149 168 q 83 307 83 244 q 99 381 83 344 q 142 445 114 417 q 207 490 169 474 q 290 507 244 507 m 238 188 q 299 201 269 188 q 350 238 328 215 q 385 292 372 261 q 399 357 399 322 q 367 451 399 417 q 276 486 335 486 q 208 472 239 486 q 154 434 176 458 q 120 379 132 410 q 108 315 108 349 q 138 224 108 260 q 238 188 167 188 m 324 386 q 306 346 324 363 q 258 324 288 329 q 274 272 265 288 q 299 257 282 257 q 315 264 306 257 q 322 254 325 267 q 305 241 315 247 q 282 235 294 235 q 249 260 258 235 q 232 325 240 285 q 235 332 232 331 q 242 337 238 335 q 249 342 246 339 q 255 342 251 343 q 261 340 258 340 q 283 346 272 338 q 299 378 299 356 q 284 406 299 397 q 246 414 269 414 q 231 381 239 400 q 214 339 222 361 q 199 293 206 317 q 188 249 192 269 q 176 239 185 243 q 161 235 168 235 q 157 240 157 235 q 184 325 168 282 q 219 401 200 368 q 233 414 224 408 q 203 408 218 411 q 174 399 189 406 q 172 406 168 399 q 183 415 176 413 q 220 428 199 422 q 263 435 242 435 q 308 421 293 435 q 324 386 324 407 z "},"−":{"ha":418,"x_min":69,"x_max":385,"o":"m 117 217 q 168 217 138 217 q 233 217 199 217 q 304 216 268 217 q 374 215 340 215 q 375 201 385 213 q 350 188 365 190 q 215 188 286 189 q 78 185 144 188 q 76 200 69 188 q 117 217 83 213 z "},"+":{"ha":418,"x_min":68,"x_max":385,"o":"m 374 215 q 375 201 385 213 q 349 188 365 190 l 233 188 q 213 126 222 156 q 193 69 203 97 q 172 47 188 51 q 156 54 156 43 q 177 122 167 89 q 199 188 188 156 q 137 186 167 186 q 78 185 107 186 q 75 200 68 188 q 117 217 82 213 l 208 217 q 231 278 219 249 q 253 338 242 308 q 260 348 254 343 q 274 355 267 353 q 286 356 281 357 q 292 349 292 354 q 267 281 279 313 q 244 217 256 249 q 310 217 276 217 q 374 215 343 217 z "},"±":{"ha":418,"x_min":7,"x_max":385,"o":"m 374 215 q 376 201 385 213 q 350 188 367 190 l 233 188 q 216 138 225 163 q 199 86 207 113 q 176 64 192 68 q 161 71 161 60 q 199 188 179 133 q 138 186 168 186 q 78 185 107 186 q 76 200 69 188 q 118 217 83 213 l 208 217 q 231 276 219 247 q 253 338 242 306 q 261 348 254 343 q 275 355 268 353 q 288 356 282 357 q 293 349 293 354 q 267 279 278 311 q 244 217 256 247 q 310 217 276 217 q 374 215 343 217 m 56 32 q 107 33 76 32 q 172 33 138 33 q 242 33 206 33 q 311 31 278 32 q 313 17 322 29 q 288 3 304 6 q 153 3 225 4 q 15 0 82 3 q 14 15 7 3 q 56 32 21 28 z "},"÷":{"ha":418,"x_min":69,"x_max":385,"o":"m 117 215 q 168 216 138 215 q 233 217 199 217 q 304 216 268 217 q 374 215 340 215 q 375 201 385 213 q 350 188 365 189 q 215 187 286 188 q 78 185 144 186 q 76 199 69 188 q 117 215 83 211 m 282 288 q 272 267 282 276 q 254 257 263 257 q 240 266 247 257 q 232 282 232 275 q 240 302 232 292 q 258 313 249 313 q 274 303 267 313 q 282 288 282 294 m 224 119 q 214 99 224 108 q 196 89 204 89 q 181 98 189 89 q 174 114 174 107 q 183 135 174 124 q 201 146 192 146 q 216 136 208 146 q 224 119 224 126 z "},"×":{"ha":418,"x_min":72,"x_max":385,"o":"m 344 326 q 358 330 350 329 q 372 329 365 331 q 381 325 378 328 q 382 317 385 322 q 246 197 311 258 q 277 139 261 168 q 306 85 293 110 q 297 71 308 78 q 281 69 285 64 q 253 123 267 96 q 224 178 239 150 q 167 124 194 150 q 114 75 139 99 q 99 69 107 71 q 85 69 92 68 q 76 72 79 69 q 75 81 72 75 q 142 140 108 110 q 210 201 175 169 q 180 256 194 229 q 150 310 165 283 q 159 326 149 318 q 175 326 169 335 q 200 282 185 310 q 232 222 215 254 q 344 326 288 272 z "},"=":{"ha":418,"x_min":51,"x_max":403,"o":"m 135 267 q 186 267 156 267 q 251 268 217 268 q 322 267 285 268 q 392 265 358 267 q 393 252 403 264 q 367 239 383 240 q 233 238 304 239 q 96 236 163 238 q 93 251 86 239 q 135 267 100 263 m 100 165 q 151 166 121 165 q 216 167 182 167 q 287 166 250 167 q 357 164 324 165 q 358 151 368 163 q 332 136 349 139 q 199 137 269 138 q 61 133 128 136 q 59 149 51 136 q 100 165 67 161 z "},"þ":{"ha":363,"x_min":-47,"x_max":349,"o":"m 288 354 q 332 329 315 354 q 349 265 349 304 q 330 163 349 211 q 278 78 311 115 q 201 20 246 42 q 104 -1 157 -1 q 65 8 81 -1 q 22 -140 42 -61 q 3 -286 3 -218 q 33 -312 3 -317 q 75 -296 57 -308 q 81 -301 81 -294 q 79 -311 82 -307 q 33 -331 63 -321 q -22 -340 4 -340 q -47 -318 -47 -340 q -24 -167 -47 -260 q 36 35 0 -75 q 25 58 29 47 q 31 66 24 64 q 49 72 39 68 q 101 214 74 142 q 156 355 128 286 q 210 487 183 424 q 261 603 238 550 q 265 629 269 622 q 251 632 261 636 q 230 616 242 626 q 207 593 218 606 q 199 596 203 592 q 199 604 196 600 q 220 626 207 614 q 249 650 233 639 q 278 669 264 661 q 303 678 292 678 q 318 667 314 678 q 314 636 322 656 q 230 438 275 546 q 144 232 185 331 q 221 322 183 290 q 288 354 258 354 m 139 26 q 203 42 174 26 q 255 84 233 57 q 288 148 276 111 q 300 229 300 185 q 288 284 300 263 q 251 306 275 306 q 174 249 219 306 q 93 88 129 192 q 88 74 90 81 q 83 60 86 67 q 103 35 90 44 q 139 26 117 26 z "},"µ":{"ha":450,"x_min":-28,"x_max":436,"o":"m 422 69 q 431 69 426 72 q 433 61 435 67 q 388 16 414 33 q 344 -1 361 -1 q 313 17 326 -1 q 300 67 300 36 q 328 215 300 135 q 272 124 301 164 q 216 56 243 83 q 165 13 189 28 q 126 -1 142 -1 q 103 35 107 -1 q 115 131 100 72 q 61 -30 82 47 q 38 -174 40 -107 q 18 -198 36 -185 q -14 -211 0 -211 q -26 -197 -28 -211 q 6 -69 -14 -136 q 51 66 25 -1 q 107 198 76 133 q 169 317 138 263 q 196 340 181 328 q 222 354 211 353 q 231 351 228 356 q 232 342 235 347 q 164 219 192 283 q 136 90 136 154 q 161 50 136 50 q 206 74 179 50 q 263 138 233 99 q 322 228 292 178 q 376 329 351 278 q 392 347 381 340 q 418 354 404 354 q 431 343 436 354 q 396 276 411 307 q 371 214 381 244 q 356 152 361 183 q 351 83 351 121 q 376 39 351 39 q 422 69 399 39 z "},"Þ":{"ha":1035,"x_min":69,"x_max":1090,"o":"m 856 732 q 953 710 910 729 q 1026 661 996 692 q 1074 592 1057 631 q 1090 510 1090 553 q 1069 397 1090 447 q 1004 309 1047 346 q 899 252 961 272 q 754 232 836 232 q 672 247 710 232 q 494 59 593 118 q 282 0 396 0 q 190 17 229 0 q 123 63 150 35 q 83 127 96 90 q 69 203 69 164 q 77 257 69 229 q 98 309 85 285 q 131 353 111 333 q 174 383 150 372 q 182 374 188 389 q 122 314 142 351 q 101 233 101 276 q 116 158 101 193 q 158 98 131 124 q 226 58 186 72 q 319 43 267 43 q 416 53 371 43 q 501 90 461 64 q 574 158 540 115 q 639 264 608 200 q 603 299 615 281 q 603 307 600 303 q 611 308 607 311 q 628 294 619 300 q 647 281 638 288 q 690 387 669 329 q 731 517 710 444 q 760 614 744 569 q 792 699 775 658 q 624 650 685 697 q 540 524 564 603 q 531 523 536 519 q 526 538 526 526 q 561 607 539 574 q 617 667 583 640 q 698 710 651 693 q 806 731 744 726 q 904 873 849 819 q 1039 946 960 926 q 1046 940 1046 946 q 1039 932 1046 935 q 934 865 978 914 q 856 732 890 815 m 767 253 q 880 272 831 253 q 963 322 929 290 q 1013 397 996 354 q 1029 488 1029 439 q 981 629 1029 574 q 842 696 933 685 q 824 643 832 671 q 807 583 815 615 q 750 408 782 486 q 682 265 718 329 q 767 253 717 253 z "},"Œ":{"ha":1149,"x_min":97,"x_max":1221,"o":"m 1046 894 q 1110 888 1079 894 q 1167 872 1142 882 q 1206 848 1192 861 q 1221 821 1221 835 q 1216 795 1221 810 q 1205 765 1211 781 q 1192 737 1199 750 q 1181 718 1185 724 q 1172 717 1176 715 q 1169 725 1168 719 q 1182 759 1178 740 q 1175 796 1186 778 q 1117 846 1160 821 q 1018 871 1074 871 q 939 858 972 871 q 883 825 906 846 q 849 778 860 804 q 838 726 838 753 q 870 644 838 678 q 982 586 903 610 q 983 577 986 583 q 972 564 979 571 q 956 551 965 557 q 942 544 947 546 q 699 477 785 551 q 614 253 614 403 q 628 163 614 204 q 670 90 643 121 q 735 42 697 60 q 822 25 774 25 q 1008 78 936 25 q 1113 249 1081 132 q 1122 253 1117 256 q 1128 242 1126 250 q 1088 113 1110 164 q 1046 53 1065 61 q 928 15 997 31 q 789 0 860 0 q 688 17 732 0 q 614 63 644 35 q 508 16 563 32 q 396 0 453 0 q 266 26 322 0 q 172 97 210 53 q 116 200 135 142 q 97 322 97 258 q 138 531 97 428 q 249 715 178 633 q 415 845 319 796 q 619 894 510 894 q 735 871 683 894 q 824 804 788 847 q 917 869 860 844 q 1046 894 974 894 m 876 572 q 807 628 832 596 q 782 697 782 660 q 789 742 782 718 q 699 820 753 793 q 574 847 644 847 q 403 810 481 847 q 272 707 326 772 q 186 555 217 642 q 156 368 156 468 q 176 235 156 296 q 234 132 196 175 q 328 65 272 89 q 454 42 383 42 q 599 78 529 42 q 560 144 574 107 q 547 219 547 181 q 572 345 547 286 q 640 450 596 404 q 744 528 683 496 q 876 572 804 560 z "},"ﬂ":{"ha":403,"x_min":-406,"x_max":889,"o":"m 831 1032 q 878 999 867 1032 q 868 928 889 965 q 861 927 865 925 q 857 935 857 929 q 844 963 858 951 q 799 974 829 974 q 681 924 739 974 q 569 794 622 874 q 469 615 515 714 q 388 419 422 517 q 335 234 354 321 q 315 93 315 147 q 338 51 315 51 q 370 65 354 51 q 407 107 386 79 q 415 106 411 110 q 417 96 419 103 q 356 27 389 54 q 300 0 324 0 q 271 15 282 0 q 260 53 260 29 q 277 171 260 97 q 326 333 294 244 q 258 331 293 332 q 188 326 224 329 q 183 313 185 319 q 179 299 182 306 q 63 -6 122 117 q -60 -202 3 -128 q -187 -308 -122 -276 q -318 -339 -251 -339 q -385 -318 -365 -339 q -406 -271 -406 -297 q -400 -242 -406 -257 q -386 -217 -394 -228 q -378 -216 -382 -214 q -375 -222 -375 -218 q -381 -249 -382 -235 q -369 -277 -379 -264 q -337 -299 -358 -290 q -285 -308 -317 -308 q -186 -288 -235 -308 q -88 -203 -137 -268 q 15 -20 -39 -139 q 129 297 68 99 l 138 322 q 89 316 113 319 q 43 308 65 313 q 40 315 36 310 q 52 325 43 319 q 74 335 61 331 q 97 342 86 340 q 120 344 108 343 q 144 346 132 344 q 601 997 354 997 q 649 985 631 997 q 678 954 668 974 q 756 1011 717 990 q 831 1032 794 1032 m 332 349 q 395 505 360 424 q 472 663 431 586 q 558 808 513 739 q 651 926 604 876 q 571 954 624 954 q 479 933 521 954 q 394 846 438 911 q 304 662 351 781 q 194 347 257 543 q 261 349 226 349 q 332 349 296 349 z "},"Ł":{"ha":913,"x_min":42,"x_max":1006,"o":"m 917 894 q 983 866 960 894 q 1006 794 1006 838 q 997 736 1006 767 q 975 681 988 706 q 965 677 969 675 q 960 686 960 679 q 970 738 969 711 q 960 785 971 764 q 927 821 950 807 q 869 835 904 835 q 785 819 824 835 q 713 765 746 804 q 649 660 679 726 q 590 494 619 594 q 681 513 635 504 q 772 528 726 521 q 783 522 786 531 q 765 510 781 514 q 676 493 722 503 q 583 472 631 483 q 576 444 581 458 q 569 415 572 431 q 508 240 543 315 q 426 114 474 165 q 553 72 488 90 q 701 54 619 54 q 810 78 768 54 q 883 165 851 101 q 893 165 889 168 q 894 153 897 161 q 806 39 861 78 q 657 0 750 0 q 511 24 575 0 q 388 76 447 49 q 147 0 293 0 q 68 22 94 0 q 42 68 42 43 q 52 106 42 86 q 83 140 63 125 q 131 164 103 154 q 193 174 158 174 q 298 158 247 174 q 401 124 349 143 q 460 227 433 164 q 511 382 488 290 q 522 420 517 401 q 533 458 526 439 q 451 433 492 447 q 374 404 411 419 q 374 419 363 404 q 413 446 385 435 q 473 465 440 456 q 542 483 506 474 q 612 652 572 576 q 699 782 651 728 q 800 865 746 836 q 917 894 854 894 m 193 31 q 288 43 246 31 q 365 86 329 56 q 266 125 317 108 q 154 142 215 142 q 98 129 115 142 q 81 97 81 117 q 110 50 81 69 q 193 31 139 31 z "},"ł":{"ha":186,"x_min":42,"x_max":665,"o":"m 613 1032 q 643 1023 631 1032 q 660 999 656 1014 q 663 966 665 985 q 650 929 660 947 q 643 928 647 926 q 639 935 639 931 q 626 963 640 951 q 581 975 611 975 q 491 945 536 975 q 403 865 446 915 q 321 749 361 815 q 246 608 281 682 q 297 624 269 617 q 361 642 325 632 q 371 638 372 644 q 358 626 369 632 q 294 608 322 617 q 238 588 265 599 q 180 447 206 518 q 135 310 154 375 q 107 188 117 244 q 97 93 97 132 q 119 51 97 51 q 152 65 136 51 q 189 107 168 79 q 197 107 193 110 q 199 97 201 104 q 138 27 171 54 q 82 0 106 0 q 53 15 64 0 q 42 54 42 29 q 54 147 42 90 q 88 274 67 204 q 141 421 110 343 q 210 576 172 499 q 107 525 163 556 q 102 527 103 524 q 105 537 101 531 q 116 549 108 543 q 135 561 124 556 q 179 581 158 572 q 221 599 200 590 q 310 762 263 683 q 409 901 358 840 q 511 997 460 961 q 613 1032 563 1032 z "},"|":{"ha":225,"x_min":111,"x_max":142,"o":"m 142 -337 l 111 -337 l 111 896 l 142 896 l 142 -337 l 142 -337 z "},"¦":{"ha":225,"x_min":113,"x_max":142,"o":"m 113 436 l 113 896 l 142 896 l 142 436 l 113 436 m 142 124 l 142 -337 l 113 -337 l 113 124 l 142 124 z "},"˙":{"ha":124,"x_min":28,"x_max":96,"o":"m 46 443 q 28 469 28 443 q 43 506 28 485 q 82 526 58 526 q 96 507 96 526 q 81 465 96 486 q 46 443 65 443 z "},"‚":{"ha":156,"x_min":-1,"x_max":121,"o":"m 104 92 q 116 74 111 89 q 121 43 121 60 q 88 -47 121 0 q 7 -122 56 -93 q 0 -117 1 -122 q 3 -107 -1 -112 q 53 -58 33 -87 q 72 3 72 -29 q 58 40 72 32 q 59 53 54 44 q 72 69 64 61 q 90 85 81 78 q 104 92 99 92 z "},"„":{"ha":267,"x_min":-1,"x_max":232,"o":"m 104 92 q 116 74 111 89 q 121 43 121 60 q 88 -47 121 0 q 7 -122 56 -93 q 0 -117 1 -122 q 3 -107 -1 -112 q 53 -58 33 -87 q 72 3 72 -29 q 58 40 72 32 q 59 53 54 44 q 72 69 64 61 q 90 85 81 78 q 104 92 99 92 m 215 92 q 227 74 222 89 q 232 43 232 60 q 199 -47 232 0 q 118 -122 167 -93 q 111 -117 113 -122 q 114 -107 110 -112 q 164 -58 144 -87 q 183 3 183 -29 q 169 40 183 32 q 170 53 165 44 q 183 69 175 61 q 201 85 192 78 q 215 92 210 92 z "},"…":{"ha":522,"x_min":42,"x_max":488,"o":"m 58 0 q 42 31 42 0 q 47 49 42 39 q 63 68 53 58 q 83 84 72 78 q 107 90 94 90 q 121 69 121 90 q 115 47 121 58 q 99 24 108 35 q 79 7 90 14 q 58 0 68 0 m 242 0 q 225 31 225 0 q 231 49 225 39 q 246 68 236 58 q 267 84 256 78 q 290 90 278 90 q 304 69 304 90 q 298 47 304 58 q 283 24 292 35 q 263 7 274 14 q 242 0 251 0 m 425 0 q 408 31 408 0 q 414 49 408 39 q 429 68 419 58 q 450 84 439 78 q 474 90 461 90 q 488 69 488 90 q 481 47 488 58 q 466 24 475 35 q 446 7 457 14 q 425 0 435 0 z "},"¹":{"ha":242,"x_min":69,"x_max":207,"o":"m 79 203 q 69 213 69 203 q 110 309 88 260 q 153 400 133 358 q 92 388 115 392 q 89 394 89 389 q 93 401 89 399 q 145 416 118 406 q 196 442 172 426 q 203 442 199 444 q 206 435 207 439 q 147 326 172 386 q 107 217 122 265 q 79 203 97 203 z "},"²":{"ha":299,"x_min":61,"x_max":264,"o":"m 213 435 q 251 419 238 435 q 264 385 264 404 q 256 347 264 364 q 231 313 247 329 q 191 281 215 297 q 133 244 167 265 q 211 233 164 233 q 249 249 239 233 q 255 249 251 251 q 256 242 258 247 q 230 215 244 225 q 193 204 215 204 q 157 208 172 204 q 129 216 142 213 q 107 221 117 219 q 88 217 97 222 q 71 204 75 208 q 64 210 67 204 q 67 219 61 215 q 131 260 101 242 q 182 296 160 279 q 217 331 204 313 q 229 372 229 349 q 221 398 229 388 q 189 408 213 408 q 152 392 167 408 q 133 356 138 375 q 126 354 131 353 q 122 363 122 356 q 152 412 128 389 q 213 435 176 435 z "},"³":{"ha":264,"x_min":61,"x_max":229,"o":"m 185 435 q 217 424 206 435 q 228 397 228 413 q 172 336 228 360 q 215 331 200 343 q 229 296 229 318 q 195 231 229 257 q 113 204 161 204 q 65 254 61 204 q 74 257 68 263 q 138 224 82 224 q 179 238 164 224 q 194 278 194 253 q 156 321 194 321 q 139 318 146 321 q 125 313 132 315 q 119 317 121 311 q 121 325 118 322 q 181 356 165 340 q 196 389 196 372 q 169 417 196 417 q 140 408 153 417 q 121 385 128 399 q 114 385 118 382 q 111 393 110 389 q 139 422 121 408 q 185 435 157 435 z "},"¸":{"ha":160,"x_min":28,"x_max":132,"o":"m 131 6 q 108 -22 114 -6 q 108 -51 103 -37 q 101 -117 119 -82 q 33 -171 82 -151 q 28 -166 29 -171 q 31 -157 28 -161 q 77 -121 67 -140 q 79 -74 88 -101 q 80 -28 72 -51 q 119 14 88 -6 q 129 12 126 15 q 131 6 132 8 z "},"˝":{"ha":351,"x_min":28,"x_max":329,"o":"m 129 529 q 155 528 136 533 q 186 517 174 522 q 188 503 196 511 q 156 485 175 494 q 115 466 136 475 q 73 449 94 457 q 33 436 51 442 q 28 441 28 436 q 33 451 28 446 q 81 484 51 463 q 129 529 110 506 m 263 529 q 288 528 269 533 q 319 517 307 522 q 321 503 329 511 q 289 485 308 494 q 249 466 269 475 q 206 449 228 457 q 167 436 185 442 q 161 441 161 436 q 167 451 161 446 q 214 484 185 463 q 263 529 243 506 z "},"˘":{"ha":275,"x_min":29,"x_max":247,"o":"m 122 456 q 60 473 85 456 q 29 521 35 490 q 41 542 29 532 q 58 546 53 553 q 85 499 65 515 q 140 483 104 483 q 198 500 176 483 q 233 547 219 517 q 242 549 238 551 q 247 540 247 547 q 200 480 232 504 q 122 456 168 456 z "},"˛":{"ha":172,"x_min":28,"x_max":146,"o":"m 129 6 q 81 -33 101 -10 q 61 -86 61 -57 q 69 -115 61 -104 q 97 -125 76 -125 q 136 -112 119 -125 q 143 -115 140 -111 q 143 -124 146 -119 q 82 -149 118 -149 q 28 -100 28 -149 q 51 -38 28 -71 q 119 14 75 -6 q 129 6 135 17 z "},"Æ":{"ha":1765,"x_min":63,"x_max":1838,"o":"m 1663 894 q 1727 888 1696 894 q 1783 872 1758 882 q 1823 848 1808 861 q 1838 821 1838 835 q 1833 795 1838 810 q 1822 765 1828 781 q 1808 737 1815 750 q 1797 718 1801 724 q 1789 717 1793 715 q 1786 725 1785 719 q 1799 759 1794 740 q 1792 796 1803 778 q 1733 846 1776 821 q 1635 871 1690 871 q 1510 831 1553 871 q 1468 726 1468 790 q 1500 644 1468 682 q 1599 586 1532 606 q 1599 577 1603 583 q 1589 564 1596 571 q 1573 551 1582 557 q 1558 544 1564 546 q 1317 477 1403 551 q 1231 253 1231 403 q 1245 163 1231 204 q 1287 90 1260 121 q 1352 42 1314 60 q 1439 25 1390 25 q 1625 78 1553 25 q 1729 249 1697 131 q 1738 253 1733 256 q 1744 242 1743 250 q 1704 113 1726 164 q 1663 53 1682 61 q 1545 15 1614 31 q 1406 0 1476 0 q 1306 18 1349 0 q 1233 67 1263 36 q 1190 142 1204 99 q 1175 235 1175 185 q 1178 311 1175 271 q 1189 394 1182 351 q 1187 393 1188 393 q 1185 392 1186 393 q 1044 390 1114 392 q 910 385 975 388 q 822 294 864 336 q 740 214 781 251 q 511 56 629 113 q 254 0 393 0 q 139 34 183 0 q 78 119 94 68 q 76 233 63 171 q 135 349 89 294 q 145 348 140 351 q 150 335 150 344 q 110 251 117 299 q 124 161 103 204 q 196 89 146 118 q 326 60 246 60 q 539 110 432 60 q 742 250 646 160 q 804 312 772 278 q 872 382 836 346 q 794 376 832 379 q 722 368 756 374 q 719 375 715 369 q 732 387 724 381 q 752 398 740 393 q 775 404 764 403 q 823 406 790 406 q 897 408 856 407 q 1074 588 976 492 q 1301 785 1172 683 q 1110 835 1210 815 q 918 856 1010 856 q 745 795 814 856 q 661 611 676 735 q 653 606 658 604 q 647 614 649 607 q 747 822 663 750 q 968 894 832 894 q 1082 887 1025 894 q 1193 867 1139 879 q 1297 842 1247 856 q 1388 814 1346 828 q 1394 806 1392 811 q 1390 792 1397 801 q 1298 623 1332 711 q 1244 432 1264 535 q 1351 526 1289 494 q 1493 572 1414 557 q 1434 626 1456 592 q 1413 696 1413 660 q 1431 771 1413 735 q 1481 834 1449 807 q 1560 878 1514 861 q 1663 894 1606 894 m 1192 410 q 1247 606 1211 507 q 1333 783 1282 704 q 1113 590 1210 685 q 933 408 1015 494 q 1006 409 968 408 q 1078 410 1043 410 q 1142 410 1113 410 q 1192 410 1172 410 z "},"Á":{"ha":1383,"x_min":63,"x_max":1435,"o":"m 1372 1019 q 1398 1017 1379 1024 q 1429 1006 1417 1011 q 1433 999 1432 1003 q 1431 993 1435 996 q 1395 972 1417 983 q 1349 951 1374 961 q 1299 931 1325 940 q 1253 914 1274 921 q 1247 919 1247 914 q 1251 929 1247 925 q 1313 969 1279 946 q 1372 1019 1346 992 m 1394 813 q 1397 805 1397 810 q 1390 792 1397 800 q 1308 677 1344 742 q 1247 536 1272 613 q 1207 375 1221 460 q 1193 201 1193 290 q 1210 98 1193 135 q 1267 61 1226 61 q 1372 139 1321 61 q 1381 139 1376 142 q 1382 131 1385 136 q 1349 84 1368 107 q 1310 42 1331 61 q 1269 12 1289 24 q 1232 0 1249 0 q 1162 47 1186 0 q 1138 165 1138 93 q 1163 392 1138 276 q 1034 390 1097 392 q 910 386 971 389 q 822 294 864 338 q 739 215 779 251 q 510 57 628 114 q 253 0 393 0 q 138 34 182 0 q 78 119 94 68 q 76 233 63 171 q 135 349 89 294 q 144 348 139 351 q 149 335 150 344 q 109 251 115 299 q 124 161 103 204 q 194 89 144 118 q 325 60 244 60 q 538 110 431 60 q 742 250 646 160 q 805 312 772 278 q 874 385 838 346 q 701 368 778 378 q 699 375 694 369 q 712 387 703 381 q 733 398 721 393 q 756 404 744 403 q 810 406 772 406 q 897 408 849 407 q 1074 588 976 492 q 1301 785 1172 683 q 1109 835 1208 815 q 918 856 1010 856 q 745 795 814 856 q 660 611 676 735 q 652 606 657 604 q 646 614 647 607 q 747 822 663 750 q 967 894 832 894 q 1082 887 1024 894 q 1196 867 1140 879 q 1302 841 1251 856 q 1394 813 1353 826 m 1167 410 q 1232 608 1190 511 q 1332 783 1274 704 q 1113 590 1210 685 q 932 408 1015 494 q 1064 410 999 410 q 1167 410 1129 410 z "},"Â":{"ha":1383,"x_min":63,"x_max":1478,"o":"m 1351 1036 q 1368 1035 1358 1043 q 1415 987 1386 1011 q 1471 950 1443 963 q 1465 936 1478 943 q 1435 932 1451 929 q 1387 959 1408 943 q 1343 993 1365 975 q 1321 978 1335 986 q 1292 960 1307 969 q 1263 943 1278 951 q 1239 931 1249 935 q 1232 943 1225 931 q 1292 983 1256 957 q 1351 1036 1329 1010 m 1394 813 q 1397 805 1397 810 q 1390 792 1397 800 q 1308 677 1344 742 q 1247 536 1272 613 q 1207 375 1221 460 q 1193 201 1193 290 q 1210 98 1193 135 q 1267 61 1226 61 q 1372 139 1321 61 q 1381 139 1376 142 q 1382 131 1385 136 q 1349 84 1368 107 q 1310 42 1331 61 q 1269 12 1289 24 q 1232 0 1249 0 q 1162 47 1186 0 q 1138 165 1138 93 q 1163 392 1138 276 q 1034 390 1097 392 q 910 386 971 389 q 822 294 864 338 q 739 215 779 251 q 510 57 628 114 q 253 0 393 0 q 138 34 182 0 q 78 119 94 68 q 76 233 63 171 q 135 349 89 294 q 144 348 139 351 q 149 335 150 344 q 109 251 115 299 q 124 161 103 204 q 194 89 144 118 q 325 60 244 60 q 538 110 431 60 q 742 250 646 160 q 805 312 772 278 q 874 385 838 346 q 701 368 778 378 q 699 375 694 369 q 712 387 703 381 q 733 398 721 393 q 756 404 744 403 q 810 406 772 406 q 897 408 849 407 q 1074 588 976 492 q 1301 785 1172 683 q 1109 835 1208 815 q 918 856 1010 856 q 745 795 814 856 q 660 611 676 735 q 652 606 657 604 q 646 614 647 607 q 747 822 663 750 q 967 894 832 894 q 1082 887 1024 894 q 1196 867 1140 879 q 1302 841 1251 856 q 1394 813 1353 826 m 1167 410 q 1232 608 1190 511 q 1332 783 1274 704 q 1113 590 1210 685 q 932 408 1015 494 q 1064 410 999 410 q 1167 410 1129 410 z "},"Ð":{"ha":1111,"x_min":42,"x_max":1104,"o":"m 810 821 q 933 724 878 781 q 1026 606 988 668 q 1084 478 1064 543 q 1104 356 1104 414 q 1078 213 1104 278 q 1004 101 1053 149 q 885 26 956 53 q 724 0 814 0 q 626 7 671 0 q 540 24 581 14 q 460 47 499 35 q 385 72 422 60 q 267 17 332 35 q 122 0 203 0 q 60 10 78 0 q 42 40 42 21 q 54 78 42 58 q 90 114 67 97 q 144 141 113 131 q 217 151 176 151 q 315 142 269 151 q 404 118 360 132 q 480 227 444 160 q 551 394 515 294 q 460 388 503 392 q 385 378 418 383 q 387 388 379 381 q 410 401 394 394 q 469 408 429 404 q 558 414 510 411 q 576 464 567 438 q 593 518 585 490 q 657 677 622 608 q 738 794 692 746 q 622 839 683 822 q 494 856 561 856 q 314 790 385 856 q 228 619 243 725 q 221 618 225 617 q 217 625 217 619 q 247 733 222 683 q 315 818 272 782 q 415 874 357 854 q 547 894 474 894 q 671 879 613 894 q 782 838 729 864 q 862 887 818 867 q 960 918 906 907 q 964 913 964 918 q 960 906 964 908 q 810 821 876 883 m 171 25 q 276 38 229 25 q 363 81 322 50 q 268 103 317 94 q 161 113 219 113 q 105 101 122 113 q 85 69 88 89 q 99 38 81 50 q 171 25 118 25 m 786 38 q 984 113 918 38 q 1050 311 1050 188 q 1031 442 1050 376 q 974 570 1011 508 q 886 685 938 632 q 771 778 835 739 q 657 546 700 689 q 634 478 646 510 q 610 415 622 446 q 708 418 661 418 q 786 417 754 418 q 788 410 789 415 q 779 404 788 406 q 695 403 740 404 q 604 399 650 401 q 523 228 565 300 q 429 108 481 157 q 501 83 464 96 q 581 60 539 71 q 674 44 624 50 q 786 38 725 38 z "},"'":{"ha":167,"x_min":68,"x_max":240,"o":"m 171 550 q 185 560 175 557 q 221 563 196 563 q 235 549 240 563 q 203 512 222 535 q 162 464 183 489 q 119 415 140 439 q 83 375 99 390 q 72 376 76 372 q 71 386 68 379 q 92 419 78 397 q 120 466 106 442 q 149 513 135 490 q 171 550 163 536 z "},"\"":{"ha":297,"x_min":68,"x_max":371,"o":"m 171 550 q 185 560 175 557 q 221 563 196 563 q 235 549 240 563 q 203 512 222 535 q 162 464 183 489 q 119 415 140 439 q 83 375 99 390 q 72 376 76 372 q 71 386 68 379 q 92 419 78 397 q 120 466 106 442 q 149 513 135 490 q 171 550 163 536 m 301 550 q 316 560 306 557 q 351 563 326 563 q 365 549 371 563 q 333 512 353 535 q 292 464 314 489 q 250 415 271 439 q 214 375 229 390 q 203 376 207 372 q 201 386 199 379 q 222 419 208 397 q 251 466 236 442 q 279 513 265 490 q 301 550 293 536 z "},"›":{"ha":244,"x_min":-32,"x_max":217,"o":"m -15 4 q -28 10 -24 1 q -21 31 -32 19 q 20 66 -4 46 q 71 108 44 86 q 122 149 97 129 q 167 183 147 168 q 135 211 151 194 q 103 247 119 228 q 74 286 88 267 q 51 321 61 306 q 54 333 49 326 q 68 345 60 340 q 85 351 76 350 q 99 349 93 353 q 151 271 119 310 q 213 208 182 232 q 216 197 217 204 q 210 185 215 189 q 92 97 153 146 q -15 4 31 47 z "},">":{"ha":418,"x_min":35,"x_max":381,"o":"m 374 215 q 375 203 381 213 q 349 188 369 194 q 289 168 328 181 q 206 142 250 156 q 119 114 163 128 q 43 90 75 100 q 42 106 35 93 q 68 125 49 118 q 112 138 82 129 q 177 159 142 147 q 249 183 213 171 q 313 204 285 194 q 217 248 272 224 q 113 296 161 272 q 116 311 106 301 q 144 318 126 321 q 194 296 164 310 q 256 267 224 282 q 320 239 289 253 q 374 215 351 225 z "},"<":{"ha":418,"x_min":71,"x_max":417,"o":"m 78 185 q 76 197 71 188 q 103 213 82 206 q 163 232 124 219 q 245 258 201 244 q 333 286 289 272 q 408 310 376 300 q 410 294 417 307 q 383 275 403 282 q 339 261 368 271 q 274 240 310 251 q 203 217 239 229 q 139 196 167 206 q 235 152 179 176 q 339 104 290 128 q 335 89 346 99 q 307 82 325 79 q 258 104 288 90 q 195 133 228 118 q 131 161 163 147 q 78 185 100 175 z "},"½":{"ha":603,"x_min":67,"x_max":575,"o":"m 540 465 q 422 333 479 397 q 311 205 365 268 q 204 78 257 142 q 99 -53 151 14 q 77 -58 88 -62 q 72 -43 67 -54 q 182 90 132 29 q 283 210 232 150 q 388 334 333 269 q 514 478 443 399 q 534 479 524 483 q 540 465 544 475 m 111 135 q 101 146 99 135 q 126 208 113 175 q 155 273 140 240 q 184 337 169 306 q 211 394 199 368 q 170 385 189 389 q 133 378 151 381 q 129 384 131 379 q 135 392 128 389 q 199 409 167 397 q 261 440 232 421 q 269 440 265 443 q 274 431 274 438 q 198 290 231 368 q 146 150 165 213 q 111 135 138 135 m 510 293 q 558 274 542 293 q 575 229 575 256 q 524 135 575 175 q 386 50 474 96 q 430 38 406 43 q 486 33 454 33 q 533 60 518 33 q 542 60 539 65 q 544 50 546 56 q 512 14 531 28 q 465 0 493 0 q 419 5 439 0 q 384 15 400 10 q 356 21 368 19 q 331 15 343 22 q 317 6 322 10 q 308 0 313 3 q 299 6 301 -1 q 303 19 297 14 q 390 69 349 46 q 464 116 432 93 q 515 163 496 139 q 535 214 535 186 q 523 249 535 236 q 483 261 511 261 q 436 243 454 261 q 411 193 418 225 q 401 192 408 189 q 396 201 394 194 q 433 264 403 235 q 510 293 463 293 z "},"¼":{"ha":604,"x_min":67,"x_max":589,"o":"m 578 301 q 586 299 583 303 q 586 293 589 296 q 558 259 571 275 q 533 221 544 243 q 504 164 518 194 q 476 99 490 133 q 506 107 496 101 q 522 124 515 113 q 528 124 525 126 q 531 117 532 121 q 468 76 511 81 q 456 45 461 61 q 446 14 451 29 q 433 4 443 8 q 414 0 424 0 q 407 7 407 0 q 419 42 414 25 q 432 76 425 60 q 364 88 389 79 q 328 89 339 96 q 325 87 325 88 q 324 85 325 86 q 315 85 319 82 q 314 94 311 89 q 374 149 340 121 q 442 206 407 178 q 512 258 476 233 q 578 301 547 283 m 440 99 q 507 236 471 174 q 430 177 468 208 q 356 114 392 146 q 394 103 375 107 q 440 99 414 100 m 514 478 q 534 479 524 483 q 539 465 544 475 q 422 333 478 397 q 311 205 365 268 q 204 78 257 142 q 99 -53 151 14 q 76 -58 86 -62 q 71 -43 67 -54 q 181 90 131 29 q 282 210 232 150 q 388 334 332 269 q 514 478 443 399 m 110 135 q 100 146 100 135 q 125 208 111 175 q 153 273 139 240 q 183 337 168 306 q 210 394 197 368 q 169 385 188 389 q 133 378 150 381 q 128 384 129 379 q 133 392 128 389 q 199 409 165 397 q 260 440 232 421 q 269 440 265 443 q 272 431 274 438 q 197 290 231 368 q 146 150 164 213 q 110 135 136 135 z "},"¾":{"ha":661,"x_min":68,"x_max":646,"o":"m 635 301 q 643 299 640 303 q 643 293 646 296 q 615 259 628 275 q 590 221 601 243 q 561 164 575 194 q 533 99 547 133 q 563 107 553 101 q 579 124 572 113 q 585 124 582 126 q 588 117 589 121 q 525 76 568 81 q 513 45 518 61 q 503 14 508 29 q 490 4 500 8 q 471 0 481 0 q 464 7 464 0 q 476 42 471 25 q 489 76 482 60 q 421 88 446 79 q 385 89 396 96 l 381 85 q 372 85 376 82 q 371 94 368 89 q 431 149 397 121 q 499 206 464 178 q 569 258 533 233 q 635 301 604 283 m 497 99 q 564 236 528 174 q 487 177 525 208 q 413 114 449 146 q 451 103 432 107 q 497 99 471 100 m 571 478 q 591 479 581 483 q 596 465 601 475 q 478 333 535 397 q 368 205 422 268 q 261 78 314 142 q 156 -53 208 14 q 133 -58 143 -62 q 128 -43 124 -54 q 238 90 188 29 q 339 210 289 150 q 444 334 389 269 q 571 478 500 399 m 278 250 q 267 206 278 226 q 236 169 256 185 q 190 144 217 154 q 131 135 163 135 q 84 151 100 135 q 71 199 68 167 q 75 203 72 201 q 81 201 78 204 q 101 167 88 179 q 154 154 115 154 q 215 175 192 154 q 239 232 239 196 q 227 270 239 256 q 188 285 215 285 q 165 281 174 285 q 146 272 156 278 q 139 278 140 271 q 140 288 138 285 q 217 326 193 307 q 240 369 240 344 q 204 406 240 406 q 166 394 181 406 q 140 363 151 382 q 132 363 136 358 q 129 374 128 367 q 164 411 140 394 q 222 428 188 428 q 264 414 250 428 q 278 381 278 400 q 207 303 278 329 q 260 294 243 311 q 278 250 278 278 z "},"·":{"ha":156,"x_min":42,"x_max":121,"o":"m 58 167 q 42 197 42 167 q 47 215 42 206 q 63 235 53 225 q 83 251 72 244 q 107 257 94 257 q 121 236 121 257 q 115 213 121 225 q 99 191 108 201 q 79 174 90 181 q 58 167 68 167 z "},"⁄":{"ha":306,"x_min":-31,"x_max":447,"o":"m 443 465 q 325 333 382 397 q 214 205 268 268 q 107 78 160 142 q 1 -53 54 14 q -20 -58 -10 -62 q -25 -43 -31 -54 q 85 90 35 29 q 185 210 135 150 q 291 334 236 269 q 417 478 346 399 q 437 479 426 483 q 443 465 447 475 z "},"~":{"ha":532,"x_min":69,"x_max":506,"o":"m 72 193 q 133 256 99 228 q 208 283 168 283 q 253 275 233 283 q 293 258 274 267 q 334 240 313 249 q 385 232 356 232 q 488 289 438 232 q 500 288 494 292 q 503 276 506 283 q 433 214 471 238 q 356 190 394 190 q 303 199 325 190 q 262 216 281 207 q 225 233 243 225 q 185 242 207 242 q 130 225 153 242 q 83 181 107 208 q 73 181 76 176 q 72 193 69 186 z "},"^":{"ha":378,"x_min":68,"x_max":350,"o":"m 251 501 q 274 499 264 518 q 310 388 292 443 q 349 285 329 333 q 347 269 350 278 q 338 255 344 261 q 325 246 332 249 q 314 247 318 243 q 279 348 297 294 q 246 446 261 401 q 206 395 226 422 q 163 341 185 368 q 120 290 140 314 q 83 246 100 265 q 73 248 78 243 q 71 261 68 253 q 151 365 103 304 q 251 501 199 426 z "},"¬":{"ha":368,"x_min":19,"x_max":335,"o":"m 324 326 q 331 307 335 321 q 320 283 326 299 q 307 249 314 268 q 292 211 300 231 q 279 175 285 192 q 267 165 275 168 q 251 161 260 161 q 237 164 243 161 q 232 174 231 167 q 243 205 236 186 q 257 243 250 224 q 270 279 264 263 q 279 304 276 296 q 219 304 254 304 q 147 303 183 304 q 78 302 111 303 q 28 301 46 301 q 22 311 19 304 q 39 321 25 318 q 100 323 61 322 q 181 324 139 324 q 261 326 222 325 q 324 326 300 326 z "},"\\":{"ha":294,"x_min":42,"x_max":246,"o":"m 68 875 q 105 663 82 785 q 153 415 128 542 q 202 169 178 288 q 244 -33 226 50 q 235 -56 246 -49 q 217 -51 224 -62 q 176 156 199 40 q 129 393 153 271 q 83 637 106 515 q 42 863 60 758 q 54 880 44 874 q 68 875 64 886 z "},"{":{"ha":404,"x_min":107,"x_max":538,"o":"m 290 689 q 365 823 310 782 q 526 864 419 864 q 536 853 538 861 q 521 844 535 844 q 401 811 442 844 q 344 703 361 778 q 335 651 338 674 q 330 606 332 628 q 325 560 328 583 q 315 508 322 538 q 276 432 304 467 q 204 378 247 397 q 253 337 239 368 q 258 267 267 306 q 239 202 250 231 q 217 146 228 174 q 195 90 206 118 q 178 29 185 63 q 189 -77 164 -42 q 285 -112 214 -112 q 290 -123 292 -115 q 276 -133 289 -131 q 142 -92 176 -133 q 122 22 107 -50 q 142 89 131 60 q 164 144 153 118 q 186 197 175 171 q 206 257 197 224 q 207 295 211 278 q 194 326 203 313 q 170 347 185 339 q 140 358 156 356 q 138 375 132 365 q 167 392 143 385 q 233 428 211 403 q 265 501 254 453 q 280 600 279 557 q 290 689 281 643 z "},"}":{"ha":396,"x_min":-1,"x_max":429,"o":"m 246 43 q 172 -92 226 -51 q 10 -133 117 -133 q 0 -122 -1 -131 q 15 -112 1 -114 q 135 -80 94 -112 q 192 29 175 -47 q 201 81 199 58 q 206 126 204 104 q 211 171 208 149 q 221 222 214 193 q 261 299 232 264 q 332 353 290 333 q 283 394 297 363 q 278 465 269 426 q 297 529 286 500 q 319 585 308 558 q 341 640 331 613 q 358 701 351 668 q 347 808 372 772 q 251 843 322 843 q 246 853 244 846 q 260 864 247 861 q 394 822 360 864 q 414 710 429 781 q 394 642 406 671 q 372 587 383 613 q 350 535 361 561 q 331 475 339 508 q 329 437 325 454 q 342 406 333 419 q 366 383 351 392 q 396 372 381 375 q 399 356 404 365 q 369 340 393 346 q 304 303 325 329 q 271 229 283 278 q 256 131 257 174 q 246 43 256 88 z "},"°":{"ha":144,"x_min":111,"x_max":242,"o":"m 183 518 q 145 502 160 518 q 131 465 131 486 q 140 436 131 447 q 171 425 149 425 q 206 440 190 425 q 221 478 221 456 q 183 518 221 518 m 163 407 q 124 422 136 407 q 111 460 111 436 q 133 513 111 489 q 190 536 156 536 q 227 522 213 536 q 242 486 242 508 q 219 430 242 453 q 163 407 197 407 z "},"¤":{"ha":478,"x_min":18,"x_max":481,"o":"m 461 433 q 474 430 467 436 q 475 417 481 424 q 431 375 456 397 q 378 326 406 353 q 400 253 400 296 q 381 168 400 207 q 326 104 361 129 q 347 67 338 85 q 367 32 356 49 q 364 8 369 19 q 350 1 358 -4 q 326 44 339 22 q 303 89 314 65 q 213 67 261 67 q 136 89 167 67 q 83 43 108 65 q 38 1 58 21 q 24 5 31 -1 q 24 18 18 11 q 67 58 43 36 q 118 106 90 81 q 93 192 93 139 q 112 269 93 232 q 164 333 131 307 q 144 369 154 351 q 125 404 135 388 q 126 427 121 415 q 142 435 132 439 q 165 393 153 415 q 188 349 176 371 q 279 372 228 372 q 361 344 326 372 q 414 391 389 368 q 461 433 439 414 m 232 92 q 285 103 260 92 q 328 135 310 115 q 358 181 347 154 q 369 236 369 207 q 342 317 369 288 q 265 347 314 347 q 206 335 233 347 q 160 303 179 324 q 131 257 142 283 q 121 201 121 231 q 146 122 121 153 q 232 92 171 92 z "},"•":{"ha":288,"x_min":76,"x_max":239,"o":"m 139 126 q 92 144 107 126 q 76 193 76 163 q 103 258 76 229 q 175 288 131 288 q 221 270 203 288 q 239 225 239 253 q 211 156 239 185 q 139 126 183 126 z "},"‹":{"ha":263,"x_min":19,"x_max":281,"o":"m 265 349 q 278 342 275 351 q 269 324 281 332 q 223 290 250 311 q 168 248 196 269 q 115 206 140 226 q 76 171 90 185 q 138 114 106 147 q 189 53 169 81 q 189 38 190 47 q 183 19 188 28 q 173 6 179 11 q 158 4 167 1 q 97 83 132 44 q 32 144 61 121 q 35 168 19 156 q 148 263 88 215 q 265 349 208 310 z "}}}
